%TF.GenerationSoftware,KiCad,Pcbnew,7.0.10*%
%TF.CreationDate,2024-01-29T08:00:26-03:00*%
%TF.ProjectId,sensor_agv,73656e73-6f72-45f6-9167-762e6b696361,rev?*%
%TF.SameCoordinates,Original*%
%TF.FileFunction,Copper,L1,Top*%
%TF.FilePolarity,Positive*%
%FSLAX46Y46*%
G04 Gerber Fmt 4.6, Leading zero omitted, Abs format (unit mm)*
G04 Created by KiCad (PCBNEW 7.0.10) date 2024-01-29 08:00:26*
%MOMM*%
%LPD*%
G01*
G04 APERTURE LIST*
%TA.AperFunction,ComponentPad*%
%ADD10R,1.350000X1.350000*%
%TD*%
%TA.AperFunction,ComponentPad*%
%ADD11O,1.350000X1.350000*%
%TD*%
%TA.AperFunction,ComponentPad*%
%ADD12C,1.600000*%
%TD*%
%TA.AperFunction,ComponentPad*%
%ADD13R,1.600000X1.600000*%
%TD*%
%TA.AperFunction,ComponentPad*%
%ADD14C,5.700000*%
%TD*%
%TA.AperFunction,ComponentPad*%
%ADD15C,1.400000*%
%TD*%
%TA.AperFunction,ComponentPad*%
%ADD16O,1.400000X1.400000*%
%TD*%
%TA.AperFunction,Conductor*%
%ADD17C,0.250000*%
%TD*%
G04 APERTURE END LIST*
D10*
%TO.P,U8,1,VCC*%
%TO.N,/3.3V*%
X200543000Y-68976400D03*
D11*
%TO.P,U8,2,GND*%
%TO.N,/GND*%
X198543000Y-68976400D03*
%TO.P,U8,3,OUT*%
%TO.N,/Sensor_7*%
X196543000Y-68976400D03*
%TD*%
D12*
%TO.P,J4,1,Pin_1*%
%TO.N,/GND*%
X124841000Y-123113800D03*
D13*
%TO.P,J4,2,Pin_2*%
%TO.N,/BluePill/5V*%
X129921000Y-123113800D03*
%TD*%
D14*
%TO.P,REF\u002A\u002A,2*%
%TO.N,/GND*%
X200290000Y-129057400D03*
%TD*%
D10*
%TO.P,U1,1,VCC*%
%TO.N,/3.3V*%
X91543000Y-73976400D03*
D11*
%TO.P,U1,2,GND*%
%TO.N,/GND*%
X93543000Y-73976400D03*
%TO.P,U1,3,OUT*%
%TO.N,/Sensor_0*%
X95543000Y-73976400D03*
%TD*%
D12*
%TO.P,J3,1,Pin_1*%
%TO.N,/BluePill/CANL*%
X165531800Y-124047700D03*
D13*
%TO.P,J3,2,Pin_2*%
%TO.N,/BluePill/CANH*%
X160451800Y-124047700D03*
%TD*%
D10*
%TO.P,U5,1,VCC*%
%TO.N,/3.3V*%
X155543000Y-68976400D03*
D11*
%TO.P,U5,2,GND*%
%TO.N,/GND*%
X153543000Y-68976400D03*
%TO.P,U5,3,OUT*%
%TO.N,/Sensor_4*%
X151543000Y-68976400D03*
%TD*%
D10*
%TO.P,U4,1,VCC*%
%TO.N,/3.3V*%
X136543000Y-73976400D03*
D11*
%TO.P,U4,2,GND*%
%TO.N,/GND*%
X138543000Y-73976400D03*
%TO.P,U4,3,OUT*%
%TO.N,/Sensor_3*%
X140543000Y-73976400D03*
%TD*%
D10*
%TO.P,J2,1,Pin_1*%
%TO.N,unconnected-(J2-Pin_1-Pad1)*%
X153543000Y-85976400D03*
D11*
%TO.P,J2,2,Pin_2*%
%TO.N,/BluePill/5V*%
X153543000Y-87976400D03*
%TO.P,J2,3,Pin_3*%
%TO.N,/GND*%
X153543000Y-89976400D03*
%TO.P,J2,4,Pin_4*%
%TO.N,unconnected-(J2-Pin_4-Pad4)*%
X153543000Y-91976400D03*
%TO.P,J2,5,Pin_5*%
%TO.N,unconnected-(J2-Pin_5-Pad5)*%
X153543000Y-93976400D03*
%TO.P,J2,6,Pin_6*%
%TO.N,unconnected-(J2-Pin_6-Pad6)*%
X153543000Y-95976400D03*
%TO.P,J2,7,Pin_7*%
%TO.N,unconnected-(J2-Pin_7-Pad7)*%
X153543000Y-97976400D03*
%TO.P,J2,8,Pin_8*%
%TO.N,/Sensor_4*%
X153543000Y-99976400D03*
%TO.P,J2,9,Pin_9*%
%TO.N,/Sensor_5*%
X153543000Y-101976400D03*
%TO.P,J2,10,Pin_10*%
%TO.N,/Sensor_6*%
X153543000Y-103976400D03*
%TO.P,J2,11,Pin_11*%
%TO.N,/Sensor_7*%
X153543000Y-105976400D03*
%TO.P,J2,12,Pin_12*%
%TO.N,/BluePill/CTX*%
X153543000Y-107976400D03*
%TO.P,J2,13,Pin_13*%
%TO.N,/BluePill/CRX*%
X153543000Y-109976400D03*
%TO.P,J2,14,Pin_14*%
%TO.N,unconnected-(J2-Pin_14-Pad14)*%
X153543000Y-111976400D03*
%TO.P,J2,15,Pin_15*%
%TO.N,unconnected-(J2-Pin_15-Pad15)*%
X153543000Y-113976400D03*
%TO.P,J2,16,Pin_16*%
%TO.N,unconnected-(J2-Pin_16-Pad16)*%
X153543000Y-115976400D03*
%TO.P,J2,17,Pin_17*%
%TO.N,unconnected-(J2-Pin_17-Pad17)*%
X153543000Y-117976400D03*
%TO.P,J2,18,Pin_18*%
%TO.N,unconnected-(J2-Pin_18-Pad18)*%
X153543000Y-119976400D03*
%TO.P,J2,19,Pin_19*%
%TO.N,unconnected-(J2-Pin_19-Pad19)*%
X153543000Y-121976400D03*
%TO.P,J2,20,Pin_20*%
%TO.N,unconnected-(J2-Pin_20-Pad20)*%
X153543000Y-123976400D03*
%TD*%
D10*
%TO.P,U2,1,VCC*%
%TO.N,/3.3V*%
X106543000Y-73976400D03*
D11*
%TO.P,U2,2,GND*%
%TO.N,/GND*%
X108543000Y-73976400D03*
%TO.P,U2,3,OUT*%
%TO.N,/Sensor_1*%
X110543000Y-73976400D03*
%TD*%
D10*
%TO.P,J1,1,Pin_1*%
%TO.N,unconnected-(J1-Pin_1-Pad1)*%
X138543000Y-85976400D03*
D11*
%TO.P,J1,2,Pin_2*%
%TO.N,unconnected-(J1-Pin_2-Pad2)*%
X138543000Y-87976400D03*
%TO.P,J1,3,Pin_3*%
%TO.N,unconnected-(J1-Pin_3-Pad3)*%
X138543000Y-89976400D03*
%TO.P,J1,4,Pin_4*%
%TO.N,unconnected-(J1-Pin_4-Pad4)*%
X138543000Y-91976400D03*
%TO.P,J1,5,Pin_5*%
%TO.N,unconnected-(J1-Pin_5-Pad5)*%
X138543000Y-93976400D03*
%TO.P,J1,6,Pin_6*%
%TO.N,unconnected-(J1-Pin_6-Pad6)*%
X138543000Y-95976400D03*
%TO.P,J1,7,Pin_7*%
%TO.N,unconnected-(J1-Pin_7-Pad7)*%
X138543000Y-97976400D03*
%TO.P,J1,8,Pin_8*%
%TO.N,unconnected-(J1-Pin_8-Pad8)*%
X138543000Y-99976400D03*
%TO.P,J1,9,Pin_9*%
%TO.N,/Sensor_3*%
X138543000Y-101976400D03*
%TO.P,J1,10,Pin_10*%
%TO.N,/Sensor_2*%
X138543000Y-103976400D03*
%TO.P,J1,11,Pin_11*%
%TO.N,/Sensor_1*%
X138543000Y-105976400D03*
%TO.P,J1,12,Pin_12*%
%TO.N,/Sensor_0*%
X138543000Y-107976400D03*
%TO.P,J1,13,Pin_13*%
%TO.N,unconnected-(J1-Pin_13-Pad13)*%
X138543000Y-109976400D03*
%TO.P,J1,14,Pin_14*%
%TO.N,unconnected-(J1-Pin_14-Pad14)*%
X138543000Y-111976400D03*
%TO.P,J1,15,Pin_15*%
%TO.N,unconnected-(J1-Pin_15-Pad15)*%
X138543000Y-113976400D03*
%TO.P,J1,16,Pin_16*%
%TO.N,unconnected-(J1-Pin_16-Pad16)*%
X138543000Y-115976400D03*
%TO.P,J1,17,Pin_17*%
%TO.N,unconnected-(J1-Pin_17-Pad17)*%
X138543000Y-117976400D03*
%TO.P,J1,18,Pin_18*%
%TO.N,unconnected-(J1-Pin_18-Pad18)*%
X138543000Y-119976400D03*
%TO.P,J1,19,Pin_19*%
%TO.N,unconnected-(J1-Pin_19-Pad19)*%
X138543000Y-121976400D03*
%TO.P,J1,20,Pin_20*%
%TO.N,unconnected-(J1-Pin_20-Pad20)*%
X138543000Y-123976400D03*
%TD*%
D15*
%TO.P,R1,1*%
%TO.N,/BluePill/CANH*%
X168096200Y-111978800D03*
D16*
%TO.P,R1,2*%
%TO.N,/BluePill/CANL*%
X168096200Y-117058800D03*
%TD*%
D10*
%TO.P,U7,1,VCC*%
%TO.N,/3.3V*%
X185543000Y-68976400D03*
D11*
%TO.P,U7,2,GND*%
%TO.N,/GND*%
X183543000Y-68976400D03*
%TO.P,U7,3,OUT*%
%TO.N,/Sensor_6*%
X181543000Y-68976400D03*
%TD*%
D10*
%TO.P,U6,1,VCC*%
%TO.N,/3.3V*%
X170543000Y-68976400D03*
D11*
%TO.P,U6,2,GND*%
%TO.N,/GND*%
X168543000Y-68976400D03*
%TO.P,U6,3,OUT*%
%TO.N,/Sensor_5*%
X166543000Y-68976400D03*
%TD*%
D14*
%TO.P,REF\u002A\u002A,1*%
%TO.N,/GND*%
X91744800Y-129057400D03*
%TD*%
D10*
%TO.P,U3,1,VCC*%
%TO.N,/3.3V*%
X121543000Y-73976400D03*
D11*
%TO.P,U3,2,GND*%
%TO.N,/GND*%
X123543000Y-73976400D03*
%TO.P,U3,3,OUT*%
%TO.N,/Sensor_2*%
X125543000Y-73976400D03*
%TD*%
D10*
%TO.P,J5,1,Pin_1*%
%TO.N,/3.3V*%
X124491000Y-111699400D03*
D11*
%TO.P,J5,2,Pin_2*%
%TO.N,/GND*%
X126491000Y-111699400D03*
%TO.P,J5,3,Pin_3*%
%TO.N,/BluePill/5V*%
X128491000Y-111699400D03*
%TD*%
D10*
%TO.P,T1,1,3.3V*%
%TO.N,/3.3V*%
X177443400Y-104004200D03*
D11*
%TO.P,T1,2,GND*%
%TO.N,/GND*%
X177443400Y-106004200D03*
%TO.P,T1,3,CTX*%
%TO.N,/BluePill/CTX*%
X177443400Y-108004200D03*
%TO.P,T1,4,CRX*%
%TO.N,/BluePill/CRX*%
X177443400Y-110004200D03*
%TO.P,T1,5,CANH*%
%TO.N,/BluePill/CANH*%
X177443400Y-112004200D03*
%TO.P,T1,6,CANL*%
%TO.N,/BluePill/CANL*%
X177443400Y-114004200D03*
%TD*%
D17*
%TO.N,/Sensor_3*%
X133450600Y-84496000D02*
X140543000Y-77403600D01*
X140543000Y-77403600D02*
X140543000Y-73976400D01*
X135589400Y-101976400D02*
X133450600Y-99837600D01*
X133450600Y-99837600D02*
X133450600Y-84496000D01*
X138543000Y-101976400D02*
X135589400Y-101976400D01*
%TO.N,/Sensor_2*%
X125543000Y-94724000D02*
X125543000Y-73976400D01*
X138543000Y-103976400D02*
X134795400Y-103976400D01*
X134795400Y-103976400D02*
X125543000Y-94724000D01*
%TO.N,/Sensor_1*%
X110543000Y-77793600D02*
X110543000Y-73976400D01*
X138543000Y-105976400D02*
X134052200Y-105976400D01*
X110565200Y-77815800D02*
X110543000Y-77793600D01*
X134052200Y-105976400D02*
X110565200Y-82489400D01*
X110565200Y-82489400D02*
X110565200Y-77815800D01*
%TO.N,/Sensor_0*%
X138543000Y-107976400D02*
X133080400Y-107976400D01*
X133080400Y-107976400D02*
X99080400Y-73976400D01*
X99080400Y-73976400D02*
X95543000Y-73976400D01*
%TO.N,/Sensor_4*%
X156386800Y-99990000D02*
X158037800Y-98339000D01*
X151543000Y-74953200D02*
X151543000Y-68976400D01*
X156373200Y-99976400D02*
X156386800Y-99990000D01*
X153543000Y-99976400D02*
X156373200Y-99976400D01*
X158037800Y-81448000D02*
X151543000Y-74953200D01*
X158037800Y-98339000D02*
X158037800Y-81448000D01*
%TO.N,/Sensor_5*%
X157702400Y-101976400D02*
X166543000Y-93135800D01*
X166543000Y-93135800D02*
X166543000Y-68976400D01*
X153543000Y-101976400D02*
X157702400Y-101976400D01*
%TO.N,/Sensor_6*%
X153543000Y-103976400D02*
X159842600Y-103976400D01*
X171982400Y-91836600D02*
X171982400Y-81651200D01*
X181543000Y-72090600D02*
X181543000Y-68976400D01*
X159842600Y-103976400D02*
X171982400Y-91836600D01*
X171982400Y-81651200D02*
X181543000Y-72090600D01*
%TO.N,/BluePill/CRX*%
X177415600Y-109976400D02*
X177443400Y-110004200D01*
X153543000Y-109976400D02*
X177415600Y-109976400D01*
%TO.N,/BluePill/CTX*%
X153543000Y-107976400D02*
X177415600Y-107976400D01*
X177415600Y-107976400D02*
X177443400Y-108004200D01*
%TO.N,/Sensor_7*%
X161957400Y-105976400D02*
X196543000Y-71390800D01*
X196543000Y-71390800D02*
X196543000Y-68976400D01*
X153543000Y-105976400D02*
X161957400Y-105976400D01*
%TO.N,/BluePill/5V*%
X131562200Y-127523600D02*
X129946400Y-125907800D01*
X143128000Y-94859200D02*
X143128000Y-125618600D01*
X141223000Y-127523600D02*
X131562200Y-127523600D01*
X143128000Y-125618600D02*
X141223000Y-127523600D01*
X153543000Y-87976400D02*
X150010800Y-87976400D01*
X129946400Y-120708400D02*
X128491000Y-119253000D01*
X129946400Y-125907800D02*
X129946400Y-123825000D01*
X129946400Y-123825000D02*
X129946400Y-120708400D01*
X128491000Y-111699400D02*
X128491000Y-119253000D01*
X150010800Y-87976400D02*
X143128000Y-94859200D01*
%TO.N,/GND*%
X151465200Y-89976400D02*
X153543000Y-89976400D01*
X129921000Y-129225400D02*
X142061200Y-129225400D01*
X124866400Y-126136400D02*
X127965200Y-129235200D01*
X124866400Y-123825000D02*
X124866400Y-126136400D01*
X127965200Y-129235200D02*
X129911200Y-129235200D01*
X124866400Y-123825000D02*
X124866400Y-120877600D01*
X142061200Y-129225400D02*
X145490200Y-125796400D01*
X129462800Y-129225400D02*
X129921000Y-129225400D01*
X124866400Y-120877600D02*
X126491000Y-119253000D01*
X145490200Y-95951400D02*
X151465200Y-89976400D01*
X145490200Y-125796400D02*
X145490200Y-95951400D01*
X129911200Y-129235200D02*
X129921000Y-129225400D01*
X126491000Y-111699400D02*
X126491000Y-119253000D01*
%TO.N,/3.3V*%
X154862800Y-65496800D02*
X140410200Y-65496800D01*
X91543000Y-73976400D02*
X91543000Y-72047600D01*
X170543000Y-68976400D02*
X167063400Y-65496800D01*
X134923800Y-70983200D02*
X136543000Y-72602400D01*
X106543000Y-73976400D02*
X106543000Y-72625200D01*
X185543000Y-66992400D02*
X184047400Y-65496800D01*
X200521000Y-72467400D02*
X200543000Y-72467400D01*
X91543000Y-76446600D02*
X91543000Y-73976400D01*
X184047400Y-65496800D02*
X199033400Y-65496800D01*
X121543000Y-72563000D02*
X119963200Y-70983200D01*
X155543000Y-66177000D02*
X154862800Y-65496800D01*
X200543000Y-67006400D02*
X200543000Y-68976400D01*
X185543000Y-68976400D02*
X185543000Y-66992400D01*
X200543000Y-72467400D02*
X200543000Y-68976400D01*
X121543000Y-73976400D02*
X121543000Y-72563000D01*
X104901000Y-70983200D02*
X119963200Y-70983200D01*
X140410200Y-65496800D02*
X134923800Y-70983200D01*
X106543000Y-72625200D02*
X104901000Y-70983200D01*
X199033400Y-65496800D02*
X200543000Y-67006400D01*
X136543000Y-72602400D02*
X136543000Y-73976400D01*
X167063400Y-65496800D02*
X166800800Y-65496800D01*
X166800800Y-65496800D02*
X184047400Y-65496800D01*
X177443400Y-95545000D02*
X200521000Y-72467400D01*
X119963200Y-70983200D02*
X134923800Y-70983200D01*
X124491000Y-111699400D02*
X124491000Y-109394600D01*
X154862800Y-65496800D02*
X166800800Y-65496800D01*
X91543000Y-72047600D02*
X92607400Y-70983200D01*
X155543000Y-68976400D02*
X155543000Y-66177000D01*
X92607400Y-70983200D02*
X104901000Y-70983200D01*
X177443400Y-104004200D02*
X177443400Y-95545000D01*
X124491000Y-109394600D02*
X91543000Y-76446600D01*
%TO.N,/BluePill/CANL*%
X170814000Y-117058800D02*
X173868600Y-114004200D01*
X165506400Y-124022300D02*
X165531800Y-124047700D01*
X168096200Y-117058800D02*
X170814000Y-117058800D01*
X173868600Y-114004200D02*
X177443400Y-114004200D01*
X166202000Y-117058800D02*
X165506400Y-117754400D01*
X165506400Y-117754400D02*
X165506400Y-124022300D01*
X168096200Y-117058800D02*
X166202000Y-117058800D01*
%TO.N,/BluePill/CANH*%
X168121600Y-112004200D02*
X168096200Y-111978800D01*
X165505400Y-111978800D02*
X160451800Y-117032400D01*
X168096200Y-111978800D02*
X165505400Y-111978800D01*
X160451800Y-117032400D02*
X160451800Y-124022300D01*
X177443400Y-112004200D02*
X168121600Y-112004200D01*
X160451800Y-124022300D02*
X160426400Y-124047700D01*
%TD*%
%TA.AperFunction,Conductor*%
%TO.N,/GND*%
G36*
X154619387Y-66141985D02*
G01*
X154640029Y-66158619D01*
X154881181Y-66399771D01*
X154914666Y-66461094D01*
X154917500Y-66487452D01*
X154917500Y-67679048D01*
X154897815Y-67746087D01*
X154845011Y-67791842D01*
X154806755Y-67802338D01*
X154760516Y-67807309D01*
X154625671Y-67857602D01*
X154625664Y-67857606D01*
X154510455Y-67943852D01*
X154510452Y-67943855D01*
X154447913Y-68027397D01*
X154391980Y-68069268D01*
X154322288Y-68074252D01*
X154265109Y-68044723D01*
X154254130Y-68034714D01*
X154254125Y-68034710D01*
X154068987Y-67920077D01*
X154068985Y-67920076D01*
X153865931Y-67841413D01*
X153865921Y-67841410D01*
X153793001Y-67827778D01*
X153793000Y-67827779D01*
X153793000Y-68660714D01*
X153781045Y-68648759D01*
X153668148Y-68591235D01*
X153574481Y-68576400D01*
X153511519Y-68576400D01*
X153417852Y-68591235D01*
X153304955Y-68648759D01*
X153293000Y-68660714D01*
X153293000Y-67827779D01*
X153292998Y-67827778D01*
X153220078Y-67841410D01*
X153220068Y-67841413D01*
X153017014Y-67920076D01*
X153017012Y-67920077D01*
X152831869Y-68034714D01*
X152831868Y-68034714D01*
X152670945Y-68181414D01*
X152642267Y-68219390D01*
X152586157Y-68261026D01*
X152516445Y-68265717D01*
X152455264Y-68231975D01*
X152444359Y-68219390D01*
X152435547Y-68207721D01*
X152415427Y-68181078D01*
X152254432Y-68034312D01*
X152254428Y-68034309D01*
X152254423Y-68034306D01*
X152069213Y-67919629D01*
X152069207Y-67919626D01*
X151984113Y-67886660D01*
X151866069Y-67840930D01*
X151651926Y-67800900D01*
X151434074Y-67800900D01*
X151219931Y-67840930D01*
X151176896Y-67857602D01*
X151016792Y-67919626D01*
X151016786Y-67919629D01*
X150831576Y-68034306D01*
X150831566Y-68034313D01*
X150670574Y-68181076D01*
X150539288Y-68354927D01*
X150442184Y-68549937D01*
X150382564Y-68759481D01*
X150362464Y-68976399D01*
X150362464Y-68976400D01*
X150382564Y-69193318D01*
X150442184Y-69402862D01*
X150539288Y-69597872D01*
X150670574Y-69771724D01*
X150804411Y-69893731D01*
X150831568Y-69918488D01*
X150858776Y-69935334D01*
X150905412Y-69987360D01*
X150917500Y-70040761D01*
X150917500Y-74870455D01*
X150915775Y-74886072D01*
X150916061Y-74886099D01*
X150915326Y-74893865D01*
X150917439Y-74961072D01*
X150917500Y-74964967D01*
X150917500Y-74992557D01*
X150918003Y-74996535D01*
X150918918Y-75008167D01*
X150920290Y-75051824D01*
X150920291Y-75051827D01*
X150925880Y-75071067D01*
X150929824Y-75090111D01*
X150930467Y-75095193D01*
X150932336Y-75109992D01*
X150948414Y-75150603D01*
X150952197Y-75161652D01*
X150964381Y-75203588D01*
X150974580Y-75220834D01*
X150983138Y-75238303D01*
X150990514Y-75256932D01*
X151016181Y-75292260D01*
X151022593Y-75302021D01*
X151044828Y-75339617D01*
X151044833Y-75339624D01*
X151058990Y-75353780D01*
X151071628Y-75368576D01*
X151083405Y-75384786D01*
X151083406Y-75384787D01*
X151117057Y-75412625D01*
X151125698Y-75420488D01*
X157375981Y-81670771D01*
X157409466Y-81732094D01*
X157412300Y-81758452D01*
X157412300Y-98028547D01*
X157392615Y-98095586D01*
X157375981Y-98116228D01*
X156177628Y-99314581D01*
X156116305Y-99348066D01*
X156089947Y-99350900D01*
X154605414Y-99350900D01*
X154538375Y-99331215D01*
X154506460Y-99301626D01*
X154415427Y-99181078D01*
X154291423Y-99068034D01*
X154255145Y-99008327D01*
X154256905Y-98938479D01*
X154291423Y-98884765D01*
X154415427Y-98771722D01*
X154546712Y-98597872D01*
X154643817Y-98402859D01*
X154703435Y-98193323D01*
X154723536Y-97976400D01*
X154703435Y-97759477D01*
X154643817Y-97549941D01*
X154546712Y-97354928D01*
X154415427Y-97181078D01*
X154291423Y-97068034D01*
X154255145Y-97008327D01*
X154256905Y-96938479D01*
X154291423Y-96884765D01*
X154415427Y-96771722D01*
X154546712Y-96597872D01*
X154643817Y-96402859D01*
X154703435Y-96193323D01*
X154723536Y-95976400D01*
X154703435Y-95759477D01*
X154643817Y-95549941D01*
X154546712Y-95354928D01*
X154415427Y-95181078D01*
X154291423Y-95068034D01*
X154255145Y-95008327D01*
X154256905Y-94938479D01*
X154291423Y-94884765D01*
X154415427Y-94771722D01*
X154546712Y-94597872D01*
X154643817Y-94402859D01*
X154703435Y-94193323D01*
X154723536Y-93976400D01*
X154703435Y-93759477D01*
X154643817Y-93549941D01*
X154546712Y-93354928D01*
X154415427Y-93181078D01*
X154291423Y-93068034D01*
X154255145Y-93008327D01*
X154256905Y-92938479D01*
X154291423Y-92884765D01*
X154415427Y-92771722D01*
X154546712Y-92597872D01*
X154643817Y-92402859D01*
X154703435Y-92193323D01*
X154723536Y-91976400D01*
X154703435Y-91759477D01*
X154643817Y-91549941D01*
X154546712Y-91354928D01*
X154415427Y-91181078D01*
X154415425Y-91181075D01*
X154291055Y-91067698D01*
X154254773Y-91007987D01*
X154256534Y-90938140D01*
X154291056Y-90884423D01*
X154415054Y-90771385D01*
X154546284Y-90597608D01*
X154643348Y-90402680D01*
X154693505Y-90226400D01*
X153858686Y-90226400D01*
X153870641Y-90214445D01*
X153928165Y-90101548D01*
X153947986Y-89976400D01*
X153928165Y-89851252D01*
X153870641Y-89738355D01*
X153858686Y-89726400D01*
X154693505Y-89726400D01*
X154693505Y-89726399D01*
X154643348Y-89550119D01*
X154546284Y-89355191D01*
X154415056Y-89181417D01*
X154291055Y-89068376D01*
X154254774Y-89008665D01*
X154256534Y-88938817D01*
X154291052Y-88885104D01*
X154415427Y-88771722D01*
X154546712Y-88597872D01*
X154643817Y-88402859D01*
X154703435Y-88193323D01*
X154723536Y-87976400D01*
X154703435Y-87759477D01*
X154643817Y-87549941D01*
X154546712Y-87354928D01*
X154465250Y-87247054D01*
X154440560Y-87181697D01*
X154455125Y-87113362D01*
X154489895Y-87073065D01*
X154537545Y-87037393D01*
X154575546Y-87008946D01*
X154661796Y-86893731D01*
X154712091Y-86758883D01*
X154718500Y-86699273D01*
X154718499Y-85253528D01*
X154712091Y-85193917D01*
X154661796Y-85059069D01*
X154661795Y-85059068D01*
X154661793Y-85059064D01*
X154575547Y-84943855D01*
X154575544Y-84943852D01*
X154460335Y-84857606D01*
X154460328Y-84857602D01*
X154325482Y-84807308D01*
X154325483Y-84807308D01*
X154265883Y-84800901D01*
X154265881Y-84800900D01*
X154265873Y-84800900D01*
X154265864Y-84800900D01*
X152820129Y-84800900D01*
X152820123Y-84800901D01*
X152760516Y-84807308D01*
X152625671Y-84857602D01*
X152625664Y-84857606D01*
X152510455Y-84943852D01*
X152510452Y-84943855D01*
X152424206Y-85059064D01*
X152424202Y-85059071D01*
X152373908Y-85193917D01*
X152367501Y-85253516D01*
X152367501Y-85253523D01*
X152367500Y-85253535D01*
X152367500Y-86699270D01*
X152367501Y-86699276D01*
X152373908Y-86758883D01*
X152424202Y-86893728D01*
X152424206Y-86893735D01*
X152493358Y-86986109D01*
X152510454Y-87008946D01*
X152596105Y-87073064D01*
X152637975Y-87128997D01*
X152642959Y-87198689D01*
X152620749Y-87247054D01*
X152592421Y-87284567D01*
X152579540Y-87301625D01*
X152523434Y-87343262D01*
X152480586Y-87350900D01*
X150093538Y-87350900D01*
X150077921Y-87349176D01*
X150077894Y-87349462D01*
X150070132Y-87348727D01*
X150002945Y-87350839D01*
X149999051Y-87350900D01*
X149971450Y-87350900D01*
X149967762Y-87351365D01*
X149967449Y-87351405D01*
X149955831Y-87352318D01*
X149912173Y-87353690D01*
X149912172Y-87353690D01*
X149892929Y-87359281D01*
X149873879Y-87363225D01*
X149854011Y-87365734D01*
X149854010Y-87365734D01*
X149813399Y-87381813D01*
X149802354Y-87385594D01*
X149760414Y-87397779D01*
X149760410Y-87397781D01*
X149743166Y-87407979D01*
X149725705Y-87416533D01*
X149707074Y-87423910D01*
X149707062Y-87423917D01*
X149671733Y-87449585D01*
X149661973Y-87455996D01*
X149624380Y-87478229D01*
X149610214Y-87492395D01*
X149595424Y-87505027D01*
X149579214Y-87516804D01*
X149579211Y-87516807D01*
X149551373Y-87550458D01*
X149543511Y-87559097D01*
X142744208Y-94358399D01*
X142731951Y-94368220D01*
X142732134Y-94368441D01*
X142726122Y-94373414D01*
X142680098Y-94422423D01*
X142677391Y-94425216D01*
X142657889Y-94444717D01*
X142657875Y-94444734D01*
X142655407Y-94447915D01*
X142647843Y-94456770D01*
X142617937Y-94488618D01*
X142617936Y-94488620D01*
X142608284Y-94506176D01*
X142597610Y-94522426D01*
X142585329Y-94538261D01*
X142585324Y-94538268D01*
X142567975Y-94578358D01*
X142562838Y-94588844D01*
X142541803Y-94627106D01*
X142536822Y-94646507D01*
X142530521Y-94664910D01*
X142522562Y-94683302D01*
X142522561Y-94683305D01*
X142515728Y-94726443D01*
X142513360Y-94737874D01*
X142502501Y-94780171D01*
X142502500Y-94780182D01*
X142502500Y-94800216D01*
X142500973Y-94819613D01*
X142497840Y-94839396D01*
X142501272Y-94875705D01*
X142501950Y-94882874D01*
X142502500Y-94894543D01*
X142502500Y-125308147D01*
X142482815Y-125375186D01*
X142466181Y-125395828D01*
X141000228Y-126861781D01*
X140938905Y-126895266D01*
X140912547Y-126898100D01*
X131872653Y-126898100D01*
X131805614Y-126878415D01*
X131784972Y-126861781D01*
X130608219Y-125685028D01*
X130574734Y-125623705D01*
X130571900Y-125597347D01*
X130571900Y-124538299D01*
X130591585Y-124471260D01*
X130644389Y-124425505D01*
X130695900Y-124414299D01*
X130768871Y-124414299D01*
X130768872Y-124414299D01*
X130828483Y-124407891D01*
X130963331Y-124357596D01*
X131078546Y-124271346D01*
X131164796Y-124156131D01*
X131215091Y-124021283D01*
X131221500Y-123961673D01*
X131221499Y-122265928D01*
X131215091Y-122206317D01*
X131164796Y-122071469D01*
X131164795Y-122071468D01*
X131164793Y-122071464D01*
X131078547Y-121956255D01*
X131078544Y-121956252D01*
X130963335Y-121870006D01*
X130963328Y-121870002D01*
X130828482Y-121819708D01*
X130828483Y-121819708D01*
X130768883Y-121813301D01*
X130768881Y-121813300D01*
X130768873Y-121813300D01*
X130768865Y-121813300D01*
X130695900Y-121813300D01*
X130628861Y-121793615D01*
X130583106Y-121740811D01*
X130571900Y-121689300D01*
X130571900Y-120791137D01*
X130573624Y-120775523D01*
X130573338Y-120775496D01*
X130574072Y-120767733D01*
X130571961Y-120700543D01*
X130571900Y-120696649D01*
X130571900Y-120669051D01*
X130571900Y-120669050D01*
X130571397Y-120665070D01*
X130570480Y-120653421D01*
X130569109Y-120609774D01*
X130569109Y-120609772D01*
X130563520Y-120590537D01*
X130559574Y-120571484D01*
X130557064Y-120551608D01*
X130540978Y-120510981D01*
X130537203Y-120499954D01*
X130525017Y-120458010D01*
X130514821Y-120440769D01*
X130506260Y-120423293D01*
X130498886Y-120404669D01*
X130498885Y-120404667D01*
X130497574Y-120402862D01*
X130473209Y-120369326D01*
X130466812Y-120359590D01*
X130444570Y-120321979D01*
X130444567Y-120321976D01*
X130444565Y-120321973D01*
X130430405Y-120307813D01*
X130417770Y-120293020D01*
X130405993Y-120276812D01*
X130372345Y-120248976D01*
X130363704Y-120241113D01*
X129152819Y-119030228D01*
X129119334Y-118968905D01*
X129116500Y-118942547D01*
X129116500Y-112763761D01*
X129136185Y-112696722D01*
X129175223Y-112658334D01*
X129202432Y-112641488D01*
X129363427Y-112494722D01*
X129494712Y-112320872D01*
X129591817Y-112125859D01*
X129651435Y-111916323D01*
X129671536Y-111699400D01*
X129651435Y-111482477D01*
X129591817Y-111272941D01*
X129494712Y-111077928D01*
X129363427Y-110904078D01*
X129358464Y-110899554D01*
X129218236Y-110771719D01*
X129202432Y-110757312D01*
X129202428Y-110757309D01*
X129202423Y-110757306D01*
X129017213Y-110642629D01*
X129017207Y-110642626D01*
X128931793Y-110609537D01*
X128814069Y-110563930D01*
X128599926Y-110523900D01*
X128382074Y-110523900D01*
X128167931Y-110563930D01*
X128124896Y-110580602D01*
X127964792Y-110642626D01*
X127964786Y-110642629D01*
X127779576Y-110757306D01*
X127779566Y-110757313D01*
X127618574Y-110904076D01*
X127589640Y-110942391D01*
X127533530Y-110984027D01*
X127463818Y-110988718D01*
X127402637Y-110954976D01*
X127391731Y-110942390D01*
X127363051Y-110904411D01*
X127363050Y-110904410D01*
X127202131Y-110757714D01*
X127016987Y-110643077D01*
X127016985Y-110643076D01*
X126813931Y-110564413D01*
X126813921Y-110564410D01*
X126741001Y-110550778D01*
X126741000Y-110550779D01*
X126741000Y-111383714D01*
X126729045Y-111371759D01*
X126616148Y-111314235D01*
X126522481Y-111299400D01*
X126459519Y-111299400D01*
X126365852Y-111314235D01*
X126252955Y-111371759D01*
X126241000Y-111383714D01*
X126241000Y-110550779D01*
X126240998Y-110550778D01*
X126168078Y-110564410D01*
X126168068Y-110564413D01*
X125965014Y-110643076D01*
X125965012Y-110643077D01*
X125779869Y-110757714D01*
X125779868Y-110757714D01*
X125768887Y-110767725D01*
X125706082Y-110798340D01*
X125636695Y-110790140D01*
X125586086Y-110750397D01*
X125523546Y-110666854D01*
X125468534Y-110625672D01*
X125408335Y-110580606D01*
X125408328Y-110580602D01*
X125273483Y-110530308D01*
X125227243Y-110525337D01*
X125162693Y-110498599D01*
X125122845Y-110441206D01*
X125116500Y-110402048D01*
X125116500Y-109477337D01*
X125118224Y-109461723D01*
X125117938Y-109461696D01*
X125118672Y-109453933D01*
X125116561Y-109386743D01*
X125116500Y-109382849D01*
X125116500Y-109355251D01*
X125116500Y-109355250D01*
X125115997Y-109351270D01*
X125115080Y-109339621D01*
X125113709Y-109295974D01*
X125113709Y-109295972D01*
X125108120Y-109276737D01*
X125104174Y-109257684D01*
X125101664Y-109237808D01*
X125085578Y-109197181D01*
X125081803Y-109186154D01*
X125069617Y-109144210D01*
X125059421Y-109126969D01*
X125050860Y-109109493D01*
X125049308Y-109105575D01*
X125043486Y-109090868D01*
X125017809Y-109055526D01*
X125011412Y-109045790D01*
X124989170Y-109008179D01*
X124989167Y-109008176D01*
X124989165Y-109008173D01*
X124975005Y-108994013D01*
X124962370Y-108979220D01*
X124950593Y-108963012D01*
X124916945Y-108935176D01*
X124908304Y-108927313D01*
X92204819Y-76223828D01*
X92171334Y-76162505D01*
X92168500Y-76136147D01*
X92168500Y-75273751D01*
X92188185Y-75206712D01*
X92240989Y-75160957D01*
X92279247Y-75150461D01*
X92325483Y-75145491D01*
X92460331Y-75095196D01*
X92575546Y-75008946D01*
X92609931Y-74963014D01*
X92638087Y-74925403D01*
X92694020Y-74883532D01*
X92763712Y-74878548D01*
X92820891Y-74908077D01*
X92831869Y-74918085D01*
X92831874Y-74918089D01*
X93017012Y-75032722D01*
X93017023Y-75032727D01*
X93220060Y-75111384D01*
X93293000Y-75125019D01*
X93293000Y-74292086D01*
X93304955Y-74304041D01*
X93417852Y-74361565D01*
X93511519Y-74376400D01*
X93574481Y-74376400D01*
X93668148Y-74361565D01*
X93781045Y-74304041D01*
X93793000Y-74292086D01*
X93793000Y-75125019D01*
X93865939Y-75111384D01*
X94068976Y-75032727D01*
X94068987Y-75032722D01*
X94254130Y-74918085D01*
X94254131Y-74918085D01*
X94415055Y-74771384D01*
X94443730Y-74733412D01*
X94499838Y-74691774D01*
X94569550Y-74687081D01*
X94630733Y-74720822D01*
X94641640Y-74733409D01*
X94660512Y-74758400D01*
X94670573Y-74771722D01*
X94831568Y-74918488D01*
X94831575Y-74918492D01*
X94831576Y-74918493D01*
X95016786Y-75033170D01*
X95016792Y-75033173D01*
X95036379Y-75040761D01*
X95219931Y-75111870D01*
X95434074Y-75151900D01*
X95434076Y-75151900D01*
X95651924Y-75151900D01*
X95651926Y-75151900D01*
X95866069Y-75111870D01*
X96069210Y-75033172D01*
X96254432Y-74918488D01*
X96415427Y-74771722D01*
X96506460Y-74651173D01*
X96562568Y-74609537D01*
X96605414Y-74601900D01*
X98769948Y-74601900D01*
X98836987Y-74621585D01*
X98857629Y-74638219D01*
X132579597Y-108360188D01*
X132589422Y-108372451D01*
X132589643Y-108372269D01*
X132594611Y-108378274D01*
X132643622Y-108424299D01*
X132646421Y-108427012D01*
X132665922Y-108446514D01*
X132665926Y-108446517D01*
X132665929Y-108446520D01*
X132669102Y-108448981D01*
X132677974Y-108456559D01*
X132709818Y-108486462D01*
X132727376Y-108496114D01*
X132743635Y-108506795D01*
X132759464Y-108519073D01*
X132799555Y-108536421D01*
X132810026Y-108541551D01*
X132832580Y-108553950D01*
X132848302Y-108562594D01*
X132848304Y-108562595D01*
X132848308Y-108562597D01*
X132867716Y-108567580D01*
X132886119Y-108573881D01*
X132904501Y-108581836D01*
X132904502Y-108581836D01*
X132904504Y-108581837D01*
X132947650Y-108588670D01*
X132959072Y-108591036D01*
X133001381Y-108601900D01*
X133021416Y-108601900D01*
X133040814Y-108603426D01*
X133060594Y-108606559D01*
X133060595Y-108606560D01*
X133060595Y-108606559D01*
X133060596Y-108606560D01*
X133104075Y-108602450D01*
X133115744Y-108601900D01*
X137480586Y-108601900D01*
X137547625Y-108621585D01*
X137579539Y-108651173D01*
X137670573Y-108771722D01*
X137670575Y-108771724D01*
X137670579Y-108771728D01*
X137794572Y-108884763D01*
X137830854Y-108944474D01*
X137829093Y-109014322D01*
X137794572Y-109068037D01*
X137670574Y-109181075D01*
X137539288Y-109354927D01*
X137442184Y-109549937D01*
X137382564Y-109759481D01*
X137362464Y-109976399D01*
X137362464Y-109976400D01*
X137382564Y-110193318D01*
X137382564Y-110193320D01*
X137382565Y-110193323D01*
X137390475Y-110221123D01*
X137442184Y-110402862D01*
X137539288Y-110597872D01*
X137670574Y-110771724D01*
X137794572Y-110884763D01*
X137830854Y-110944474D01*
X137829093Y-111014322D01*
X137794572Y-111068037D01*
X137670574Y-111181075D01*
X137539288Y-111354927D01*
X137442184Y-111549937D01*
X137382564Y-111759481D01*
X137362464Y-111976399D01*
X137362464Y-111976400D01*
X137382564Y-112193318D01*
X137382564Y-112193320D01*
X137382565Y-112193323D01*
X137390475Y-112221123D01*
X137442184Y-112402862D01*
X137539288Y-112597872D01*
X137670574Y-112771724D01*
X137794572Y-112884763D01*
X137830854Y-112944474D01*
X137829093Y-113014322D01*
X137794572Y-113068037D01*
X137670574Y-113181075D01*
X137539288Y-113354927D01*
X137442184Y-113549937D01*
X137382564Y-113759481D01*
X137362464Y-113976399D01*
X137362464Y-113976400D01*
X137382564Y-114193318D01*
X137382564Y-114193320D01*
X137382565Y-114193323D01*
X137390475Y-114221123D01*
X137442184Y-114402862D01*
X137539288Y-114597872D01*
X137670574Y-114771724D01*
X137794572Y-114884763D01*
X137830854Y-114944474D01*
X137829093Y-115014322D01*
X137794572Y-115068037D01*
X137670574Y-115181075D01*
X137539288Y-115354927D01*
X137442184Y-115549937D01*
X137382564Y-115759481D01*
X137362464Y-115976399D01*
X137362464Y-115976400D01*
X137382564Y-116193318D01*
X137382564Y-116193320D01*
X137382565Y-116193323D01*
X137436825Y-116384027D01*
X137442184Y-116402862D01*
X137539288Y-116597872D01*
X137670574Y-116771724D01*
X137794572Y-116884763D01*
X137830854Y-116944474D01*
X137829093Y-117014322D01*
X137794572Y-117068037D01*
X137670574Y-117181075D01*
X137539288Y-117354927D01*
X137442184Y-117549937D01*
X137382564Y-117759481D01*
X137362464Y-117976399D01*
X137362464Y-117976400D01*
X137382564Y-118193318D01*
X137382564Y-118193320D01*
X137382565Y-118193323D01*
X137401337Y-118259300D01*
X137442184Y-118402862D01*
X137539288Y-118597872D01*
X137670574Y-118771724D01*
X137794572Y-118884763D01*
X137830854Y-118944474D01*
X137829093Y-119014322D01*
X137794572Y-119068037D01*
X137670574Y-119181075D01*
X137539288Y-119354927D01*
X137442184Y-119549937D01*
X137382564Y-119759481D01*
X137362464Y-119976399D01*
X137362464Y-119976400D01*
X137382564Y-120193318D01*
X137382564Y-120193320D01*
X137382565Y-120193323D01*
X137442183Y-120402859D01*
X137442184Y-120402862D01*
X137539288Y-120597872D01*
X137670574Y-120771724D01*
X137794572Y-120884763D01*
X137830854Y-120944474D01*
X137829093Y-121014322D01*
X137794572Y-121068037D01*
X137670574Y-121181075D01*
X137539288Y-121354927D01*
X137442184Y-121549937D01*
X137382564Y-121759481D01*
X137362464Y-121976399D01*
X137362464Y-121976400D01*
X137382564Y-122193318D01*
X137382564Y-122193320D01*
X137382565Y-122193323D01*
X137403223Y-122265927D01*
X137442184Y-122402862D01*
X137539288Y-122597872D01*
X137670574Y-122771724D01*
X137794572Y-122884763D01*
X137830854Y-122944474D01*
X137829093Y-123014322D01*
X137794572Y-123068037D01*
X137670574Y-123181075D01*
X137539288Y-123354927D01*
X137442184Y-123549937D01*
X137382564Y-123759481D01*
X137362464Y-123976399D01*
X137362464Y-123976400D01*
X137382564Y-124193318D01*
X137382564Y-124193320D01*
X137382565Y-124193323D01*
X137424318Y-124340069D01*
X137442184Y-124402862D01*
X137483974Y-124486787D01*
X137539288Y-124597872D01*
X137670573Y-124771722D01*
X137831568Y-124918488D01*
X137831575Y-124918492D01*
X137831576Y-124918493D01*
X138016786Y-125033170D01*
X138016792Y-125033173D01*
X138039664Y-125042033D01*
X138219931Y-125111870D01*
X138434074Y-125151900D01*
X138434076Y-125151900D01*
X138651924Y-125151900D01*
X138651926Y-125151900D01*
X138866069Y-125111870D01*
X139069210Y-125033172D01*
X139254432Y-124918488D01*
X139415427Y-124771722D01*
X139546712Y-124597872D01*
X139643817Y-124402859D01*
X139703435Y-124193323D01*
X139723536Y-123976400D01*
X139703435Y-123759477D01*
X139643817Y-123549941D01*
X139546712Y-123354928D01*
X139415427Y-123181078D01*
X139291423Y-123068034D01*
X139255145Y-123008327D01*
X139256905Y-122938479D01*
X139291423Y-122884765D01*
X139415427Y-122771722D01*
X139546712Y-122597872D01*
X139643817Y-122402859D01*
X139703435Y-122193323D01*
X139723536Y-121976400D01*
X139703435Y-121759477D01*
X139643817Y-121549941D01*
X139546712Y-121354928D01*
X139415427Y-121181078D01*
X139291423Y-121068034D01*
X139255145Y-121008327D01*
X139256905Y-120938479D01*
X139291423Y-120884765D01*
X139415427Y-120771722D01*
X139546712Y-120597872D01*
X139643817Y-120402859D01*
X139703435Y-120193323D01*
X139723536Y-119976400D01*
X139703435Y-119759477D01*
X139643817Y-119549941D01*
X139546712Y-119354928D01*
X139415427Y-119181078D01*
X139291423Y-119068034D01*
X139255145Y-119008327D01*
X139256905Y-118938479D01*
X139291423Y-118884765D01*
X139415427Y-118771722D01*
X139546712Y-118597872D01*
X139643817Y-118402859D01*
X139703435Y-118193323D01*
X139723536Y-117976400D01*
X139703435Y-117759477D01*
X139643817Y-117549941D01*
X139546712Y-117354928D01*
X139415427Y-117181078D01*
X139291423Y-117068034D01*
X139255145Y-117008327D01*
X139256905Y-116938479D01*
X139291423Y-116884765D01*
X139415427Y-116771722D01*
X139546712Y-116597872D01*
X139643817Y-116402859D01*
X139703435Y-116193323D01*
X139723536Y-115976400D01*
X139703435Y-115759477D01*
X139643817Y-115549941D01*
X139546712Y-115354928D01*
X139415427Y-115181078D01*
X139291423Y-115068034D01*
X139255145Y-115008327D01*
X139256905Y-114938479D01*
X139291423Y-114884765D01*
X139415427Y-114771722D01*
X139546712Y-114597872D01*
X139643817Y-114402859D01*
X139703435Y-114193323D01*
X139723536Y-113976400D01*
X139703435Y-113759477D01*
X139643817Y-113549941D01*
X139546712Y-113354928D01*
X139415427Y-113181078D01*
X139291423Y-113068034D01*
X139255145Y-113008327D01*
X139256905Y-112938479D01*
X139291423Y-112884765D01*
X139415427Y-112771722D01*
X139546712Y-112597872D01*
X139643817Y-112402859D01*
X139703435Y-112193323D01*
X139723536Y-111976400D01*
X139703435Y-111759477D01*
X139643817Y-111549941D01*
X139546712Y-111354928D01*
X139415427Y-111181078D01*
X139291423Y-111068034D01*
X139255145Y-111008327D01*
X139256905Y-110938479D01*
X139291423Y-110884765D01*
X139415427Y-110771722D01*
X139546712Y-110597872D01*
X139643817Y-110402859D01*
X139703435Y-110193323D01*
X139723536Y-109976400D01*
X139703435Y-109759477D01*
X139643817Y-109549941D01*
X139546712Y-109354928D01*
X139415427Y-109181078D01*
X139291423Y-109068034D01*
X139255145Y-109008327D01*
X139256905Y-108938479D01*
X139291423Y-108884765D01*
X139415427Y-108771722D01*
X139546712Y-108597872D01*
X139643817Y-108402859D01*
X139703435Y-108193323D01*
X139723536Y-107976400D01*
X139703435Y-107759477D01*
X139643817Y-107549941D01*
X139546712Y-107354928D01*
X139415427Y-107181078D01*
X139291423Y-107068034D01*
X139255145Y-107008327D01*
X139256905Y-106938479D01*
X139291423Y-106884765D01*
X139415427Y-106771722D01*
X139546712Y-106597872D01*
X139643817Y-106402859D01*
X139703435Y-106193323D01*
X139723536Y-105976400D01*
X139703435Y-105759477D01*
X139643817Y-105549941D01*
X139546712Y-105354928D01*
X139415427Y-105181078D01*
X139291423Y-105068034D01*
X139255145Y-105008327D01*
X139256905Y-104938479D01*
X139291423Y-104884765D01*
X139415427Y-104771722D01*
X139546712Y-104597872D01*
X139643817Y-104402859D01*
X139703435Y-104193323D01*
X139723536Y-103976400D01*
X139703435Y-103759477D01*
X139643817Y-103549941D01*
X139546712Y-103354928D01*
X139415427Y-103181078D01*
X139291423Y-103068034D01*
X139255145Y-103008327D01*
X139256905Y-102938479D01*
X139291423Y-102884765D01*
X139415427Y-102771722D01*
X139546712Y-102597872D01*
X139643817Y-102402859D01*
X139703435Y-102193323D01*
X139723536Y-101976400D01*
X139703435Y-101759477D01*
X139643817Y-101549941D01*
X139546712Y-101354928D01*
X139415427Y-101181078D01*
X139291423Y-101068034D01*
X139255145Y-101008327D01*
X139256905Y-100938479D01*
X139291423Y-100884765D01*
X139415427Y-100771722D01*
X139546712Y-100597872D01*
X139643817Y-100402859D01*
X139703435Y-100193323D01*
X139723536Y-99976400D01*
X139703435Y-99759477D01*
X139643817Y-99549941D01*
X139546712Y-99354928D01*
X139415427Y-99181078D01*
X139291423Y-99068034D01*
X139255145Y-99008327D01*
X139256905Y-98938479D01*
X139291423Y-98884765D01*
X139415427Y-98771722D01*
X139546712Y-98597872D01*
X139643817Y-98402859D01*
X139703435Y-98193323D01*
X139723536Y-97976400D01*
X139703435Y-97759477D01*
X139643817Y-97549941D01*
X139546712Y-97354928D01*
X139415427Y-97181078D01*
X139291423Y-97068034D01*
X139255145Y-97008327D01*
X139256905Y-96938479D01*
X139291423Y-96884765D01*
X139415427Y-96771722D01*
X139546712Y-96597872D01*
X139643817Y-96402859D01*
X139703435Y-96193323D01*
X139723536Y-95976400D01*
X139703435Y-95759477D01*
X139643817Y-95549941D01*
X139546712Y-95354928D01*
X139415427Y-95181078D01*
X139291423Y-95068034D01*
X139255145Y-95008327D01*
X139256905Y-94938479D01*
X139291423Y-94884765D01*
X139415427Y-94771722D01*
X139546712Y-94597872D01*
X139643817Y-94402859D01*
X139703435Y-94193323D01*
X139723536Y-93976400D01*
X139703435Y-93759477D01*
X139643817Y-93549941D01*
X139546712Y-93354928D01*
X139415427Y-93181078D01*
X139291423Y-93068034D01*
X139255145Y-93008327D01*
X139256905Y-92938479D01*
X139291423Y-92884765D01*
X139415427Y-92771722D01*
X139546712Y-92597872D01*
X139643817Y-92402859D01*
X139703435Y-92193323D01*
X139723536Y-91976400D01*
X139703435Y-91759477D01*
X139643817Y-91549941D01*
X139546712Y-91354928D01*
X139415427Y-91181078D01*
X139291423Y-91068034D01*
X139255145Y-91008327D01*
X139256905Y-90938479D01*
X139291423Y-90884765D01*
X139415427Y-90771722D01*
X139546712Y-90597872D01*
X139643817Y-90402859D01*
X139703435Y-90193323D01*
X139723536Y-89976400D01*
X139703435Y-89759477D01*
X139643817Y-89549941D01*
X139546712Y-89354928D01*
X139415427Y-89181078D01*
X139291423Y-89068034D01*
X139255145Y-89008327D01*
X139256905Y-88938479D01*
X139291423Y-88884765D01*
X139415427Y-88771722D01*
X139546712Y-88597872D01*
X139643817Y-88402859D01*
X139703435Y-88193323D01*
X139723536Y-87976400D01*
X139703435Y-87759477D01*
X139643817Y-87549941D01*
X139546712Y-87354928D01*
X139465250Y-87247054D01*
X139440560Y-87181697D01*
X139455125Y-87113362D01*
X139489895Y-87073065D01*
X139537545Y-87037393D01*
X139575546Y-87008946D01*
X139661796Y-86893731D01*
X139712091Y-86758883D01*
X139718500Y-86699273D01*
X139718499Y-85253528D01*
X139712091Y-85193917D01*
X139661796Y-85059069D01*
X139661795Y-85059068D01*
X139661793Y-85059064D01*
X139575547Y-84943855D01*
X139575544Y-84943852D01*
X139460335Y-84857606D01*
X139460328Y-84857602D01*
X139325482Y-84807308D01*
X139325483Y-84807308D01*
X139265883Y-84800901D01*
X139265881Y-84800900D01*
X139265873Y-84800900D01*
X139265864Y-84800900D01*
X137820129Y-84800900D01*
X137820123Y-84800901D01*
X137760516Y-84807308D01*
X137625671Y-84857602D01*
X137625664Y-84857606D01*
X137510455Y-84943852D01*
X137510452Y-84943855D01*
X137424206Y-85059064D01*
X137424202Y-85059071D01*
X137373908Y-85193917D01*
X137367501Y-85253516D01*
X137367501Y-85253523D01*
X137367500Y-85253535D01*
X137367500Y-86699270D01*
X137367501Y-86699276D01*
X137373908Y-86758883D01*
X137424202Y-86893728D01*
X137424206Y-86893735D01*
X137493358Y-86986109D01*
X137510454Y-87008946D01*
X137596105Y-87073064D01*
X137637975Y-87128997D01*
X137642959Y-87198689D01*
X137620748Y-87247056D01*
X137539288Y-87354928D01*
X137442184Y-87549937D01*
X137382564Y-87759481D01*
X137362464Y-87976399D01*
X137362464Y-87976400D01*
X137382564Y-88193318D01*
X137442184Y-88402862D01*
X137539288Y-88597872D01*
X137670574Y-88771724D01*
X137794572Y-88884763D01*
X137830854Y-88944474D01*
X137829093Y-89014322D01*
X137794572Y-89068037D01*
X137670574Y-89181075D01*
X137539288Y-89354927D01*
X137442184Y-89549937D01*
X137442183Y-89549941D01*
X137391977Y-89726399D01*
X137382564Y-89759481D01*
X137362464Y-89976399D01*
X137362464Y-89976400D01*
X137382564Y-90193318D01*
X137382564Y-90193320D01*
X137382565Y-90193323D01*
X137414067Y-90304041D01*
X137442184Y-90402862D01*
X137539288Y-90597872D01*
X137670574Y-90771724D01*
X137794572Y-90884763D01*
X137830854Y-90944474D01*
X137829093Y-91014322D01*
X137794572Y-91068037D01*
X137670574Y-91181075D01*
X137539288Y-91354927D01*
X137442184Y-91549937D01*
X137382564Y-91759481D01*
X137362464Y-91976399D01*
X137362464Y-91976400D01*
X137382564Y-92193318D01*
X137382564Y-92193320D01*
X137382565Y-92193323D01*
X137423560Y-92337406D01*
X137442184Y-92402862D01*
X137539288Y-92597872D01*
X137670574Y-92771724D01*
X137794572Y-92884763D01*
X137830854Y-92944474D01*
X137829093Y-93014322D01*
X137794572Y-93068037D01*
X137670574Y-93181075D01*
X137539288Y-93354927D01*
X137442184Y-93549937D01*
X137382564Y-93759481D01*
X137362464Y-93976399D01*
X137362464Y-93976400D01*
X137382564Y-94193318D01*
X137382564Y-94193320D01*
X137382565Y-94193323D01*
X137432390Y-94368441D01*
X137442184Y-94402862D01*
X137539288Y-94597872D01*
X137670574Y-94771724D01*
X137794572Y-94884763D01*
X137830854Y-94944474D01*
X137829093Y-95014322D01*
X137794572Y-95068037D01*
X137670574Y-95181075D01*
X137539288Y-95354927D01*
X137442184Y-95549937D01*
X137382564Y-95759481D01*
X137362464Y-95976399D01*
X137362464Y-95976400D01*
X137382564Y-96193318D01*
X137442184Y-96402862D01*
X137539288Y-96597872D01*
X137670574Y-96771724D01*
X137794572Y-96884763D01*
X137830854Y-96944474D01*
X137829093Y-97014322D01*
X137794572Y-97068037D01*
X137670574Y-97181075D01*
X137539288Y-97354927D01*
X137442184Y-97549937D01*
X137382564Y-97759481D01*
X137362464Y-97976399D01*
X137362464Y-97976400D01*
X137382564Y-98193318D01*
X137382564Y-98193320D01*
X137382565Y-98193323D01*
X137435276Y-98378582D01*
X137442184Y-98402862D01*
X137539288Y-98597872D01*
X137670574Y-98771724D01*
X137794572Y-98884763D01*
X137830854Y-98944474D01*
X137829093Y-99014322D01*
X137794572Y-99068037D01*
X137670574Y-99181075D01*
X137539288Y-99354927D01*
X137442184Y-99549937D01*
X137382564Y-99759481D01*
X137362464Y-99976399D01*
X137362464Y-99976400D01*
X137382564Y-100193318D01*
X137382564Y-100193320D01*
X137382565Y-100193323D01*
X137399538Y-100252976D01*
X137442184Y-100402862D01*
X137539288Y-100597872D01*
X137670574Y-100771724D01*
X137794572Y-100884763D01*
X137830854Y-100944474D01*
X137829093Y-101014322D01*
X137794572Y-101068037D01*
X137670579Y-101181071D01*
X137670571Y-101181080D01*
X137579540Y-101301626D01*
X137523432Y-101343263D01*
X137480586Y-101350900D01*
X135899852Y-101350900D01*
X135832813Y-101331215D01*
X135812171Y-101314581D01*
X134112419Y-99614828D01*
X134078934Y-99553505D01*
X134076100Y-99527147D01*
X134076100Y-84806452D01*
X134095785Y-84739413D01*
X134112419Y-84718771D01*
X137516764Y-81314426D01*
X140926788Y-77904401D01*
X140939042Y-77894586D01*
X140938859Y-77894364D01*
X140944868Y-77889391D01*
X140944877Y-77889386D01*
X140990949Y-77840322D01*
X140993566Y-77837623D01*
X141013120Y-77818071D01*
X141015576Y-77814903D01*
X141023156Y-77806027D01*
X141053062Y-77774182D01*
X141062713Y-77756624D01*
X141073396Y-77740361D01*
X141085673Y-77724536D01*
X141103021Y-77684444D01*
X141108151Y-77673971D01*
X141129197Y-77635692D01*
X141134180Y-77616280D01*
X141140481Y-77597880D01*
X141148437Y-77579496D01*
X141155270Y-77536348D01*
X141157633Y-77524938D01*
X141168500Y-77482619D01*
X141168500Y-77462583D01*
X141170027Y-77443182D01*
X141173160Y-77423404D01*
X141169050Y-77379924D01*
X141168500Y-77368255D01*
X141168500Y-75040761D01*
X141188185Y-74973722D01*
X141227223Y-74935334D01*
X141254432Y-74918488D01*
X141415427Y-74771722D01*
X141546712Y-74597872D01*
X141643817Y-74402859D01*
X141703435Y-74193323D01*
X141723536Y-73976400D01*
X141703435Y-73759477D01*
X141643817Y-73549941D01*
X141546712Y-73354928D01*
X141415427Y-73181078D01*
X141415420Y-73181072D01*
X141281584Y-73059064D01*
X141254432Y-73034312D01*
X141254428Y-73034309D01*
X141254423Y-73034306D01*
X141069213Y-72919629D01*
X141069207Y-72919626D01*
X140962825Y-72878414D01*
X140866069Y-72840930D01*
X140651926Y-72800900D01*
X140434074Y-72800900D01*
X140219931Y-72840930D01*
X140176891Y-72857604D01*
X140016792Y-72919626D01*
X140016786Y-72919629D01*
X139831576Y-73034306D01*
X139831566Y-73034313D01*
X139670574Y-73181076D01*
X139641640Y-73219391D01*
X139585530Y-73261027D01*
X139515818Y-73265718D01*
X139454637Y-73231976D01*
X139443731Y-73219390D01*
X139415051Y-73181411D01*
X139415050Y-73181410D01*
X139254131Y-73034714D01*
X139068987Y-72920077D01*
X139068985Y-72920076D01*
X138865931Y-72841413D01*
X138865921Y-72841410D01*
X138793001Y-72827778D01*
X138793000Y-72827779D01*
X138793000Y-73660714D01*
X138781045Y-73648759D01*
X138668148Y-73591235D01*
X138574481Y-73576400D01*
X138511519Y-73576400D01*
X138417852Y-73591235D01*
X138304955Y-73648759D01*
X138293000Y-73660714D01*
X138293000Y-72827779D01*
X138292998Y-72827778D01*
X138220078Y-72841410D01*
X138220068Y-72841413D01*
X138017014Y-72920076D01*
X138017012Y-72920077D01*
X137831869Y-73034714D01*
X137831868Y-73034714D01*
X137820887Y-73044725D01*
X137758082Y-73075340D01*
X137688695Y-73067140D01*
X137638086Y-73027397D01*
X137575546Y-72943854D01*
X137543182Y-72919626D01*
X137460335Y-72857606D01*
X137460328Y-72857602D01*
X137325482Y-72807308D01*
X137325484Y-72807308D01*
X137280321Y-72802453D01*
X137215770Y-72775715D01*
X137175922Y-72718322D01*
X137170128Y-72667483D01*
X137170669Y-72661746D01*
X137170673Y-72661733D01*
X137168561Y-72594512D01*
X137168500Y-72590618D01*
X137168500Y-72563056D01*
X137168500Y-72563050D01*
X137167996Y-72559068D01*
X137167081Y-72547429D01*
X137165710Y-72503773D01*
X137160119Y-72484530D01*
X137156173Y-72465478D01*
X137153664Y-72445608D01*
X137137579Y-72404983D01*
X137133806Y-72393962D01*
X137121618Y-72352010D01*
X137121617Y-72352009D01*
X137121617Y-72352007D01*
X137121616Y-72352006D01*
X137111423Y-72334771D01*
X137102861Y-72317294D01*
X137095487Y-72298669D01*
X137080393Y-72277894D01*
X137069811Y-72263330D01*
X137063405Y-72253577D01*
X137041170Y-72215980D01*
X137041168Y-72215978D01*
X137041165Y-72215974D01*
X137027006Y-72201815D01*
X137014368Y-72187019D01*
X137006786Y-72176583D01*
X137002594Y-72170813D01*
X137001149Y-72169618D01*
X136968940Y-72142972D01*
X136960299Y-72135109D01*
X136387004Y-71561814D01*
X135896068Y-71070877D01*
X135862585Y-71009557D01*
X135867569Y-70939865D01*
X135896068Y-70895520D01*
X140632972Y-66158619D01*
X140694295Y-66125134D01*
X140720653Y-66122300D01*
X154552348Y-66122300D01*
X154619387Y-66141985D01*
G37*
%TD.AperFunction*%
%TA.AperFunction,Conductor*%
G36*
X104657587Y-71628385D02*
G01*
X104678229Y-71645019D01*
X105682350Y-72649140D01*
X105715835Y-72710463D01*
X105710851Y-72780155D01*
X105668979Y-72836088D01*
X105638005Y-72853002D01*
X105625672Y-72857602D01*
X105625664Y-72857606D01*
X105510455Y-72943852D01*
X105510452Y-72943855D01*
X105424206Y-73059064D01*
X105424202Y-73059071D01*
X105373908Y-73193917D01*
X105367501Y-73253516D01*
X105367500Y-73253535D01*
X105367500Y-74699270D01*
X105367501Y-74699276D01*
X105373908Y-74758883D01*
X105424202Y-74893728D01*
X105424206Y-74893735D01*
X105510452Y-75008944D01*
X105510455Y-75008947D01*
X105625664Y-75095193D01*
X105625671Y-75095197D01*
X105760517Y-75145491D01*
X105760516Y-75145491D01*
X105767444Y-75146235D01*
X105820127Y-75151900D01*
X107265872Y-75151899D01*
X107325483Y-75145491D01*
X107460331Y-75095196D01*
X107575546Y-75008946D01*
X107609931Y-74963014D01*
X107638087Y-74925403D01*
X107694020Y-74883532D01*
X107763712Y-74878548D01*
X107820891Y-74908077D01*
X107831869Y-74918085D01*
X107831874Y-74918089D01*
X108017012Y-75032722D01*
X108017023Y-75032727D01*
X108220060Y-75111384D01*
X108293000Y-75125019D01*
X108293000Y-74292086D01*
X108304955Y-74304041D01*
X108417852Y-74361565D01*
X108511519Y-74376400D01*
X108574481Y-74376400D01*
X108668148Y-74361565D01*
X108781045Y-74304041D01*
X108793000Y-74292086D01*
X108793000Y-75125019D01*
X108865939Y-75111384D01*
X109068976Y-75032727D01*
X109068987Y-75032722D01*
X109254130Y-74918085D01*
X109254131Y-74918085D01*
X109415055Y-74771384D01*
X109443730Y-74733412D01*
X109499838Y-74691774D01*
X109569550Y-74687081D01*
X109630733Y-74720822D01*
X109641640Y-74733409D01*
X109660512Y-74758400D01*
X109670573Y-74771722D01*
X109831568Y-74918488D01*
X109858776Y-74935334D01*
X109905412Y-74987360D01*
X109917500Y-75040761D01*
X109917500Y-77710855D01*
X109915775Y-77726472D01*
X109916061Y-77726499D01*
X109915326Y-77734265D01*
X109917439Y-77801472D01*
X109917500Y-77805367D01*
X109917500Y-77832957D01*
X109918003Y-77836935D01*
X109918918Y-77848567D01*
X109920290Y-77892226D01*
X109925879Y-77911462D01*
X109929824Y-77930514D01*
X109932334Y-77950389D01*
X109934275Y-77957944D01*
X109933135Y-77958236D01*
X109939700Y-77992645D01*
X109939700Y-82406655D01*
X109937975Y-82422272D01*
X109938261Y-82422299D01*
X109937526Y-82430065D01*
X109939639Y-82497272D01*
X109939700Y-82501167D01*
X109939700Y-82528757D01*
X109940203Y-82532735D01*
X109941118Y-82544367D01*
X109942490Y-82588024D01*
X109942491Y-82588027D01*
X109948080Y-82607267D01*
X109952024Y-82626311D01*
X109954536Y-82646192D01*
X109970614Y-82686803D01*
X109974397Y-82697852D01*
X109986581Y-82739788D01*
X109996780Y-82757034D01*
X110005338Y-82774503D01*
X110012714Y-82793132D01*
X110038381Y-82828460D01*
X110044793Y-82838221D01*
X110067028Y-82875817D01*
X110067033Y-82875824D01*
X110081190Y-82889980D01*
X110093828Y-82904776D01*
X110105605Y-82920986D01*
X110105606Y-82920987D01*
X110139257Y-82948825D01*
X110147898Y-82956688D01*
X133551397Y-106360188D01*
X133561222Y-106372451D01*
X133561443Y-106372269D01*
X133566411Y-106378274D01*
X133566413Y-106378276D01*
X133566414Y-106378277D01*
X133582836Y-106393698D01*
X133615422Y-106424299D01*
X133618221Y-106427012D01*
X133637722Y-106446514D01*
X133637726Y-106446517D01*
X133637729Y-106446520D01*
X133640902Y-106448981D01*
X133649774Y-106456559D01*
X133681618Y-106486462D01*
X133699176Y-106496114D01*
X133715433Y-106506793D01*
X133731264Y-106519073D01*
X133761003Y-106531942D01*
X133771352Y-106536421D01*
X133781841Y-106541560D01*
X133805657Y-106554652D01*
X133820108Y-106562597D01*
X133832723Y-106565835D01*
X133839505Y-106567577D01*
X133857919Y-106573881D01*
X133876304Y-106581838D01*
X133919461Y-106588673D01*
X133930856Y-106591032D01*
X133973181Y-106601900D01*
X133993216Y-106601900D01*
X134012613Y-106603426D01*
X134032396Y-106606560D01*
X134075875Y-106602450D01*
X134087544Y-106601900D01*
X137480586Y-106601900D01*
X137547625Y-106621585D01*
X137579539Y-106651173D01*
X137670573Y-106771722D01*
X137670575Y-106771724D01*
X137670579Y-106771728D01*
X137794572Y-106884763D01*
X137830854Y-106944474D01*
X137829093Y-107014322D01*
X137794572Y-107068037D01*
X137670579Y-107181071D01*
X137670571Y-107181080D01*
X137579540Y-107301626D01*
X137523432Y-107343263D01*
X137480586Y-107350900D01*
X133390853Y-107350900D01*
X133323814Y-107331215D01*
X133303172Y-107314581D01*
X99581203Y-73592612D01*
X99571380Y-73580350D01*
X99571159Y-73580534D01*
X99566186Y-73574522D01*
X99517176Y-73528499D01*
X99514377Y-73525786D01*
X99494877Y-73506285D01*
X99494871Y-73506280D01*
X99491686Y-73503809D01*
X99482834Y-73496248D01*
X99450982Y-73466338D01*
X99450980Y-73466336D01*
X99450977Y-73466335D01*
X99433429Y-73456688D01*
X99417163Y-73446004D01*
X99401332Y-73433724D01*
X99361249Y-73416378D01*
X99350763Y-73411241D01*
X99312494Y-73390203D01*
X99312492Y-73390202D01*
X99293093Y-73385222D01*
X99274681Y-73378918D01*
X99256298Y-73370962D01*
X99256292Y-73370960D01*
X99213160Y-73364129D01*
X99201722Y-73361761D01*
X99159420Y-73350900D01*
X99159419Y-73350900D01*
X99139384Y-73350900D01*
X99119986Y-73349373D01*
X99112562Y-73348197D01*
X99100205Y-73346240D01*
X99100204Y-73346240D01*
X99056725Y-73350350D01*
X99045056Y-73350900D01*
X96605414Y-73350900D01*
X96538375Y-73331215D01*
X96506460Y-73301626D01*
X96475801Y-73261027D01*
X96415427Y-73181078D01*
X96415423Y-73181074D01*
X96415421Y-73181072D01*
X96277431Y-73055278D01*
X96254432Y-73034312D01*
X96254428Y-73034309D01*
X96254423Y-73034306D01*
X96069213Y-72919629D01*
X96069207Y-72919626D01*
X95962825Y-72878414D01*
X95866069Y-72840930D01*
X95651926Y-72800900D01*
X95434074Y-72800900D01*
X95219931Y-72840930D01*
X95176891Y-72857604D01*
X95016792Y-72919626D01*
X95016786Y-72919629D01*
X94831576Y-73034306D01*
X94831566Y-73034313D01*
X94670574Y-73181076D01*
X94641640Y-73219391D01*
X94585530Y-73261027D01*
X94515818Y-73265718D01*
X94454637Y-73231976D01*
X94443731Y-73219390D01*
X94415051Y-73181411D01*
X94415050Y-73181410D01*
X94254131Y-73034714D01*
X94068987Y-72920077D01*
X94068985Y-72920076D01*
X93865931Y-72841413D01*
X93865921Y-72841410D01*
X93793001Y-72827778D01*
X93793000Y-72827779D01*
X93793000Y-73660714D01*
X93781045Y-73648759D01*
X93668148Y-73591235D01*
X93574481Y-73576400D01*
X93511519Y-73576400D01*
X93417852Y-73591235D01*
X93304955Y-73648759D01*
X93293000Y-73660714D01*
X93293000Y-72827779D01*
X93292998Y-72827778D01*
X93220078Y-72841410D01*
X93220068Y-72841413D01*
X93017014Y-72920076D01*
X93017012Y-72920077D01*
X92831869Y-73034714D01*
X92831868Y-73034714D01*
X92820887Y-73044725D01*
X92758082Y-73075340D01*
X92688695Y-73067140D01*
X92638086Y-73027397D01*
X92575546Y-72943854D01*
X92543182Y-72919626D01*
X92460335Y-72857606D01*
X92460328Y-72857602D01*
X92325483Y-72807308D01*
X92279243Y-72802337D01*
X92214693Y-72775599D01*
X92174845Y-72718206D01*
X92168500Y-72679048D01*
X92168500Y-72358052D01*
X92188185Y-72291013D01*
X92204819Y-72270371D01*
X92830172Y-71645019D01*
X92891495Y-71611534D01*
X92917853Y-71608700D01*
X104590548Y-71608700D01*
X104657587Y-71628385D01*
G37*
%TD.AperFunction*%
%TA.AperFunction,Conductor*%
G36*
X198793000Y-70125019D02*
G01*
X198865939Y-70111384D01*
X199068976Y-70032727D01*
X199068987Y-70032722D01*
X199254127Y-69918087D01*
X199265106Y-69908079D01*
X199327909Y-69877460D01*
X199397297Y-69885656D01*
X199447913Y-69925403D01*
X199510452Y-70008944D01*
X199510455Y-70008947D01*
X199625664Y-70095193D01*
X199625671Y-70095197D01*
X199760516Y-70145491D01*
X199806757Y-70150463D01*
X199871307Y-70177201D01*
X199911155Y-70234594D01*
X199917500Y-70273752D01*
X199917500Y-72134946D01*
X199897815Y-72201985D01*
X199881181Y-72222627D01*
X177059608Y-95044199D01*
X177047351Y-95054020D01*
X177047534Y-95054241D01*
X177041522Y-95059214D01*
X176995498Y-95108223D01*
X176992791Y-95111016D01*
X176973289Y-95130517D01*
X176973275Y-95130534D01*
X176970807Y-95133715D01*
X176963243Y-95142570D01*
X176933337Y-95174418D01*
X176933336Y-95174420D01*
X176923684Y-95191976D01*
X176913010Y-95208226D01*
X176900729Y-95224061D01*
X176900724Y-95224068D01*
X176883375Y-95264158D01*
X176878238Y-95274644D01*
X176857203Y-95312906D01*
X176852222Y-95332307D01*
X176845921Y-95350710D01*
X176837962Y-95369102D01*
X176837961Y-95369105D01*
X176831128Y-95412243D01*
X176828760Y-95423674D01*
X176817901Y-95465971D01*
X176817900Y-95465982D01*
X176817900Y-95486016D01*
X176816373Y-95505415D01*
X176813240Y-95525194D01*
X176813240Y-95525195D01*
X176817350Y-95568674D01*
X176817900Y-95580343D01*
X176817900Y-102706848D01*
X176798215Y-102773887D01*
X176745411Y-102819642D01*
X176707155Y-102830138D01*
X176660916Y-102835109D01*
X176526071Y-102885402D01*
X176526064Y-102885406D01*
X176410855Y-102971652D01*
X176410852Y-102971655D01*
X176324606Y-103086864D01*
X176324602Y-103086871D01*
X176274308Y-103221717D01*
X176267901Y-103281316D01*
X176267901Y-103281323D01*
X176267900Y-103281335D01*
X176267900Y-104727070D01*
X176267901Y-104727076D01*
X176274308Y-104786683D01*
X176324602Y-104921528D01*
X176324606Y-104921535D01*
X176410852Y-105036744D01*
X176410855Y-105036747D01*
X176496904Y-105101164D01*
X176538775Y-105157098D01*
X176543759Y-105226789D01*
X176521548Y-105275156D01*
X176440114Y-105382992D01*
X176343051Y-105577919D01*
X176292894Y-105754199D01*
X176292895Y-105754200D01*
X177127714Y-105754200D01*
X177115759Y-105766155D01*
X177058235Y-105879052D01*
X177038414Y-106004200D01*
X177058235Y-106129348D01*
X177115759Y-106242245D01*
X177127714Y-106254200D01*
X176292895Y-106254200D01*
X176343051Y-106430480D01*
X176440115Y-106625408D01*
X176571343Y-106799182D01*
X176695344Y-106912223D01*
X176731625Y-106971934D01*
X176729865Y-107041782D01*
X176695344Y-107095498D01*
X176570974Y-107208875D01*
X176500932Y-107301627D01*
X176444823Y-107343263D01*
X176401978Y-107350900D01*
X154605414Y-107350900D01*
X154538375Y-107331215D01*
X154506460Y-107301626D01*
X154436418Y-107208875D01*
X154415427Y-107181078D01*
X154291423Y-107068034D01*
X154255145Y-107008327D01*
X154256905Y-106938479D01*
X154291423Y-106884765D01*
X154415427Y-106771722D01*
X154506460Y-106651173D01*
X154562568Y-106609537D01*
X154605414Y-106601900D01*
X161874657Y-106601900D01*
X161890277Y-106603624D01*
X161890304Y-106603339D01*
X161898060Y-106604071D01*
X161898067Y-106604073D01*
X161965273Y-106601961D01*
X161969168Y-106601900D01*
X161996746Y-106601900D01*
X161996750Y-106601900D01*
X162000724Y-106601397D01*
X162012363Y-106600480D01*
X162056027Y-106599109D01*
X162075269Y-106593517D01*
X162094312Y-106589574D01*
X162114192Y-106587064D01*
X162154801Y-106570985D01*
X162165844Y-106567203D01*
X162207790Y-106555018D01*
X162225029Y-106544822D01*
X162242503Y-106536262D01*
X162261127Y-106528888D01*
X162261127Y-106528887D01*
X162261132Y-106528886D01*
X162296483Y-106503200D01*
X162306214Y-106496808D01*
X162343820Y-106474570D01*
X162357989Y-106460399D01*
X162372779Y-106447768D01*
X162388987Y-106435994D01*
X162416838Y-106402326D01*
X162424679Y-106393709D01*
X196926786Y-71891602D01*
X196939048Y-71881780D01*
X196938865Y-71881559D01*
X196944868Y-71876591D01*
X196944877Y-71876586D01*
X196990934Y-71827539D01*
X196993582Y-71824806D01*
X197013120Y-71805270D01*
X197015570Y-71802110D01*
X197023154Y-71793229D01*
X197053062Y-71761382D01*
X197062714Y-71743823D01*
X197073389Y-71727572D01*
X197085674Y-71711736D01*
X197103030Y-71671625D01*
X197108161Y-71661154D01*
X197129194Y-71622898D01*
X197129194Y-71622897D01*
X197129197Y-71622892D01*
X197134180Y-71603480D01*
X197140477Y-71585091D01*
X197148438Y-71566695D01*
X197155270Y-71523548D01*
X197157639Y-71512116D01*
X197168499Y-71469822D01*
X197168500Y-71469817D01*
X197168500Y-71449783D01*
X197170027Y-71430382D01*
X197173160Y-71410604D01*
X197169050Y-71367124D01*
X197168500Y-71355455D01*
X197168500Y-70040761D01*
X197188185Y-69973722D01*
X197227223Y-69935334D01*
X197254432Y-69918488D01*
X197415427Y-69771722D01*
X197444359Y-69733409D01*
X197500465Y-69691773D01*
X197570177Y-69687080D01*
X197631360Y-69720821D01*
X197642267Y-69733409D01*
X197670942Y-69771381D01*
X197670949Y-69771389D01*
X197831868Y-69918085D01*
X198017012Y-70032722D01*
X198017023Y-70032727D01*
X198220060Y-70111384D01*
X198293000Y-70125019D01*
X198293000Y-69292086D01*
X198304955Y-69304041D01*
X198417852Y-69361565D01*
X198511519Y-69376400D01*
X198574481Y-69376400D01*
X198668148Y-69361565D01*
X198781045Y-69304041D01*
X198793000Y-69292086D01*
X198793000Y-70125019D01*
G37*
%TD.AperFunction*%
%TA.AperFunction,Conductor*%
G36*
X119719787Y-71628385D02*
G01*
X119740429Y-71645019D01*
X120727653Y-72632243D01*
X120761138Y-72693566D01*
X120756154Y-72763258D01*
X120714282Y-72819191D01*
X120683306Y-72836106D01*
X120625670Y-72857603D01*
X120625664Y-72857606D01*
X120510455Y-72943852D01*
X120510452Y-72943855D01*
X120424206Y-73059064D01*
X120424202Y-73059071D01*
X120373908Y-73193917D01*
X120367501Y-73253516D01*
X120367500Y-73253535D01*
X120367500Y-74699270D01*
X120367501Y-74699276D01*
X120373908Y-74758883D01*
X120424202Y-74893728D01*
X120424206Y-74893735D01*
X120510452Y-75008944D01*
X120510455Y-75008947D01*
X120625664Y-75095193D01*
X120625671Y-75095197D01*
X120760517Y-75145491D01*
X120760516Y-75145491D01*
X120767444Y-75146235D01*
X120820127Y-75151900D01*
X122265872Y-75151899D01*
X122325483Y-75145491D01*
X122460331Y-75095196D01*
X122575546Y-75008946D01*
X122609931Y-74963014D01*
X122638087Y-74925403D01*
X122694020Y-74883532D01*
X122763712Y-74878548D01*
X122820891Y-74908077D01*
X122831869Y-74918085D01*
X122831874Y-74918089D01*
X123017012Y-75032722D01*
X123017023Y-75032727D01*
X123220060Y-75111384D01*
X123293000Y-75125019D01*
X123293000Y-74292086D01*
X123304955Y-74304041D01*
X123417852Y-74361565D01*
X123511519Y-74376400D01*
X123574481Y-74376400D01*
X123668148Y-74361565D01*
X123781045Y-74304041D01*
X123793000Y-74292086D01*
X123793000Y-75125019D01*
X123865939Y-75111384D01*
X124068976Y-75032727D01*
X124068987Y-75032722D01*
X124254130Y-74918085D01*
X124254131Y-74918085D01*
X124415055Y-74771384D01*
X124443730Y-74733412D01*
X124499838Y-74691774D01*
X124569550Y-74687081D01*
X124630733Y-74720822D01*
X124641640Y-74733409D01*
X124660512Y-74758400D01*
X124670573Y-74771722D01*
X124831568Y-74918488D01*
X124858776Y-74935334D01*
X124905412Y-74987360D01*
X124917500Y-75040761D01*
X124917500Y-94641255D01*
X124915775Y-94656872D01*
X124916061Y-94656899D01*
X124915326Y-94664665D01*
X124917439Y-94731872D01*
X124917500Y-94735767D01*
X124917500Y-94763357D01*
X124918003Y-94767335D01*
X124918918Y-94778967D01*
X124920290Y-94822624D01*
X124920291Y-94822627D01*
X124925880Y-94841867D01*
X124929824Y-94860911D01*
X124932336Y-94880792D01*
X124948414Y-94921403D01*
X124952197Y-94932452D01*
X124964381Y-94974388D01*
X124974580Y-94991634D01*
X124983138Y-95009103D01*
X124990514Y-95027732D01*
X125016181Y-95063060D01*
X125022593Y-95072821D01*
X125044828Y-95110417D01*
X125044833Y-95110424D01*
X125058990Y-95124580D01*
X125071627Y-95139375D01*
X125083406Y-95155587D01*
X125106171Y-95174420D01*
X125117057Y-95183425D01*
X125125698Y-95191288D01*
X134294594Y-104360184D01*
X134304419Y-104372448D01*
X134304640Y-104372266D01*
X134309610Y-104378274D01*
X134358639Y-104424315D01*
X134361436Y-104427026D01*
X134380930Y-104446520D01*
X134384095Y-104448975D01*
X134392971Y-104456556D01*
X134424818Y-104486462D01*
X134424822Y-104486464D01*
X134442373Y-104496113D01*
X134458631Y-104506792D01*
X134474464Y-104519074D01*
X134509810Y-104534368D01*
X134514555Y-104536422D01*
X134525035Y-104541555D01*
X134563308Y-104562597D01*
X134582712Y-104567579D01*
X134601110Y-104573878D01*
X134619505Y-104581838D01*
X134662654Y-104588671D01*
X134674080Y-104591038D01*
X134716381Y-104601900D01*
X134736416Y-104601900D01*
X134755813Y-104603426D01*
X134775596Y-104606560D01*
X134819075Y-104602450D01*
X134830744Y-104601900D01*
X137480586Y-104601900D01*
X137547625Y-104621585D01*
X137579539Y-104651173D01*
X137670573Y-104771722D01*
X137670575Y-104771724D01*
X137670579Y-104771728D01*
X137794572Y-104884763D01*
X137830854Y-104944474D01*
X137829093Y-105014322D01*
X137794572Y-105068037D01*
X137670579Y-105181071D01*
X137670571Y-105181080D01*
X137579540Y-105301626D01*
X137523432Y-105343263D01*
X137480586Y-105350900D01*
X134362652Y-105350900D01*
X134295613Y-105331215D01*
X134274971Y-105314581D01*
X111227019Y-82266628D01*
X111193534Y-82205305D01*
X111190700Y-82178947D01*
X111190700Y-77898542D01*
X111192424Y-77882922D01*
X111192139Y-77882895D01*
X111192873Y-77875133D01*
X111190761Y-77807912D01*
X111190700Y-77804018D01*
X111190700Y-77776456D01*
X111190700Y-77776450D01*
X111190196Y-77772468D01*
X111189281Y-77760829D01*
X111189149Y-77756630D01*
X111187910Y-77717173D01*
X111182319Y-77697930D01*
X111178373Y-77678878D01*
X111175864Y-77659008D01*
X111175862Y-77659004D01*
X111173924Y-77651453D01*
X111175063Y-77651160D01*
X111168500Y-77616754D01*
X111168500Y-75040761D01*
X111188185Y-74973722D01*
X111227223Y-74935334D01*
X111254432Y-74918488D01*
X111415427Y-74771722D01*
X111546712Y-74597872D01*
X111643817Y-74402859D01*
X111703435Y-74193323D01*
X111723536Y-73976400D01*
X111703435Y-73759477D01*
X111643817Y-73549941D01*
X111546712Y-73354928D01*
X111415427Y-73181078D01*
X111415420Y-73181072D01*
X111281584Y-73059064D01*
X111254432Y-73034312D01*
X111254428Y-73034309D01*
X111254423Y-73034306D01*
X111069213Y-72919629D01*
X111069207Y-72919626D01*
X110962825Y-72878414D01*
X110866069Y-72840930D01*
X110651926Y-72800900D01*
X110434074Y-72800900D01*
X110219931Y-72840930D01*
X110176891Y-72857604D01*
X110016792Y-72919626D01*
X110016786Y-72919629D01*
X109831576Y-73034306D01*
X109831566Y-73034313D01*
X109670574Y-73181076D01*
X109641640Y-73219391D01*
X109585530Y-73261027D01*
X109515818Y-73265718D01*
X109454637Y-73231976D01*
X109443731Y-73219390D01*
X109415051Y-73181411D01*
X109415050Y-73181410D01*
X109254131Y-73034714D01*
X109068987Y-72920077D01*
X109068985Y-72920076D01*
X108865931Y-72841413D01*
X108865921Y-72841410D01*
X108793001Y-72827778D01*
X108793000Y-72827779D01*
X108793000Y-73660714D01*
X108781045Y-73648759D01*
X108668148Y-73591235D01*
X108574481Y-73576400D01*
X108511519Y-73576400D01*
X108417852Y-73591235D01*
X108304955Y-73648759D01*
X108293000Y-73660714D01*
X108293000Y-72827779D01*
X108292998Y-72827778D01*
X108220078Y-72841410D01*
X108220068Y-72841413D01*
X108017014Y-72920076D01*
X108017012Y-72920077D01*
X107831869Y-73034714D01*
X107831868Y-73034714D01*
X107820887Y-73044725D01*
X107758082Y-73075340D01*
X107688695Y-73067140D01*
X107638086Y-73027397D01*
X107575546Y-72943854D01*
X107543182Y-72919626D01*
X107460335Y-72857606D01*
X107460328Y-72857602D01*
X107325482Y-72807308D01*
X107325483Y-72807308D01*
X107281314Y-72802560D01*
X107216763Y-72775822D01*
X107176915Y-72718430D01*
X107170630Y-72683165D01*
X107168561Y-72617312D01*
X107168500Y-72613418D01*
X107168500Y-72585856D01*
X107168500Y-72585850D01*
X107167996Y-72581868D01*
X107167081Y-72570229D01*
X107166856Y-72563056D01*
X107165710Y-72526573D01*
X107160119Y-72507330D01*
X107156173Y-72488278D01*
X107153664Y-72468408D01*
X107137579Y-72427783D01*
X107133806Y-72416762D01*
X107121618Y-72374810D01*
X107121617Y-72374809D01*
X107121617Y-72374807D01*
X107121616Y-72374806D01*
X107111423Y-72357571D01*
X107102861Y-72340094D01*
X107095487Y-72321469D01*
X107082278Y-72303289D01*
X107069811Y-72286130D01*
X107063405Y-72276377D01*
X107041170Y-72238780D01*
X107041168Y-72238778D01*
X107041165Y-72238774D01*
X107027006Y-72224615D01*
X107014368Y-72209819D01*
X107002594Y-72193613D01*
X106994623Y-72187019D01*
X106968940Y-72165772D01*
X106960299Y-72157909D01*
X106622771Y-71820381D01*
X106589286Y-71759058D01*
X106594270Y-71689366D01*
X106636142Y-71633433D01*
X106701606Y-71609016D01*
X106710452Y-71608700D01*
X119652748Y-71608700D01*
X119719787Y-71628385D01*
G37*
%TD.AperFunction*%
%TA.AperFunction,Conductor*%
G36*
X198789987Y-66141985D02*
G01*
X198810629Y-66158619D01*
X199881181Y-67229171D01*
X199914666Y-67290494D01*
X199917500Y-67316852D01*
X199917500Y-67679048D01*
X199897815Y-67746087D01*
X199845011Y-67791842D01*
X199806755Y-67802338D01*
X199760516Y-67807309D01*
X199625671Y-67857602D01*
X199625664Y-67857606D01*
X199510455Y-67943852D01*
X199510452Y-67943855D01*
X199447913Y-68027397D01*
X199391980Y-68069268D01*
X199322288Y-68074252D01*
X199265109Y-68044723D01*
X199254130Y-68034714D01*
X199254125Y-68034710D01*
X199068987Y-67920077D01*
X199068985Y-67920076D01*
X198865931Y-67841413D01*
X198865921Y-67841410D01*
X198793001Y-67827778D01*
X198793000Y-67827779D01*
X198793000Y-68660714D01*
X198781045Y-68648759D01*
X198668148Y-68591235D01*
X198574481Y-68576400D01*
X198511519Y-68576400D01*
X198417852Y-68591235D01*
X198304955Y-68648759D01*
X198293000Y-68660714D01*
X198293000Y-67827779D01*
X198292998Y-67827778D01*
X198220078Y-67841410D01*
X198220068Y-67841413D01*
X198017014Y-67920076D01*
X198017012Y-67920077D01*
X197831869Y-68034714D01*
X197831868Y-68034714D01*
X197670945Y-68181414D01*
X197642267Y-68219390D01*
X197586157Y-68261026D01*
X197516445Y-68265717D01*
X197455264Y-68231975D01*
X197444359Y-68219390D01*
X197435547Y-68207721D01*
X197415427Y-68181078D01*
X197254432Y-68034312D01*
X197254428Y-68034309D01*
X197254423Y-68034306D01*
X197069213Y-67919629D01*
X197069207Y-67919626D01*
X196984113Y-67886660D01*
X196866069Y-67840930D01*
X196651926Y-67800900D01*
X196434074Y-67800900D01*
X196219931Y-67840930D01*
X196176896Y-67857602D01*
X196016792Y-67919626D01*
X196016786Y-67919629D01*
X195831576Y-68034306D01*
X195831566Y-68034313D01*
X195670574Y-68181076D01*
X195539288Y-68354927D01*
X195442184Y-68549937D01*
X195382564Y-68759481D01*
X195362464Y-68976399D01*
X195362464Y-68976400D01*
X195382564Y-69193318D01*
X195442184Y-69402862D01*
X195539288Y-69597872D01*
X195670574Y-69771724D01*
X195804411Y-69893731D01*
X195831568Y-69918488D01*
X195858776Y-69935334D01*
X195905412Y-69987360D01*
X195917500Y-70040761D01*
X195917500Y-71080347D01*
X195897815Y-71147386D01*
X195881181Y-71168028D01*
X161734628Y-105314581D01*
X161673305Y-105348066D01*
X161646947Y-105350900D01*
X154605414Y-105350900D01*
X154538375Y-105331215D01*
X154506460Y-105301626D01*
X154437113Y-105209795D01*
X154415427Y-105181078D01*
X154291423Y-105068034D01*
X154255145Y-105008327D01*
X154256905Y-104938479D01*
X154291423Y-104884765D01*
X154415427Y-104771722D01*
X154506460Y-104651173D01*
X154562568Y-104609537D01*
X154605414Y-104601900D01*
X159759857Y-104601900D01*
X159775477Y-104603624D01*
X159775504Y-104603339D01*
X159783260Y-104604071D01*
X159783267Y-104604073D01*
X159850473Y-104601961D01*
X159854368Y-104601900D01*
X159881946Y-104601900D01*
X159881950Y-104601900D01*
X159885924Y-104601397D01*
X159897563Y-104600480D01*
X159941227Y-104599109D01*
X159960469Y-104593517D01*
X159979512Y-104589574D01*
X159999392Y-104587064D01*
X160040001Y-104570985D01*
X160051044Y-104567203D01*
X160092990Y-104555018D01*
X160110229Y-104544822D01*
X160127703Y-104536262D01*
X160146327Y-104528888D01*
X160146327Y-104528887D01*
X160146332Y-104528886D01*
X160181683Y-104503200D01*
X160191414Y-104496808D01*
X160229020Y-104474570D01*
X160243189Y-104460399D01*
X160257979Y-104447768D01*
X160274187Y-104435994D01*
X160302038Y-104402326D01*
X160309879Y-104393709D01*
X172366188Y-92337401D01*
X172378442Y-92327586D01*
X172378259Y-92327364D01*
X172384268Y-92322391D01*
X172384277Y-92322386D01*
X172430349Y-92273322D01*
X172432966Y-92270623D01*
X172452520Y-92251071D01*
X172454976Y-92247903D01*
X172462556Y-92239027D01*
X172492462Y-92207182D01*
X172502115Y-92189620D01*
X172512789Y-92173370D01*
X172525073Y-92157536D01*
X172542419Y-92117450D01*
X172547557Y-92106962D01*
X172568596Y-92068693D01*
X172568597Y-92068692D01*
X172573577Y-92049291D01*
X172579878Y-92030888D01*
X172587838Y-92012496D01*
X172594672Y-91969341D01*
X172597035Y-91957931D01*
X172607900Y-91915619D01*
X172607900Y-91895583D01*
X172609427Y-91876182D01*
X172612560Y-91856404D01*
X172608450Y-91812924D01*
X172607900Y-91801255D01*
X172607900Y-81961652D01*
X172627585Y-81894613D01*
X172644219Y-81873971D01*
X177149935Y-77368255D01*
X181926788Y-72591401D01*
X181939042Y-72581586D01*
X181938859Y-72581364D01*
X181944868Y-72576391D01*
X181944877Y-72576386D01*
X181990949Y-72527322D01*
X181993566Y-72524623D01*
X182013120Y-72505071D01*
X182015576Y-72501903D01*
X182023156Y-72493027D01*
X182053062Y-72461182D01*
X182062713Y-72443624D01*
X182073396Y-72427361D01*
X182085673Y-72411536D01*
X182103021Y-72371444D01*
X182108151Y-72360971D01*
X182129197Y-72322692D01*
X182134180Y-72303280D01*
X182140481Y-72284880D01*
X182148437Y-72266496D01*
X182155270Y-72223348D01*
X182157633Y-72211938D01*
X182168500Y-72169619D01*
X182168500Y-72149583D01*
X182170027Y-72130182D01*
X182173160Y-72110404D01*
X182169050Y-72066924D01*
X182168500Y-72055255D01*
X182168500Y-70040761D01*
X182188185Y-69973722D01*
X182227223Y-69935334D01*
X182254432Y-69918488D01*
X182415427Y-69771722D01*
X182444359Y-69733409D01*
X182500465Y-69691773D01*
X182570177Y-69687080D01*
X182631360Y-69720821D01*
X182642267Y-69733409D01*
X182670942Y-69771381D01*
X182670949Y-69771389D01*
X182831868Y-69918085D01*
X183017012Y-70032722D01*
X183017023Y-70032727D01*
X183220060Y-70111384D01*
X183293000Y-70125019D01*
X183293000Y-69292086D01*
X183304955Y-69304041D01*
X183417852Y-69361565D01*
X183511519Y-69376400D01*
X183574481Y-69376400D01*
X183668148Y-69361565D01*
X183781045Y-69304041D01*
X183793000Y-69292086D01*
X183793000Y-70125019D01*
X183865939Y-70111384D01*
X184068976Y-70032727D01*
X184068987Y-70032722D01*
X184254127Y-69918087D01*
X184265106Y-69908079D01*
X184327909Y-69877460D01*
X184397297Y-69885656D01*
X184447913Y-69925403D01*
X184510452Y-70008944D01*
X184510455Y-70008947D01*
X184625664Y-70095193D01*
X184625671Y-70095197D01*
X184760517Y-70145491D01*
X184760516Y-70145491D01*
X184767444Y-70146235D01*
X184820127Y-70151900D01*
X186265872Y-70151899D01*
X186325483Y-70145491D01*
X186460331Y-70095196D01*
X186575546Y-70008946D01*
X186661796Y-69893731D01*
X186712091Y-69758883D01*
X186718500Y-69699273D01*
X186718499Y-68253528D01*
X186712091Y-68193917D01*
X186707302Y-68181078D01*
X186661797Y-68059071D01*
X186661793Y-68059064D01*
X186575547Y-67943855D01*
X186575544Y-67943852D01*
X186460335Y-67857606D01*
X186460328Y-67857602D01*
X186325483Y-67807308D01*
X186279243Y-67802337D01*
X186214693Y-67775599D01*
X186174845Y-67718206D01*
X186168500Y-67679048D01*
X186168500Y-67075142D01*
X186170224Y-67059522D01*
X186169939Y-67059496D01*
X186170671Y-67051740D01*
X186170673Y-67051733D01*
X186168561Y-66984526D01*
X186168500Y-66980631D01*
X186168500Y-66953054D01*
X186168500Y-66953050D01*
X186167996Y-66949065D01*
X186167080Y-66937421D01*
X186165709Y-66893773D01*
X186160122Y-66874544D01*
X186156174Y-66855484D01*
X186155432Y-66849608D01*
X186153664Y-66835608D01*
X186153663Y-66835606D01*
X186153663Y-66835604D01*
X186137588Y-66795004D01*
X186133804Y-66783952D01*
X186121618Y-66742009D01*
X186121616Y-66742006D01*
X186111423Y-66724771D01*
X186102861Y-66707294D01*
X186095487Y-66688669D01*
X186079988Y-66667337D01*
X186069811Y-66653330D01*
X186063405Y-66643577D01*
X186041170Y-66605980D01*
X186041168Y-66605978D01*
X186041165Y-66605974D01*
X186027006Y-66591815D01*
X186014368Y-66577019D01*
X186002594Y-66560813D01*
X185981360Y-66543247D01*
X185968940Y-66532972D01*
X185960299Y-66525109D01*
X185769171Y-66333981D01*
X185735686Y-66272658D01*
X185740670Y-66202966D01*
X185782542Y-66147033D01*
X185848006Y-66122616D01*
X185856852Y-66122300D01*
X198722948Y-66122300D01*
X198789987Y-66141985D01*
G37*
%TD.AperFunction*%
%TA.AperFunction,Conductor*%
G36*
X134680387Y-71628385D02*
G01*
X134701029Y-71645019D01*
X135698956Y-72642946D01*
X135732441Y-72704269D01*
X135727457Y-72773961D01*
X135685585Y-72829894D01*
X135654611Y-72846808D01*
X135625672Y-72857602D01*
X135625664Y-72857606D01*
X135510455Y-72943852D01*
X135510452Y-72943855D01*
X135424206Y-73059064D01*
X135424202Y-73059071D01*
X135373908Y-73193917D01*
X135367501Y-73253516D01*
X135367500Y-73253535D01*
X135367500Y-74699270D01*
X135367501Y-74699276D01*
X135373908Y-74758883D01*
X135424202Y-74893728D01*
X135424206Y-74893735D01*
X135510452Y-75008944D01*
X135510455Y-75008947D01*
X135625664Y-75095193D01*
X135625671Y-75095197D01*
X135760517Y-75145491D01*
X135760516Y-75145491D01*
X135767444Y-75146235D01*
X135820127Y-75151900D01*
X137265872Y-75151899D01*
X137325483Y-75145491D01*
X137460331Y-75095196D01*
X137575546Y-75008946D01*
X137609931Y-74963014D01*
X137638087Y-74925403D01*
X137694020Y-74883532D01*
X137763712Y-74878548D01*
X137820891Y-74908077D01*
X137831869Y-74918085D01*
X137831874Y-74918089D01*
X138017012Y-75032722D01*
X138017023Y-75032727D01*
X138220060Y-75111384D01*
X138293000Y-75125019D01*
X138293000Y-74292086D01*
X138304955Y-74304041D01*
X138417852Y-74361565D01*
X138511519Y-74376400D01*
X138574481Y-74376400D01*
X138668148Y-74361565D01*
X138781045Y-74304041D01*
X138793000Y-74292086D01*
X138793000Y-75125019D01*
X138865939Y-75111384D01*
X139068976Y-75032727D01*
X139068987Y-75032722D01*
X139254130Y-74918085D01*
X139254131Y-74918085D01*
X139415055Y-74771384D01*
X139443730Y-74733412D01*
X139499838Y-74691774D01*
X139569550Y-74687081D01*
X139630733Y-74720822D01*
X139641640Y-74733409D01*
X139660512Y-74758400D01*
X139670573Y-74771722D01*
X139831568Y-74918488D01*
X139858776Y-74935334D01*
X139905412Y-74987360D01*
X139917500Y-75040761D01*
X139917500Y-77093146D01*
X139897815Y-77160185D01*
X139881181Y-77180827D01*
X133066808Y-83995199D01*
X133054551Y-84005020D01*
X133054734Y-84005241D01*
X133048722Y-84010214D01*
X133002698Y-84059223D01*
X132999991Y-84062016D01*
X132980489Y-84081517D01*
X132980475Y-84081534D01*
X132978007Y-84084715D01*
X132970443Y-84093570D01*
X132940537Y-84125418D01*
X132940536Y-84125420D01*
X132930884Y-84142976D01*
X132920210Y-84159226D01*
X132907929Y-84175061D01*
X132907924Y-84175068D01*
X132890575Y-84215158D01*
X132885438Y-84225644D01*
X132864403Y-84263906D01*
X132859422Y-84283307D01*
X132853121Y-84301710D01*
X132845162Y-84320102D01*
X132845161Y-84320105D01*
X132838328Y-84363243D01*
X132835960Y-84374674D01*
X132825101Y-84416971D01*
X132825100Y-84416982D01*
X132825100Y-84437016D01*
X132823573Y-84456415D01*
X132820440Y-84476194D01*
X132820440Y-84476195D01*
X132824550Y-84519674D01*
X132825100Y-84531343D01*
X132825100Y-99754855D01*
X132823375Y-99770472D01*
X132823661Y-99770499D01*
X132822926Y-99778265D01*
X132825039Y-99845472D01*
X132825100Y-99849367D01*
X132825100Y-99876957D01*
X132825603Y-99880935D01*
X132826518Y-99892567D01*
X132827890Y-99936224D01*
X132827891Y-99936227D01*
X132833480Y-99955467D01*
X132837424Y-99974511D01*
X132839936Y-99994392D01*
X132856014Y-100035003D01*
X132859797Y-100046052D01*
X132871981Y-100087988D01*
X132882180Y-100105234D01*
X132890738Y-100122703D01*
X132898114Y-100141332D01*
X132923781Y-100176660D01*
X132930193Y-100186421D01*
X132952428Y-100224017D01*
X132952433Y-100224024D01*
X132966590Y-100238180D01*
X132979228Y-100252976D01*
X132991005Y-100269186D01*
X132991006Y-100269187D01*
X133024657Y-100297025D01*
X133033298Y-100304888D01*
X135088597Y-102360188D01*
X135098422Y-102372451D01*
X135098643Y-102372269D01*
X135103611Y-102378274D01*
X135152622Y-102424299D01*
X135155421Y-102427012D01*
X135174922Y-102446514D01*
X135174926Y-102446517D01*
X135174929Y-102446520D01*
X135178102Y-102448981D01*
X135186974Y-102456559D01*
X135218818Y-102486462D01*
X135236376Y-102496114D01*
X135252633Y-102506793D01*
X135268464Y-102519073D01*
X135298203Y-102531942D01*
X135308552Y-102536421D01*
X135319041Y-102541560D01*
X135342857Y-102554652D01*
X135357308Y-102562597D01*
X135369923Y-102565835D01*
X135376705Y-102567577D01*
X135395119Y-102573881D01*
X135413504Y-102581838D01*
X135456661Y-102588673D01*
X135468056Y-102591032D01*
X135510381Y-102601900D01*
X135530416Y-102601900D01*
X135549813Y-102603426D01*
X135569596Y-102606560D01*
X135613075Y-102602450D01*
X135624744Y-102601900D01*
X137480586Y-102601900D01*
X137547625Y-102621585D01*
X137579539Y-102651173D01*
X137670573Y-102771722D01*
X137670575Y-102771724D01*
X137670579Y-102771728D01*
X137794572Y-102884763D01*
X137830854Y-102944474D01*
X137829093Y-103014322D01*
X137794572Y-103068037D01*
X137670579Y-103181071D01*
X137670571Y-103181080D01*
X137579540Y-103301626D01*
X137523432Y-103343263D01*
X137480586Y-103350900D01*
X135105852Y-103350900D01*
X135038813Y-103331215D01*
X135018171Y-103314581D01*
X126204819Y-94501228D01*
X126171334Y-94439905D01*
X126168500Y-94413547D01*
X126168500Y-75040761D01*
X126188185Y-74973722D01*
X126227223Y-74935334D01*
X126254432Y-74918488D01*
X126415427Y-74771722D01*
X126546712Y-74597872D01*
X126643817Y-74402859D01*
X126703435Y-74193323D01*
X126723536Y-73976400D01*
X126703435Y-73759477D01*
X126643817Y-73549941D01*
X126546712Y-73354928D01*
X126415427Y-73181078D01*
X126415420Y-73181072D01*
X126281584Y-73059064D01*
X126254432Y-73034312D01*
X126254428Y-73034309D01*
X126254423Y-73034306D01*
X126069213Y-72919629D01*
X126069207Y-72919626D01*
X125962825Y-72878414D01*
X125866069Y-72840930D01*
X125651926Y-72800900D01*
X125434074Y-72800900D01*
X125219931Y-72840930D01*
X125176891Y-72857604D01*
X125016792Y-72919626D01*
X125016786Y-72919629D01*
X124831576Y-73034306D01*
X124831566Y-73034313D01*
X124670574Y-73181076D01*
X124641640Y-73219391D01*
X124585530Y-73261027D01*
X124515818Y-73265718D01*
X124454637Y-73231976D01*
X124443731Y-73219390D01*
X124415051Y-73181411D01*
X124415050Y-73181410D01*
X124254131Y-73034714D01*
X124068987Y-72920077D01*
X124068985Y-72920076D01*
X123865931Y-72841413D01*
X123865921Y-72841410D01*
X123793001Y-72827778D01*
X123793000Y-72827779D01*
X123793000Y-73660714D01*
X123781045Y-73648759D01*
X123668148Y-73591235D01*
X123574481Y-73576400D01*
X123511519Y-73576400D01*
X123417852Y-73591235D01*
X123304955Y-73648759D01*
X123293000Y-73660714D01*
X123293000Y-72827779D01*
X123292998Y-72827778D01*
X123220078Y-72841410D01*
X123220068Y-72841413D01*
X123017014Y-72920076D01*
X123017012Y-72920077D01*
X122831869Y-73034714D01*
X122831868Y-73034714D01*
X122820887Y-73044725D01*
X122758082Y-73075340D01*
X122688695Y-73067140D01*
X122638086Y-73027397D01*
X122575546Y-72943854D01*
X122543182Y-72919626D01*
X122460335Y-72857606D01*
X122460328Y-72857602D01*
X122325483Y-72807308D01*
X122279243Y-72802337D01*
X122214693Y-72775599D01*
X122174845Y-72718206D01*
X122168500Y-72679048D01*
X122168500Y-72645742D01*
X122170224Y-72630122D01*
X122169939Y-72630095D01*
X122170673Y-72622333D01*
X122168561Y-72555112D01*
X122168500Y-72551218D01*
X122168500Y-72523656D01*
X122168500Y-72523650D01*
X122167996Y-72519668D01*
X122167081Y-72508029D01*
X122165710Y-72464373D01*
X122160119Y-72445130D01*
X122156173Y-72426078D01*
X122153664Y-72406208D01*
X122137579Y-72365583D01*
X122133806Y-72354562D01*
X122121618Y-72312610D01*
X122121617Y-72312609D01*
X122121617Y-72312607D01*
X122121616Y-72312606D01*
X122111423Y-72295371D01*
X122102861Y-72277894D01*
X122095487Y-72259269D01*
X122080603Y-72238783D01*
X122069811Y-72223930D01*
X122063405Y-72214177D01*
X122041170Y-72176580D01*
X122041168Y-72176578D01*
X122041165Y-72176574D01*
X122027006Y-72162415D01*
X122014368Y-72147619D01*
X122010992Y-72142972D01*
X122002594Y-72131413D01*
X121977198Y-72110404D01*
X121968940Y-72103572D01*
X121960299Y-72095709D01*
X121684971Y-71820381D01*
X121651486Y-71759058D01*
X121656470Y-71689366D01*
X121698342Y-71633433D01*
X121763806Y-71609016D01*
X121772652Y-71608700D01*
X134613348Y-71608700D01*
X134680387Y-71628385D01*
G37*
%TD.AperFunction*%
%TA.AperFunction,Conductor*%
G36*
X183803987Y-66141985D02*
G01*
X183824629Y-66158619D01*
X184881181Y-67215171D01*
X184914666Y-67276494D01*
X184917500Y-67302852D01*
X184917500Y-67679048D01*
X184897815Y-67746087D01*
X184845011Y-67791842D01*
X184806755Y-67802338D01*
X184760516Y-67807309D01*
X184625671Y-67857602D01*
X184625664Y-67857606D01*
X184510455Y-67943852D01*
X184510452Y-67943855D01*
X184447913Y-68027397D01*
X184391980Y-68069268D01*
X184322288Y-68074252D01*
X184265109Y-68044723D01*
X184254130Y-68034714D01*
X184254125Y-68034710D01*
X184068987Y-67920077D01*
X184068985Y-67920076D01*
X183865931Y-67841413D01*
X183865921Y-67841410D01*
X183793001Y-67827778D01*
X183793000Y-67827779D01*
X183793000Y-68660714D01*
X183781045Y-68648759D01*
X183668148Y-68591235D01*
X183574481Y-68576400D01*
X183511519Y-68576400D01*
X183417852Y-68591235D01*
X183304955Y-68648759D01*
X183293000Y-68660714D01*
X183293000Y-67827779D01*
X183292998Y-67827778D01*
X183220078Y-67841410D01*
X183220068Y-67841413D01*
X183017014Y-67920076D01*
X183017012Y-67920077D01*
X182831869Y-68034714D01*
X182831868Y-68034714D01*
X182670945Y-68181414D01*
X182642267Y-68219390D01*
X182586157Y-68261026D01*
X182516445Y-68265717D01*
X182455264Y-68231975D01*
X182444359Y-68219390D01*
X182435547Y-68207721D01*
X182415427Y-68181078D01*
X182254432Y-68034312D01*
X182254428Y-68034309D01*
X182254423Y-68034306D01*
X182069213Y-67919629D01*
X182069207Y-67919626D01*
X181984113Y-67886660D01*
X181866069Y-67840930D01*
X181651926Y-67800900D01*
X181434074Y-67800900D01*
X181219931Y-67840930D01*
X181176896Y-67857602D01*
X181016792Y-67919626D01*
X181016786Y-67919629D01*
X180831576Y-68034306D01*
X180831566Y-68034313D01*
X180670574Y-68181076D01*
X180539288Y-68354927D01*
X180442184Y-68549937D01*
X180382564Y-68759481D01*
X180362464Y-68976399D01*
X180362464Y-68976400D01*
X180382564Y-69193318D01*
X180442184Y-69402862D01*
X180539288Y-69597872D01*
X180670574Y-69771724D01*
X180804411Y-69893731D01*
X180831568Y-69918488D01*
X180858776Y-69935334D01*
X180905412Y-69987360D01*
X180917500Y-70040761D01*
X180917500Y-71780146D01*
X180897815Y-71847185D01*
X180881181Y-71867827D01*
X171598608Y-81150399D01*
X171586351Y-81160220D01*
X171586534Y-81160441D01*
X171580522Y-81165414D01*
X171534498Y-81214423D01*
X171531791Y-81217216D01*
X171512289Y-81236717D01*
X171512275Y-81236734D01*
X171509807Y-81239915D01*
X171502243Y-81248770D01*
X171472337Y-81280618D01*
X171472336Y-81280620D01*
X171462684Y-81298176D01*
X171452010Y-81314426D01*
X171439729Y-81330261D01*
X171439724Y-81330268D01*
X171422375Y-81370358D01*
X171417238Y-81380844D01*
X171396203Y-81419106D01*
X171391222Y-81438507D01*
X171384921Y-81456910D01*
X171376962Y-81475302D01*
X171376961Y-81475305D01*
X171370128Y-81518443D01*
X171367760Y-81529874D01*
X171356901Y-81572171D01*
X171356900Y-81572182D01*
X171356900Y-81592216D01*
X171355373Y-81611615D01*
X171352240Y-81631394D01*
X171352240Y-81631395D01*
X171356350Y-81674874D01*
X171356900Y-81686543D01*
X171356900Y-91526147D01*
X171337215Y-91593186D01*
X171320581Y-91613828D01*
X159619828Y-103314581D01*
X159558505Y-103348066D01*
X159532147Y-103350900D01*
X154605414Y-103350900D01*
X154538375Y-103331215D01*
X154506460Y-103301626D01*
X154491137Y-103281335D01*
X154415427Y-103181078D01*
X154291423Y-103068034D01*
X154255145Y-103008327D01*
X154256905Y-102938479D01*
X154291423Y-102884765D01*
X154415427Y-102771722D01*
X154506460Y-102651173D01*
X154562568Y-102609537D01*
X154605414Y-102601900D01*
X157619657Y-102601900D01*
X157635277Y-102603624D01*
X157635304Y-102603339D01*
X157643060Y-102604071D01*
X157643067Y-102604073D01*
X157710273Y-102601961D01*
X157714168Y-102601900D01*
X157741746Y-102601900D01*
X157741750Y-102601900D01*
X157745724Y-102601397D01*
X157757363Y-102600480D01*
X157801027Y-102599109D01*
X157820269Y-102593517D01*
X157839312Y-102589574D01*
X157859192Y-102587064D01*
X157899801Y-102570985D01*
X157910844Y-102567203D01*
X157952790Y-102555018D01*
X157970029Y-102544822D01*
X157987503Y-102536262D01*
X158006127Y-102528888D01*
X158006127Y-102528887D01*
X158006132Y-102528886D01*
X158041483Y-102503200D01*
X158051214Y-102496808D01*
X158088820Y-102474570D01*
X158102989Y-102460399D01*
X158117779Y-102447768D01*
X158133987Y-102435994D01*
X158161838Y-102402326D01*
X158169679Y-102393709D01*
X166926788Y-93636601D01*
X166939042Y-93626786D01*
X166938859Y-93626564D01*
X166944868Y-93621591D01*
X166944877Y-93621586D01*
X166990949Y-93572522D01*
X166993566Y-93569823D01*
X167013120Y-93550271D01*
X167015576Y-93547103D01*
X167023156Y-93538227D01*
X167053062Y-93506382D01*
X167062713Y-93488824D01*
X167073396Y-93472561D01*
X167085673Y-93456736D01*
X167103021Y-93416644D01*
X167108151Y-93406171D01*
X167129197Y-93367892D01*
X167134180Y-93348480D01*
X167140481Y-93330080D01*
X167148437Y-93311696D01*
X167155270Y-93268548D01*
X167157633Y-93257138D01*
X167168500Y-93214819D01*
X167168500Y-93194783D01*
X167170027Y-93175382D01*
X167173160Y-93155604D01*
X167169050Y-93112124D01*
X167168500Y-93100455D01*
X167168500Y-70040761D01*
X167188185Y-69973722D01*
X167227223Y-69935334D01*
X167254432Y-69918488D01*
X167415427Y-69771722D01*
X167444359Y-69733409D01*
X167500465Y-69691773D01*
X167570177Y-69687080D01*
X167631360Y-69720821D01*
X167642267Y-69733409D01*
X167670942Y-69771381D01*
X167670949Y-69771389D01*
X167831868Y-69918085D01*
X168017012Y-70032722D01*
X168017023Y-70032727D01*
X168220060Y-70111384D01*
X168293000Y-70125019D01*
X168293000Y-69292086D01*
X168304955Y-69304041D01*
X168417852Y-69361565D01*
X168511519Y-69376400D01*
X168574481Y-69376400D01*
X168668148Y-69361565D01*
X168781045Y-69304041D01*
X168793000Y-69292086D01*
X168793000Y-70125019D01*
X168865939Y-70111384D01*
X169068976Y-70032727D01*
X169068987Y-70032722D01*
X169254127Y-69918087D01*
X169265106Y-69908079D01*
X169327909Y-69877460D01*
X169397297Y-69885656D01*
X169447913Y-69925403D01*
X169510452Y-70008944D01*
X169510455Y-70008947D01*
X169625664Y-70095193D01*
X169625671Y-70095197D01*
X169760517Y-70145491D01*
X169760516Y-70145491D01*
X169767444Y-70146235D01*
X169820127Y-70151900D01*
X171265872Y-70151899D01*
X171325483Y-70145491D01*
X171460331Y-70095196D01*
X171575546Y-70008946D01*
X171661796Y-69893731D01*
X171712091Y-69758883D01*
X171718500Y-69699273D01*
X171718499Y-68253528D01*
X171712091Y-68193917D01*
X171707302Y-68181078D01*
X171661797Y-68059071D01*
X171661793Y-68059064D01*
X171575547Y-67943855D01*
X171575544Y-67943852D01*
X171460335Y-67857606D01*
X171460328Y-67857602D01*
X171325482Y-67807308D01*
X171325483Y-67807308D01*
X171265883Y-67800901D01*
X171265881Y-67800900D01*
X171265873Y-67800900D01*
X171265865Y-67800900D01*
X170303453Y-67800900D01*
X170236414Y-67781215D01*
X170215772Y-67764581D01*
X168785172Y-66333981D01*
X168751687Y-66272658D01*
X168756671Y-66202966D01*
X168798543Y-66147033D01*
X168864007Y-66122616D01*
X168872853Y-66122300D01*
X183736948Y-66122300D01*
X183803987Y-66141985D01*
G37*
%TD.AperFunction*%
%TA.AperFunction,Conductor*%
G36*
X166819987Y-66141985D02*
G01*
X166840629Y-66158619D01*
X168309303Y-67627293D01*
X168342788Y-67688616D01*
X168337804Y-67758308D01*
X168295932Y-67814241D01*
X168244410Y-67836862D01*
X168220076Y-67841411D01*
X168220069Y-67841413D01*
X168017014Y-67920076D01*
X168017012Y-67920077D01*
X167831869Y-68034714D01*
X167831868Y-68034714D01*
X167670945Y-68181414D01*
X167642267Y-68219390D01*
X167586157Y-68261026D01*
X167516445Y-68265717D01*
X167455264Y-68231975D01*
X167444359Y-68219390D01*
X167435547Y-68207721D01*
X167415427Y-68181078D01*
X167254432Y-68034312D01*
X167254428Y-68034309D01*
X167254423Y-68034306D01*
X167069213Y-67919629D01*
X167069207Y-67919626D01*
X166984113Y-67886660D01*
X166866069Y-67840930D01*
X166651926Y-67800900D01*
X166434074Y-67800900D01*
X166219931Y-67840930D01*
X166176896Y-67857602D01*
X166016792Y-67919626D01*
X166016786Y-67919629D01*
X165831576Y-68034306D01*
X165831566Y-68034313D01*
X165670574Y-68181076D01*
X165539288Y-68354927D01*
X165442184Y-68549937D01*
X165382564Y-68759481D01*
X165362464Y-68976399D01*
X165362464Y-68976400D01*
X165382564Y-69193318D01*
X165442184Y-69402862D01*
X165539288Y-69597872D01*
X165670574Y-69771724D01*
X165804411Y-69893731D01*
X165831568Y-69918488D01*
X165858776Y-69935334D01*
X165905412Y-69987360D01*
X165917500Y-70040761D01*
X165917500Y-92825347D01*
X165897815Y-92892386D01*
X165881181Y-92913028D01*
X157479628Y-101314581D01*
X157418305Y-101348066D01*
X157391947Y-101350900D01*
X154605414Y-101350900D01*
X154538375Y-101331215D01*
X154506460Y-101301626D01*
X154415427Y-101181078D01*
X154291423Y-101068034D01*
X154255145Y-101008327D01*
X154256905Y-100938479D01*
X154291423Y-100884765D01*
X154415427Y-100771722D01*
X154506460Y-100651173D01*
X154562568Y-100609537D01*
X154605414Y-100601900D01*
X156241953Y-100601900D01*
X156261326Y-100603423D01*
X156262559Y-100603618D01*
X156265679Y-100604112D01*
X156273308Y-100605566D01*
X156327467Y-100617673D01*
X156335635Y-100617416D01*
X156358924Y-100618881D01*
X156366996Y-100620160D01*
X156366998Y-100620159D01*
X156367000Y-100620160D01*
X156422214Y-100614940D01*
X156429978Y-100614450D01*
X156485427Y-100612709D01*
X156493267Y-100610430D01*
X156516200Y-100606055D01*
X156524333Y-100605287D01*
X156576519Y-100586498D01*
X156583909Y-100584097D01*
X156637190Y-100568618D01*
X156644227Y-100564455D01*
X156665332Y-100554524D01*
X156673028Y-100551754D01*
X156718904Y-100520574D01*
X156725467Y-100516409D01*
X156773220Y-100488170D01*
X156778992Y-100482397D01*
X156796980Y-100467515D01*
X156803738Y-100462923D01*
X156840425Y-100421308D01*
X156845743Y-100415645D01*
X158421586Y-98839802D01*
X158433848Y-98829980D01*
X158433665Y-98829759D01*
X158439668Y-98824791D01*
X158439677Y-98824786D01*
X158485734Y-98775739D01*
X158488382Y-98773006D01*
X158507920Y-98753470D01*
X158510370Y-98750310D01*
X158517954Y-98741429D01*
X158547862Y-98709582D01*
X158557514Y-98692023D01*
X158568189Y-98675772D01*
X158580474Y-98659936D01*
X158597830Y-98619825D01*
X158602961Y-98609354D01*
X158623994Y-98571098D01*
X158623994Y-98571097D01*
X158623997Y-98571092D01*
X158628980Y-98551680D01*
X158635277Y-98533291D01*
X158643238Y-98514895D01*
X158650070Y-98471748D01*
X158652439Y-98460316D01*
X158663299Y-98418022D01*
X158663300Y-98418017D01*
X158663300Y-98397983D01*
X158664827Y-98378582D01*
X158667960Y-98358804D01*
X158663850Y-98315324D01*
X158663300Y-98303655D01*
X158663300Y-81530737D01*
X158665024Y-81515123D01*
X158664738Y-81515096D01*
X158665472Y-81507333D01*
X158663361Y-81440144D01*
X158663300Y-81436250D01*
X158663300Y-81408651D01*
X158663300Y-81408650D01*
X158662797Y-81404670D01*
X158661880Y-81393021D01*
X158660509Y-81349373D01*
X158654922Y-81330144D01*
X158650974Y-81311084D01*
X158648464Y-81291208D01*
X158632385Y-81250597D01*
X158628604Y-81239552D01*
X158616419Y-81197612D01*
X158606218Y-81180363D01*
X158597660Y-81162894D01*
X158590286Y-81144268D01*
X158590283Y-81144264D01*
X158590283Y-81144263D01*
X158564616Y-81108935D01*
X158558203Y-81099172D01*
X158535972Y-81061583D01*
X158535970Y-81061579D01*
X158535966Y-81061575D01*
X158535963Y-81061571D01*
X158521805Y-81047413D01*
X158509170Y-81032620D01*
X158497393Y-81016412D01*
X158463745Y-80988576D01*
X158455104Y-80980713D01*
X152204819Y-74730428D01*
X152171334Y-74669105D01*
X152168500Y-74642747D01*
X152168500Y-70040761D01*
X152188185Y-69973722D01*
X152227223Y-69935334D01*
X152254432Y-69918488D01*
X152415427Y-69771722D01*
X152444359Y-69733409D01*
X152500465Y-69691773D01*
X152570177Y-69687080D01*
X152631360Y-69720821D01*
X152642267Y-69733409D01*
X152670942Y-69771381D01*
X152670949Y-69771389D01*
X152831868Y-69918085D01*
X153017012Y-70032722D01*
X153017023Y-70032727D01*
X153220060Y-70111384D01*
X153293000Y-70125019D01*
X153293000Y-69292086D01*
X153304955Y-69304041D01*
X153417852Y-69361565D01*
X153511519Y-69376400D01*
X153574481Y-69376400D01*
X153668148Y-69361565D01*
X153781045Y-69304041D01*
X153793000Y-69292086D01*
X153793000Y-70125019D01*
X153865939Y-70111384D01*
X154068976Y-70032727D01*
X154068987Y-70032722D01*
X154254127Y-69918087D01*
X154265106Y-69908079D01*
X154327909Y-69877460D01*
X154397297Y-69885656D01*
X154447913Y-69925403D01*
X154510452Y-70008944D01*
X154510455Y-70008947D01*
X154625664Y-70095193D01*
X154625671Y-70095197D01*
X154760517Y-70145491D01*
X154760516Y-70145491D01*
X154767444Y-70146235D01*
X154820127Y-70151900D01*
X156265872Y-70151899D01*
X156325483Y-70145491D01*
X156460331Y-70095196D01*
X156575546Y-70008946D01*
X156661796Y-69893731D01*
X156712091Y-69758883D01*
X156718500Y-69699273D01*
X156718499Y-68253528D01*
X156712091Y-68193917D01*
X156707302Y-68181078D01*
X156661797Y-68059071D01*
X156661793Y-68059064D01*
X156575547Y-67943855D01*
X156575544Y-67943852D01*
X156460335Y-67857606D01*
X156460328Y-67857602D01*
X156325483Y-67807308D01*
X156279243Y-67802337D01*
X156214693Y-67775599D01*
X156174845Y-67718206D01*
X156168500Y-67679048D01*
X156168500Y-66259738D01*
X156170224Y-66244119D01*
X156169938Y-66244092D01*
X156170834Y-66234621D01*
X156171441Y-66233099D01*
X156171488Y-66232680D01*
X156172375Y-66228713D01*
X156173126Y-66228880D01*
X156196745Y-66169734D01*
X156253624Y-66129155D01*
X156294283Y-66122300D01*
X166721781Y-66122300D01*
X166752948Y-66122300D01*
X166819987Y-66141985D01*
G37*
%TD.AperFunction*%
%TA.AperFunction,Conductor*%
G36*
X205616028Y-64007973D02*
G01*
X205683062Y-64027672D01*
X205728805Y-64080486D01*
X205740000Y-64131973D01*
X205740000Y-133480000D01*
X205720315Y-133547039D01*
X205667511Y-133592794D01*
X205616000Y-133604000D01*
X86484000Y-133604000D01*
X86416961Y-133584315D01*
X86371206Y-133531511D01*
X86360000Y-133480000D01*
X86360000Y-129057402D01*
X88389880Y-129057402D01*
X88409546Y-129420128D01*
X88468317Y-129778614D01*
X88468319Y-129778622D01*
X88565495Y-130128620D01*
X88565497Y-130128627D01*
X88699952Y-130466084D01*
X88699961Y-130466102D01*
X88870116Y-130787047D01*
X88870118Y-130787051D01*
X89073970Y-131087709D01*
X89073977Y-131087719D01*
X89205769Y-131242875D01*
X89205770Y-131242875D01*
X90447066Y-130001580D01*
X90609930Y-130192270D01*
X90800618Y-130355132D01*
X89556688Y-131599062D01*
X89556688Y-131599064D01*
X89572870Y-131614392D01*
X89572871Y-131614393D01*
X89862066Y-131834232D01*
X89862082Y-131834243D01*
X90173322Y-132021509D01*
X90173335Y-132021516D01*
X90503005Y-132174039D01*
X90503010Y-132174040D01*
X90847261Y-132290032D01*
X91202035Y-132368124D01*
X91563166Y-132407399D01*
X91563174Y-132407400D01*
X91926426Y-132407400D01*
X91926433Y-132407399D01*
X92287564Y-132368124D01*
X92642338Y-132290032D01*
X92986589Y-132174040D01*
X92986594Y-132174039D01*
X93316264Y-132021516D01*
X93316277Y-132021509D01*
X93627517Y-131834243D01*
X93627533Y-131834232D01*
X93916729Y-131614392D01*
X93932910Y-131599064D01*
X93932910Y-131599063D01*
X92688980Y-130355133D01*
X92879670Y-130192270D01*
X93042533Y-130001580D01*
X94283828Y-131242875D01*
X94283829Y-131242875D01*
X94415627Y-131087711D01*
X94415638Y-131087697D01*
X94619481Y-130787051D01*
X94619483Y-130787047D01*
X94789638Y-130466102D01*
X94789647Y-130466084D01*
X94924102Y-130128627D01*
X94924104Y-130128620D01*
X95021280Y-129778622D01*
X95021282Y-129778614D01*
X95080053Y-129420128D01*
X95099720Y-129057402D01*
X196935080Y-129057402D01*
X196954746Y-129420128D01*
X197013517Y-129778614D01*
X197013519Y-129778622D01*
X197110695Y-130128620D01*
X197110697Y-130128627D01*
X197245152Y-130466084D01*
X197245161Y-130466102D01*
X197415316Y-130787047D01*
X197415318Y-130787051D01*
X197619170Y-131087709D01*
X197619177Y-131087719D01*
X197750969Y-131242875D01*
X197750970Y-131242875D01*
X198992266Y-130001580D01*
X199155130Y-130192270D01*
X199345818Y-130355132D01*
X198101888Y-131599062D01*
X198101888Y-131599064D01*
X198118070Y-131614392D01*
X198118071Y-131614393D01*
X198407266Y-131834232D01*
X198407282Y-131834243D01*
X198718522Y-132021509D01*
X198718535Y-132021516D01*
X199048205Y-132174039D01*
X199048210Y-132174040D01*
X199392461Y-132290032D01*
X199747235Y-132368124D01*
X200108366Y-132407399D01*
X200108374Y-132407400D01*
X200471626Y-132407400D01*
X200471633Y-132407399D01*
X200832764Y-132368124D01*
X201187538Y-132290032D01*
X201531789Y-132174040D01*
X201531794Y-132174039D01*
X201861464Y-132021516D01*
X201861477Y-132021509D01*
X202172717Y-131834243D01*
X202172733Y-131834232D01*
X202461929Y-131614392D01*
X202478110Y-131599064D01*
X202478110Y-131599063D01*
X201234180Y-130355133D01*
X201424870Y-130192270D01*
X201587733Y-130001580D01*
X202829028Y-131242875D01*
X202829029Y-131242875D01*
X202960827Y-131087711D01*
X202960838Y-131087697D01*
X203164681Y-130787051D01*
X203164683Y-130787047D01*
X203334838Y-130466102D01*
X203334847Y-130466084D01*
X203469302Y-130128627D01*
X203469304Y-130128620D01*
X203566480Y-129778622D01*
X203566482Y-129778614D01*
X203625253Y-129420128D01*
X203644920Y-129057402D01*
X203644920Y-129057397D01*
X203625253Y-128694671D01*
X203566482Y-128336185D01*
X203566480Y-128336177D01*
X203469304Y-127986179D01*
X203469302Y-127986172D01*
X203334847Y-127648715D01*
X203334838Y-127648697D01*
X203164683Y-127327752D01*
X203164681Y-127327748D01*
X202960829Y-127027090D01*
X202960822Y-127027080D01*
X202829029Y-126871923D01*
X202829028Y-126871923D01*
X201587732Y-128113218D01*
X201424870Y-127922530D01*
X201234180Y-127759666D01*
X202478110Y-126515736D01*
X202478110Y-126515734D01*
X202461929Y-126500407D01*
X202461928Y-126500406D01*
X202172733Y-126280567D01*
X202172717Y-126280556D01*
X201861477Y-126093290D01*
X201861464Y-126093283D01*
X201531794Y-125940760D01*
X201531789Y-125940759D01*
X201187538Y-125824767D01*
X200832764Y-125746675D01*
X200471633Y-125707400D01*
X200108366Y-125707400D01*
X199747235Y-125746675D01*
X199392461Y-125824767D01*
X199048210Y-125940759D01*
X199048205Y-125940760D01*
X198718535Y-126093283D01*
X198718522Y-126093290D01*
X198407282Y-126280556D01*
X198407266Y-126280567D01*
X198118075Y-126500402D01*
X198101888Y-126515735D01*
X198101887Y-126515735D01*
X199345819Y-127759666D01*
X199155130Y-127922530D01*
X198992266Y-128113218D01*
X197750970Y-126871922D01*
X197750969Y-126871923D01*
X197619177Y-127027080D01*
X197619170Y-127027090D01*
X197415318Y-127327748D01*
X197415316Y-127327752D01*
X197245161Y-127648697D01*
X197245152Y-127648715D01*
X197110697Y-127986172D01*
X197110695Y-127986179D01*
X197013519Y-128336177D01*
X197013517Y-128336185D01*
X196954746Y-128694671D01*
X196935080Y-129057397D01*
X196935080Y-129057402D01*
X95099720Y-129057402D01*
X95099720Y-129057397D01*
X95080053Y-128694671D01*
X95021282Y-128336185D01*
X95021280Y-128336177D01*
X94924104Y-127986179D01*
X94924102Y-127986172D01*
X94789647Y-127648715D01*
X94789638Y-127648697D01*
X94619483Y-127327752D01*
X94619481Y-127327748D01*
X94415629Y-127027090D01*
X94415622Y-127027080D01*
X94283829Y-126871923D01*
X94283828Y-126871923D01*
X93042532Y-128113218D01*
X92879670Y-127922530D01*
X92688980Y-127759666D01*
X93932910Y-126515736D01*
X93932910Y-126515734D01*
X93916729Y-126500407D01*
X93916728Y-126500406D01*
X93627533Y-126280567D01*
X93627517Y-126280556D01*
X93316277Y-126093290D01*
X93316264Y-126093283D01*
X92986594Y-125940760D01*
X92986589Y-125940759D01*
X92642338Y-125824767D01*
X92287564Y-125746675D01*
X91926433Y-125707400D01*
X91563166Y-125707400D01*
X91202035Y-125746675D01*
X90847261Y-125824767D01*
X90503010Y-125940759D01*
X90503005Y-125940760D01*
X90173335Y-126093283D01*
X90173322Y-126093290D01*
X89862082Y-126280556D01*
X89862066Y-126280567D01*
X89572875Y-126500402D01*
X89556688Y-126515735D01*
X89556687Y-126515735D01*
X90800619Y-127759666D01*
X90609930Y-127922530D01*
X90447066Y-128113218D01*
X89205770Y-126871922D01*
X89205769Y-126871923D01*
X89073977Y-127027080D01*
X89073970Y-127027090D01*
X88870118Y-127327748D01*
X88870116Y-127327752D01*
X88699961Y-127648697D01*
X88699952Y-127648715D01*
X88565497Y-127986172D01*
X88565495Y-127986179D01*
X88468319Y-128336177D01*
X88468317Y-128336185D01*
X88409546Y-128694671D01*
X88389880Y-129057397D01*
X88389880Y-129057402D01*
X86360000Y-129057402D01*
X86360000Y-123113802D01*
X123536034Y-123113802D01*
X123555858Y-123340399D01*
X123555860Y-123340410D01*
X123614730Y-123560117D01*
X123614735Y-123560131D01*
X123710863Y-123766278D01*
X123761974Y-123839272D01*
X124357923Y-123243323D01*
X124381507Y-123323644D01*
X124459239Y-123444598D01*
X124567900Y-123538752D01*
X124698685Y-123598480D01*
X124708466Y-123599886D01*
X124115526Y-124192825D01*
X124188513Y-124243932D01*
X124188521Y-124243936D01*
X124394668Y-124340064D01*
X124394682Y-124340069D01*
X124614389Y-124398939D01*
X124614400Y-124398941D01*
X124840998Y-124418766D01*
X124841002Y-124418766D01*
X125067599Y-124398941D01*
X125067610Y-124398939D01*
X125287317Y-124340069D01*
X125287331Y-124340064D01*
X125493478Y-124243936D01*
X125566471Y-124192824D01*
X124973533Y-123599886D01*
X124983315Y-123598480D01*
X125114100Y-123538752D01*
X125222761Y-123444598D01*
X125300493Y-123323644D01*
X125324076Y-123243323D01*
X125920024Y-123839271D01*
X125971136Y-123766278D01*
X126067264Y-123560131D01*
X126067269Y-123560117D01*
X126126139Y-123340410D01*
X126126141Y-123340399D01*
X126145966Y-123113802D01*
X126145966Y-123113797D01*
X126126141Y-122887200D01*
X126126139Y-122887189D01*
X126067269Y-122667482D01*
X126067264Y-122667468D01*
X125971136Y-122461321D01*
X125971132Y-122461313D01*
X125920025Y-122388326D01*
X125324076Y-122984275D01*
X125300493Y-122903956D01*
X125222761Y-122783002D01*
X125114100Y-122688848D01*
X124983315Y-122629120D01*
X124973533Y-122627713D01*
X125566472Y-122034774D01*
X125493478Y-121983663D01*
X125287331Y-121887535D01*
X125287317Y-121887530D01*
X125067610Y-121828660D01*
X125067599Y-121828658D01*
X124841002Y-121808834D01*
X124840998Y-121808834D01*
X124614400Y-121828658D01*
X124614389Y-121828660D01*
X124394682Y-121887530D01*
X124394673Y-121887534D01*
X124188516Y-121983666D01*
X124188512Y-121983668D01*
X124115526Y-122034773D01*
X124115526Y-122034774D01*
X124708466Y-122627713D01*
X124698685Y-122629120D01*
X124567900Y-122688848D01*
X124459239Y-122783002D01*
X124381507Y-122903956D01*
X124357923Y-122984275D01*
X123761974Y-122388326D01*
X123761973Y-122388326D01*
X123710868Y-122461312D01*
X123710866Y-122461316D01*
X123614734Y-122667473D01*
X123614730Y-122667482D01*
X123555860Y-122887189D01*
X123555858Y-122887200D01*
X123536034Y-123113797D01*
X123536034Y-123113802D01*
X86360000Y-123113802D01*
X86360000Y-74699270D01*
X90367500Y-74699270D01*
X90367501Y-74699276D01*
X90373908Y-74758883D01*
X90424202Y-74893728D01*
X90424206Y-74893735D01*
X90510452Y-75008944D01*
X90510455Y-75008947D01*
X90625664Y-75095193D01*
X90625671Y-75095197D01*
X90760516Y-75145491D01*
X90806757Y-75150463D01*
X90871307Y-75177201D01*
X90911155Y-75234594D01*
X90917500Y-75273752D01*
X90917500Y-76363855D01*
X90915775Y-76379472D01*
X90916061Y-76379499D01*
X90915326Y-76387265D01*
X90917439Y-76454472D01*
X90917500Y-76458367D01*
X90917500Y-76485957D01*
X90918003Y-76489935D01*
X90918918Y-76501567D01*
X90920290Y-76545224D01*
X90920291Y-76545227D01*
X90925880Y-76564467D01*
X90929824Y-76583511D01*
X90932336Y-76603392D01*
X90948414Y-76644003D01*
X90952197Y-76655052D01*
X90964381Y-76696988D01*
X90974580Y-76714234D01*
X90983138Y-76731703D01*
X90990514Y-76750332D01*
X91016181Y-76785660D01*
X91022593Y-76795421D01*
X91044828Y-76833017D01*
X91044833Y-76833024D01*
X91058990Y-76847180D01*
X91071628Y-76861976D01*
X91083405Y-76878186D01*
X91083406Y-76878187D01*
X91117057Y-76906025D01*
X91125698Y-76913888D01*
X123829181Y-109617371D01*
X123862666Y-109678694D01*
X123865500Y-109705052D01*
X123865500Y-110402048D01*
X123845815Y-110469087D01*
X123793011Y-110514842D01*
X123754755Y-110525338D01*
X123708516Y-110530309D01*
X123573671Y-110580602D01*
X123573664Y-110580606D01*
X123458455Y-110666852D01*
X123458452Y-110666855D01*
X123372206Y-110782064D01*
X123372202Y-110782071D01*
X123321908Y-110916917D01*
X123315501Y-110976516D01*
X123315500Y-110976535D01*
X123315500Y-112422270D01*
X123315501Y-112422276D01*
X123321908Y-112481883D01*
X123372202Y-112616728D01*
X123372206Y-112616735D01*
X123458452Y-112731944D01*
X123458455Y-112731947D01*
X123573664Y-112818193D01*
X123573671Y-112818197D01*
X123708517Y-112868491D01*
X123708516Y-112868491D01*
X123715444Y-112869235D01*
X123768127Y-112874900D01*
X125213872Y-112874899D01*
X125273483Y-112868491D01*
X125408331Y-112818196D01*
X125523546Y-112731946D01*
X125578653Y-112658333D01*
X125586087Y-112648403D01*
X125642020Y-112606532D01*
X125711712Y-112601548D01*
X125768891Y-112631077D01*
X125779869Y-112641085D01*
X125779874Y-112641089D01*
X125965012Y-112755722D01*
X125965023Y-112755727D01*
X126168060Y-112834384D01*
X126241000Y-112848019D01*
X126241000Y-112015086D01*
X126252955Y-112027041D01*
X126365852Y-112084565D01*
X126459519Y-112099400D01*
X126522481Y-112099400D01*
X126616148Y-112084565D01*
X126729045Y-112027041D01*
X126741000Y-112015086D01*
X126741000Y-112848019D01*
X126813939Y-112834384D01*
X127016976Y-112755727D01*
X127016987Y-112755722D01*
X127202130Y-112641085D01*
X127202131Y-112641085D01*
X127363055Y-112494384D01*
X127391730Y-112456412D01*
X127447838Y-112414774D01*
X127517550Y-112410081D01*
X127578733Y-112443822D01*
X127589640Y-112456409D01*
X127608512Y-112481400D01*
X127618573Y-112494722D01*
X127779568Y-112641488D01*
X127806776Y-112658334D01*
X127853412Y-112710360D01*
X127865500Y-112763761D01*
X127865500Y-119170255D01*
X127863775Y-119185872D01*
X127864061Y-119185899D01*
X127863326Y-119193665D01*
X127865439Y-119260872D01*
X127865500Y-119264767D01*
X127865500Y-119292357D01*
X127866003Y-119296335D01*
X127866918Y-119307967D01*
X127868290Y-119351624D01*
X127868291Y-119351627D01*
X127873880Y-119370867D01*
X127877824Y-119389911D01*
X127880336Y-119409792D01*
X127896414Y-119450403D01*
X127900197Y-119461452D01*
X127912381Y-119503388D01*
X127922580Y-119520634D01*
X127931136Y-119538100D01*
X127935825Y-119549941D01*
X127938514Y-119556732D01*
X127964181Y-119592060D01*
X127970593Y-119601821D01*
X127992828Y-119639417D01*
X127992833Y-119639424D01*
X128006990Y-119653580D01*
X128019628Y-119668376D01*
X128031405Y-119684586D01*
X128031406Y-119684587D01*
X128065057Y-119712425D01*
X128073698Y-119720288D01*
X129284581Y-120931171D01*
X129318066Y-120992494D01*
X129320900Y-121018852D01*
X129320900Y-121689300D01*
X129301215Y-121756339D01*
X129248411Y-121802094D01*
X129196901Y-121813300D01*
X129073130Y-121813300D01*
X129073123Y-121813301D01*
X129013516Y-121819708D01*
X128878671Y-121870002D01*
X128878664Y-121870006D01*
X128763455Y-121956252D01*
X128763452Y-121956255D01*
X128677206Y-122071464D01*
X128677202Y-122071471D01*
X128626908Y-122206317D01*
X128620501Y-122265916D01*
X128620501Y-122265923D01*
X128620500Y-122265935D01*
X128620500Y-123961670D01*
X128620501Y-123961676D01*
X128626908Y-124021283D01*
X128677202Y-124156128D01*
X128677206Y-124156135D01*
X128763452Y-124271344D01*
X128763455Y-124271347D01*
X128878664Y-124357593D01*
X128878671Y-124357597D01*
X128923618Y-124374361D01*
X129013517Y-124407891D01*
X129073127Y-124414300D01*
X129196900Y-124414299D01*
X129263939Y-124433983D01*
X129309694Y-124486787D01*
X129320900Y-124538299D01*
X129320900Y-125825055D01*
X129319175Y-125840672D01*
X129319461Y-125840699D01*
X129318726Y-125848465D01*
X129320839Y-125915672D01*
X129320900Y-125919567D01*
X129320900Y-125947157D01*
X129321403Y-125951135D01*
X129322318Y-125962767D01*
X129323690Y-126006424D01*
X129323691Y-126006427D01*
X129329280Y-126025667D01*
X129333224Y-126044711D01*
X129334574Y-126055394D01*
X129335736Y-126064592D01*
X129351814Y-126105203D01*
X129355597Y-126116252D01*
X129367781Y-126158188D01*
X129377980Y-126175434D01*
X129386538Y-126192903D01*
X129393914Y-126211532D01*
X129419581Y-126246860D01*
X129425993Y-126256621D01*
X129448228Y-126294217D01*
X129448233Y-126294224D01*
X129462390Y-126308380D01*
X129475028Y-126323176D01*
X129486805Y-126339386D01*
X129486806Y-126339387D01*
X129520457Y-126367225D01*
X129529098Y-126375088D01*
X131061397Y-127907388D01*
X131071222Y-127919651D01*
X131071443Y-127919469D01*
X131076411Y-127925474D01*
X131125422Y-127971499D01*
X131128221Y-127974212D01*
X131147722Y-127993714D01*
X131147726Y-127993717D01*
X131147729Y-127993720D01*
X131150902Y-127996181D01*
X131159774Y-128003759D01*
X131191618Y-128033662D01*
X131209176Y-128043314D01*
X131225435Y-128053995D01*
X131241264Y-128066273D01*
X131281355Y-128083621D01*
X131291826Y-128088751D01*
X131314380Y-128101150D01*
X131330102Y-128109794D01*
X131330104Y-128109795D01*
X131330108Y-128109797D01*
X131349516Y-128114780D01*
X131367919Y-128121081D01*
X131386301Y-128129036D01*
X131386302Y-128129036D01*
X131386304Y-128129037D01*
X131429450Y-128135870D01*
X131440872Y-128138236D01*
X131483181Y-128149100D01*
X131503216Y-128149100D01*
X131522614Y-128150626D01*
X131542394Y-128153759D01*
X131542395Y-128153760D01*
X131542395Y-128153759D01*
X131542396Y-128153760D01*
X131585875Y-128149650D01*
X131597544Y-128149100D01*
X141140257Y-128149100D01*
X141155877Y-128150824D01*
X141155904Y-128150539D01*
X141163660Y-128151271D01*
X141163667Y-128151273D01*
X141230873Y-128149161D01*
X141234768Y-128149100D01*
X141262346Y-128149100D01*
X141262350Y-128149100D01*
X141266324Y-128148597D01*
X141277963Y-128147680D01*
X141321627Y-128146309D01*
X141340869Y-128140717D01*
X141359912Y-128136774D01*
X141379792Y-128134264D01*
X141420401Y-128118185D01*
X141431444Y-128114403D01*
X141473390Y-128102218D01*
X141490629Y-128092022D01*
X141508103Y-128083462D01*
X141526727Y-128076088D01*
X141526727Y-128076087D01*
X141526732Y-128076086D01*
X141562083Y-128050400D01*
X141571814Y-128044008D01*
X141609420Y-128021770D01*
X141623589Y-128007599D01*
X141638379Y-127994968D01*
X141654587Y-127983194D01*
X141682438Y-127949526D01*
X141690279Y-127940909D01*
X143511787Y-126119401D01*
X143524042Y-126109586D01*
X143523859Y-126109364D01*
X143529868Y-126104391D01*
X143529877Y-126104386D01*
X143575949Y-126055322D01*
X143578566Y-126052623D01*
X143598120Y-126033071D01*
X143600576Y-126029903D01*
X143608156Y-126021027D01*
X143638062Y-125989182D01*
X143647715Y-125971620D01*
X143658389Y-125955370D01*
X143670673Y-125939536D01*
X143688019Y-125899450D01*
X143693157Y-125888962D01*
X143714196Y-125850693D01*
X143714197Y-125850692D01*
X143719177Y-125831291D01*
X143725478Y-125812888D01*
X143733438Y-125794496D01*
X143740272Y-125751341D01*
X143742635Y-125739931D01*
X143753500Y-125697619D01*
X143753500Y-125677583D01*
X143755027Y-125658182D01*
X143758160Y-125638404D01*
X143754050Y-125594924D01*
X143753500Y-125583255D01*
X143753500Y-95169652D01*
X143773185Y-95102613D01*
X143789819Y-95081971D01*
X150233572Y-88638219D01*
X150294895Y-88604734D01*
X150321253Y-88601900D01*
X152480586Y-88601900D01*
X152547625Y-88621585D01*
X152579539Y-88651173D01*
X152670573Y-88771722D01*
X152670576Y-88771724D01*
X152670578Y-88771727D01*
X152794944Y-88885101D01*
X152831226Y-88944812D01*
X152829465Y-89014659D01*
X152794944Y-89068375D01*
X152670945Y-89181413D01*
X152539715Y-89355191D01*
X152442651Y-89550119D01*
X152392494Y-89726399D01*
X152392495Y-89726400D01*
X153227314Y-89726400D01*
X153215359Y-89738355D01*
X153157835Y-89851252D01*
X153138014Y-89976400D01*
X153157835Y-90101548D01*
X153215359Y-90214445D01*
X153227314Y-90226400D01*
X152392495Y-90226400D01*
X152442651Y-90402680D01*
X152539715Y-90597608D01*
X152670943Y-90771382D01*
X152794944Y-90884423D01*
X152831225Y-90944134D01*
X152829465Y-91013982D01*
X152794944Y-91067698D01*
X152670574Y-91181075D01*
X152539288Y-91354927D01*
X152442184Y-91549937D01*
X152382564Y-91759481D01*
X152362464Y-91976399D01*
X152362464Y-91976400D01*
X152382564Y-92193318D01*
X152382564Y-92193320D01*
X152382565Y-92193323D01*
X152423560Y-92337406D01*
X152442184Y-92402862D01*
X152539288Y-92597872D01*
X152670574Y-92771724D01*
X152794572Y-92884763D01*
X152830854Y-92944474D01*
X152829093Y-93014322D01*
X152794572Y-93068037D01*
X152670574Y-93181075D01*
X152539288Y-93354927D01*
X152442184Y-93549937D01*
X152382564Y-93759481D01*
X152362464Y-93976399D01*
X152362464Y-93976400D01*
X152382564Y-94193318D01*
X152382564Y-94193320D01*
X152382565Y-94193323D01*
X152432390Y-94368441D01*
X152442184Y-94402862D01*
X152539288Y-94597872D01*
X152670574Y-94771724D01*
X152794572Y-94884763D01*
X152830854Y-94944474D01*
X152829093Y-95014322D01*
X152794572Y-95068037D01*
X152670574Y-95181075D01*
X152539288Y-95354927D01*
X152442184Y-95549937D01*
X152382564Y-95759481D01*
X152362464Y-95976399D01*
X152362464Y-95976400D01*
X152382564Y-96193318D01*
X152442184Y-96402862D01*
X152539288Y-96597872D01*
X152670574Y-96771724D01*
X152794572Y-96884763D01*
X152830854Y-96944474D01*
X152829093Y-97014322D01*
X152794572Y-97068037D01*
X152670574Y-97181075D01*
X152539288Y-97354927D01*
X152442184Y-97549937D01*
X152382564Y-97759481D01*
X152362464Y-97976399D01*
X152362464Y-97976400D01*
X152382564Y-98193318D01*
X152382564Y-98193320D01*
X152382565Y-98193323D01*
X152435276Y-98378582D01*
X152442184Y-98402862D01*
X152539288Y-98597872D01*
X152670574Y-98771724D01*
X152794572Y-98884763D01*
X152830854Y-98944474D01*
X152829093Y-99014322D01*
X152794572Y-99068037D01*
X152670574Y-99181075D01*
X152539288Y-99354927D01*
X152442184Y-99549937D01*
X152382564Y-99759481D01*
X152362464Y-99976399D01*
X152362464Y-99976400D01*
X152382564Y-100193318D01*
X152382564Y-100193320D01*
X152382565Y-100193323D01*
X152399538Y-100252976D01*
X152442184Y-100402862D01*
X152539288Y-100597872D01*
X152670574Y-100771724D01*
X152794572Y-100884763D01*
X152830854Y-100944474D01*
X152829093Y-101014322D01*
X152794572Y-101068037D01*
X152670574Y-101181075D01*
X152539288Y-101354927D01*
X152442184Y-101549937D01*
X152382564Y-101759481D01*
X152362464Y-101976399D01*
X152362464Y-101976400D01*
X152382564Y-102193318D01*
X152382564Y-102193320D01*
X152382565Y-102193323D01*
X152440754Y-102397837D01*
X152442184Y-102402862D01*
X152539288Y-102597872D01*
X152670574Y-102771724D01*
X152794572Y-102884763D01*
X152830854Y-102944474D01*
X152829093Y-103014322D01*
X152794572Y-103068037D01*
X152670574Y-103181075D01*
X152539288Y-103354927D01*
X152442184Y-103549937D01*
X152382564Y-103759481D01*
X152362464Y-103976399D01*
X152362464Y-103976400D01*
X152382564Y-104193318D01*
X152382564Y-104193320D01*
X152382565Y-104193323D01*
X152440754Y-104397837D01*
X152442184Y-104402862D01*
X152539288Y-104597872D01*
X152670574Y-104771724D01*
X152794572Y-104884763D01*
X152830854Y-104944474D01*
X152829093Y-105014322D01*
X152794572Y-105068037D01*
X152670574Y-105181075D01*
X152539288Y-105354927D01*
X152442184Y-105549937D01*
X152426745Y-105604200D01*
X152384067Y-105754200D01*
X152382564Y-105759481D01*
X152362464Y-105976399D01*
X152362464Y-105976400D01*
X152382564Y-106193318D01*
X152382564Y-106193320D01*
X152382565Y-106193323D01*
X152440754Y-106397837D01*
X152442184Y-106402862D01*
X152539288Y-106597872D01*
X152670574Y-106771724D01*
X152794572Y-106884763D01*
X152830854Y-106944474D01*
X152829093Y-107014322D01*
X152794572Y-107068037D01*
X152670574Y-107181075D01*
X152539288Y-107354927D01*
X152442184Y-107549937D01*
X152382564Y-107759481D01*
X152362464Y-107976399D01*
X152362464Y-107976400D01*
X152382564Y-108193318D01*
X152382564Y-108193320D01*
X152382565Y-108193323D01*
X152433531Y-108372451D01*
X152442184Y-108402862D01*
X152539288Y-108597872D01*
X152670574Y-108771724D01*
X152794572Y-108884763D01*
X152830854Y-108944474D01*
X152829093Y-109014322D01*
X152794572Y-109068037D01*
X152670574Y-109181075D01*
X152539288Y-109354927D01*
X152442184Y-109549937D01*
X152382564Y-109759481D01*
X152362464Y-109976399D01*
X152362464Y-109976400D01*
X152382564Y-110193318D01*
X152382564Y-110193320D01*
X152382565Y-110193323D01*
X152390475Y-110221123D01*
X152442184Y-110402862D01*
X152539288Y-110597872D01*
X152670574Y-110771724D01*
X152794572Y-110884763D01*
X152830854Y-110944474D01*
X152829093Y-111014322D01*
X152794572Y-111068037D01*
X152670574Y-111181075D01*
X152539288Y-111354927D01*
X152442184Y-111549937D01*
X152382564Y-111759481D01*
X152362464Y-111976399D01*
X152362464Y-111976400D01*
X152382564Y-112193318D01*
X152382564Y-112193320D01*
X152382565Y-112193323D01*
X152390475Y-112221123D01*
X152442184Y-112402862D01*
X152539288Y-112597872D01*
X152670574Y-112771724D01*
X152794572Y-112884763D01*
X152830854Y-112944474D01*
X152829093Y-113014322D01*
X152794572Y-113068037D01*
X152670574Y-113181075D01*
X152539288Y-113354927D01*
X152442184Y-113549937D01*
X152382564Y-113759481D01*
X152362464Y-113976399D01*
X152362464Y-113976400D01*
X152382564Y-114193318D01*
X152382564Y-114193320D01*
X152382565Y-114193323D01*
X152390475Y-114221123D01*
X152442184Y-114402862D01*
X152539288Y-114597872D01*
X152670574Y-114771724D01*
X152794572Y-114884763D01*
X152830854Y-114944474D01*
X152829093Y-115014322D01*
X152794572Y-115068037D01*
X152670574Y-115181075D01*
X152539288Y-115354927D01*
X152442184Y-115549937D01*
X152382564Y-115759481D01*
X152362464Y-115976399D01*
X152362464Y-115976400D01*
X152382564Y-116193318D01*
X152382564Y-116193320D01*
X152382565Y-116193323D01*
X152436825Y-116384027D01*
X152442184Y-116402862D01*
X152539288Y-116597872D01*
X152670574Y-116771724D01*
X152794572Y-116884763D01*
X152830854Y-116944474D01*
X152829093Y-117014322D01*
X152794572Y-117068037D01*
X152670574Y-117181075D01*
X152539288Y-117354927D01*
X152442184Y-117549937D01*
X152382564Y-117759481D01*
X152362464Y-117976399D01*
X152362464Y-117976400D01*
X152382564Y-118193318D01*
X152382564Y-118193320D01*
X152382565Y-118193323D01*
X152401337Y-118259300D01*
X152442184Y-118402862D01*
X152539288Y-118597872D01*
X152670574Y-118771724D01*
X152794572Y-118884763D01*
X152830854Y-118944474D01*
X152829093Y-119014322D01*
X152794572Y-119068037D01*
X152670574Y-119181075D01*
X152539288Y-119354927D01*
X152442184Y-119549937D01*
X152382564Y-119759481D01*
X152362464Y-119976399D01*
X152362464Y-119976400D01*
X152382564Y-120193318D01*
X152382564Y-120193320D01*
X152382565Y-120193323D01*
X152442183Y-120402859D01*
X152442184Y-120402862D01*
X152539288Y-120597872D01*
X152670574Y-120771724D01*
X152794572Y-120884763D01*
X152830854Y-120944474D01*
X152829093Y-121014322D01*
X152794572Y-121068037D01*
X152670574Y-121181075D01*
X152539288Y-121354927D01*
X152442184Y-121549937D01*
X152382564Y-121759481D01*
X152362464Y-121976399D01*
X152362464Y-121976400D01*
X152382564Y-122193318D01*
X152382564Y-122193320D01*
X152382565Y-122193323D01*
X152403223Y-122265927D01*
X152442184Y-122402862D01*
X152539288Y-122597872D01*
X152670574Y-122771724D01*
X152794572Y-122884763D01*
X152830854Y-122944474D01*
X152829093Y-123014322D01*
X152794572Y-123068037D01*
X152670574Y-123181075D01*
X152539288Y-123354927D01*
X152442184Y-123549937D01*
X152382564Y-123759481D01*
X152362464Y-123976399D01*
X152362464Y-123976400D01*
X152382564Y-124193318D01*
X152382564Y-124193320D01*
X152382565Y-124193323D01*
X152424318Y-124340069D01*
X152442184Y-124402862D01*
X152483974Y-124486787D01*
X152539288Y-124597872D01*
X152670573Y-124771722D01*
X152831568Y-124918488D01*
X152831575Y-124918492D01*
X152831576Y-124918493D01*
X153016786Y-125033170D01*
X153016792Y-125033173D01*
X153039664Y-125042033D01*
X153219931Y-125111870D01*
X153434074Y-125151900D01*
X153434076Y-125151900D01*
X153651924Y-125151900D01*
X153651926Y-125151900D01*
X153866069Y-125111870D01*
X154069210Y-125033172D01*
X154254432Y-124918488D01*
X154415427Y-124771722D01*
X154546712Y-124597872D01*
X154643817Y-124402859D01*
X154703435Y-124193323D01*
X154723536Y-123976400D01*
X154703435Y-123759477D01*
X154643817Y-123549941D01*
X154546712Y-123354928D01*
X154415427Y-123181078D01*
X154291423Y-123068034D01*
X154255145Y-123008327D01*
X154256905Y-122938479D01*
X154291423Y-122884765D01*
X154415427Y-122771722D01*
X154546712Y-122597872D01*
X154643817Y-122402859D01*
X154703435Y-122193323D01*
X154723536Y-121976400D01*
X154703435Y-121759477D01*
X154643817Y-121549941D01*
X154546712Y-121354928D01*
X154415427Y-121181078D01*
X154291423Y-121068034D01*
X154255145Y-121008327D01*
X154256905Y-120938479D01*
X154291423Y-120884765D01*
X154415427Y-120771722D01*
X154546712Y-120597872D01*
X154643817Y-120402859D01*
X154703435Y-120193323D01*
X154723536Y-119976400D01*
X154703435Y-119759477D01*
X154643817Y-119549941D01*
X154546712Y-119354928D01*
X154415427Y-119181078D01*
X154291423Y-119068034D01*
X154255145Y-119008327D01*
X154256905Y-118938479D01*
X154291423Y-118884765D01*
X154415427Y-118771722D01*
X154546712Y-118597872D01*
X154643817Y-118402859D01*
X154703435Y-118193323D01*
X154723536Y-117976400D01*
X154703435Y-117759477D01*
X154643817Y-117549941D01*
X154546712Y-117354928D01*
X154415427Y-117181078D01*
X154291423Y-117068034D01*
X154255145Y-117008327D01*
X154256905Y-116938479D01*
X154291423Y-116884765D01*
X154415427Y-116771722D01*
X154546712Y-116597872D01*
X154643817Y-116402859D01*
X154703435Y-116193323D01*
X154723536Y-115976400D01*
X154703435Y-115759477D01*
X154643817Y-115549941D01*
X154546712Y-115354928D01*
X154415427Y-115181078D01*
X154291423Y-115068034D01*
X154255145Y-115008327D01*
X154256905Y-114938479D01*
X154291423Y-114884765D01*
X154415427Y-114771722D01*
X154546712Y-114597872D01*
X154643817Y-114402859D01*
X154703435Y-114193323D01*
X154723536Y-113976400D01*
X154703435Y-113759477D01*
X154643817Y-113549941D01*
X154546712Y-113354928D01*
X154415427Y-113181078D01*
X154291423Y-113068034D01*
X154255145Y-113008327D01*
X154256905Y-112938479D01*
X154291423Y-112884765D01*
X154415427Y-112771722D01*
X154546712Y-112597872D01*
X154643817Y-112402859D01*
X154703435Y-112193323D01*
X154723536Y-111976400D01*
X154703435Y-111759477D01*
X154643817Y-111549941D01*
X154546712Y-111354928D01*
X154415427Y-111181078D01*
X154291423Y-111068034D01*
X154255145Y-111008327D01*
X154256905Y-110938479D01*
X154291423Y-110884765D01*
X154415427Y-110771722D01*
X154506460Y-110651173D01*
X154562568Y-110609537D01*
X154605414Y-110601900D01*
X167663789Y-110601900D01*
X167730828Y-110621585D01*
X167776583Y-110674389D01*
X167786527Y-110743547D01*
X167757502Y-110807103D01*
X167708585Y-110841525D01*
X167596979Y-110884762D01*
X167558801Y-110899552D01*
X167558795Y-110899554D01*
X167369639Y-111016674D01*
X167369637Y-111016676D01*
X167205220Y-111166561D01*
X167101412Y-111304027D01*
X167045303Y-111345663D01*
X167002458Y-111353300D01*
X165588143Y-111353300D01*
X165572522Y-111351575D01*
X165572495Y-111351861D01*
X165564733Y-111351126D01*
X165497513Y-111353239D01*
X165493619Y-111353300D01*
X165466050Y-111353300D01*
X165462073Y-111353802D01*
X165450442Y-111354717D01*
X165406774Y-111356089D01*
X165406768Y-111356090D01*
X165387526Y-111361680D01*
X165368487Y-111365623D01*
X165348617Y-111368134D01*
X165348603Y-111368137D01*
X165307998Y-111384213D01*
X165296954Y-111387994D01*
X165255014Y-111400179D01*
X165255010Y-111400181D01*
X165237766Y-111410379D01*
X165220305Y-111418933D01*
X165201674Y-111426310D01*
X165201662Y-111426317D01*
X165166333Y-111451985D01*
X165156573Y-111458396D01*
X165118980Y-111480629D01*
X165104814Y-111494795D01*
X165090024Y-111507427D01*
X165073814Y-111519204D01*
X165073811Y-111519207D01*
X165045973Y-111552858D01*
X165038111Y-111561497D01*
X160068008Y-116531599D01*
X160055751Y-116541420D01*
X160055934Y-116541641D01*
X160049922Y-116546614D01*
X160003898Y-116595623D01*
X160001191Y-116598416D01*
X159981689Y-116617917D01*
X159981675Y-116617934D01*
X159979207Y-116621115D01*
X159971643Y-116629970D01*
X159941737Y-116661818D01*
X159941736Y-116661820D01*
X159932084Y-116679376D01*
X159921410Y-116695626D01*
X159909129Y-116711461D01*
X159909124Y-116711468D01*
X159891775Y-116751558D01*
X159886638Y-116762044D01*
X159865603Y-116800306D01*
X159860622Y-116819707D01*
X159854321Y-116838110D01*
X159846362Y-116856502D01*
X159846361Y-116856505D01*
X159839528Y-116899643D01*
X159837160Y-116911074D01*
X159826301Y-116953371D01*
X159826300Y-116953382D01*
X159826300Y-116973416D01*
X159824773Y-116992815D01*
X159821640Y-117012594D01*
X159821640Y-117012595D01*
X159825750Y-117056074D01*
X159826300Y-117067743D01*
X159826300Y-122623200D01*
X159806615Y-122690239D01*
X159753811Y-122735994D01*
X159702301Y-122747200D01*
X159603930Y-122747200D01*
X159603923Y-122747201D01*
X159544316Y-122753608D01*
X159409471Y-122803902D01*
X159409464Y-122803906D01*
X159294255Y-122890152D01*
X159294252Y-122890155D01*
X159208006Y-123005364D01*
X159208002Y-123005371D01*
X159157708Y-123140217D01*
X159152820Y-123185689D01*
X159151301Y-123199823D01*
X159151300Y-123199835D01*
X159151300Y-124895570D01*
X159151301Y-124895576D01*
X159157708Y-124955183D01*
X159208002Y-125090028D01*
X159208006Y-125090035D01*
X159294252Y-125205244D01*
X159294255Y-125205247D01*
X159409464Y-125291493D01*
X159409471Y-125291497D01*
X159544317Y-125341791D01*
X159544316Y-125341791D01*
X159551244Y-125342535D01*
X159603927Y-125348200D01*
X161299672Y-125348199D01*
X161359283Y-125341791D01*
X161494131Y-125291496D01*
X161609346Y-125205246D01*
X161695596Y-125090031D01*
X161745891Y-124955183D01*
X161752300Y-124895573D01*
X161752299Y-123199828D01*
X161745891Y-123140217D01*
X161711367Y-123047654D01*
X161695597Y-123005371D01*
X161695593Y-123005364D01*
X161609347Y-122890155D01*
X161609344Y-122890152D01*
X161494135Y-122803906D01*
X161494128Y-122803902D01*
X161359282Y-122753608D01*
X161359283Y-122753608D01*
X161299683Y-122747201D01*
X161299681Y-122747200D01*
X161299673Y-122747200D01*
X161299665Y-122747200D01*
X161201300Y-122747200D01*
X161134261Y-122727515D01*
X161088506Y-122674711D01*
X161077300Y-122623200D01*
X161077300Y-117342852D01*
X161096985Y-117275813D01*
X161113619Y-117255171D01*
X165728171Y-112640619D01*
X165789494Y-112607134D01*
X165815852Y-112604300D01*
X167002458Y-112604300D01*
X167069497Y-112623985D01*
X167101412Y-112653573D01*
X167205220Y-112791038D01*
X167369637Y-112940923D01*
X167369639Y-112940925D01*
X167558795Y-113058045D01*
X167558796Y-113058045D01*
X167558799Y-113058047D01*
X167766260Y-113138418D01*
X167984957Y-113179300D01*
X167984959Y-113179300D01*
X168207441Y-113179300D01*
X168207443Y-113179300D01*
X168426140Y-113138418D01*
X168633601Y-113058047D01*
X168822762Y-112940924D01*
X168987181Y-112791036D01*
X169051630Y-112705690D01*
X169071807Y-112678973D01*
X169127916Y-112637337D01*
X169170761Y-112629700D01*
X176380986Y-112629700D01*
X176448025Y-112649385D01*
X176479939Y-112678973D01*
X176570973Y-112799522D01*
X176570976Y-112799525D01*
X176570979Y-112799528D01*
X176694972Y-112912563D01*
X176731254Y-112972274D01*
X176729493Y-113042122D01*
X176694972Y-113095837D01*
X176570979Y-113208871D01*
X176570971Y-113208880D01*
X176479940Y-113329426D01*
X176423832Y-113371063D01*
X176380986Y-113378700D01*
X173951343Y-113378700D01*
X173935722Y-113376975D01*
X173935695Y-113377261D01*
X173927933Y-113376526D01*
X173860713Y-113378639D01*
X173856819Y-113378700D01*
X173829250Y-113378700D01*
X173825273Y-113379202D01*
X173813642Y-113380117D01*
X173769974Y-113381489D01*
X173769968Y-113381490D01*
X173750726Y-113387080D01*
X173731687Y-113391023D01*
X173711817Y-113393534D01*
X173711803Y-113393537D01*
X173671198Y-113409613D01*
X173660154Y-113413394D01*
X173618214Y-113425579D01*
X173618210Y-113425581D01*
X173600966Y-113435779D01*
X173583505Y-113444333D01*
X173564874Y-113451710D01*
X173564862Y-113451717D01*
X173529533Y-113477385D01*
X173519773Y-113483796D01*
X173482180Y-113506029D01*
X173468014Y-113520195D01*
X173453224Y-113532827D01*
X173437014Y-113544604D01*
X173437011Y-113544607D01*
X173409173Y-113578258D01*
X173401311Y-113586897D01*
X170591228Y-116396981D01*
X170529905Y-116430466D01*
X170503547Y-116433300D01*
X169189942Y-116433300D01*
X169122903Y-116413615D01*
X169090988Y-116384027D01*
X168987179Y-116246561D01*
X168822762Y-116096676D01*
X168822760Y-116096674D01*
X168633604Y-115979554D01*
X168633598Y-115979552D01*
X168625462Y-115976400D01*
X168426140Y-115899182D01*
X168207443Y-115858300D01*
X167984957Y-115858300D01*
X167766260Y-115899182D01*
X167635064Y-115950007D01*
X167558801Y-115979552D01*
X167558795Y-115979554D01*
X167369639Y-116096674D01*
X167369637Y-116096676D01*
X167205220Y-116246561D01*
X167101412Y-116384027D01*
X167045303Y-116425663D01*
X167002458Y-116433300D01*
X166284743Y-116433300D01*
X166269122Y-116431575D01*
X166269096Y-116431861D01*
X166261334Y-116431127D01*
X166261333Y-116431127D01*
X166199109Y-116433082D01*
X166194127Y-116433239D01*
X166190232Y-116433300D01*
X166162647Y-116433300D01*
X166158661Y-116433803D01*
X166147033Y-116434718D01*
X166103373Y-116436090D01*
X166084129Y-116441681D01*
X166065079Y-116445625D01*
X166045211Y-116448134D01*
X166045210Y-116448134D01*
X166004599Y-116464213D01*
X165993554Y-116467994D01*
X165951614Y-116480179D01*
X165951610Y-116480181D01*
X165934366Y-116490379D01*
X165916905Y-116498933D01*
X165898274Y-116506310D01*
X165898262Y-116506317D01*
X165862933Y-116531985D01*
X165853173Y-116538396D01*
X165815580Y-116560629D01*
X165801414Y-116574795D01*
X165786624Y-116587427D01*
X165770414Y-116599204D01*
X165770411Y-116599207D01*
X165742573Y-116632858D01*
X165734711Y-116641497D01*
X165122608Y-117253599D01*
X165110351Y-117263420D01*
X165110534Y-117263641D01*
X165104522Y-117268614D01*
X165058498Y-117317623D01*
X165055791Y-117320416D01*
X165036289Y-117339917D01*
X165036275Y-117339934D01*
X165033807Y-117343115D01*
X165026243Y-117351970D01*
X164996337Y-117383818D01*
X164996336Y-117383820D01*
X164986684Y-117401376D01*
X164976010Y-117417626D01*
X164963729Y-117433461D01*
X164963724Y-117433468D01*
X164946375Y-117473558D01*
X164941238Y-117484044D01*
X164920203Y-117522306D01*
X164915222Y-117541707D01*
X164908921Y-117560110D01*
X164900962Y-117578502D01*
X164900961Y-117578505D01*
X164894128Y-117621643D01*
X164891760Y-117633074D01*
X164880901Y-117675371D01*
X164880900Y-117675382D01*
X164880900Y-117695416D01*
X164879373Y-117714815D01*
X164876240Y-117734594D01*
X164876240Y-117734595D01*
X164880350Y-117778074D01*
X164880900Y-117789743D01*
X164880900Y-122851297D01*
X164861215Y-122918336D01*
X164828023Y-122952872D01*
X164692658Y-123047654D01*
X164531754Y-123208558D01*
X164401232Y-123394965D01*
X164401231Y-123394967D01*
X164305061Y-123601202D01*
X164305058Y-123601211D01*
X164246166Y-123821002D01*
X164246164Y-123821013D01*
X164226332Y-124047698D01*
X164226332Y-124047701D01*
X164246164Y-124274386D01*
X164246166Y-124274397D01*
X164305058Y-124494188D01*
X164305061Y-124494197D01*
X164401231Y-124700432D01*
X164401232Y-124700434D01*
X164531754Y-124886841D01*
X164692658Y-125047745D01*
X164692661Y-125047747D01*
X164879066Y-125178268D01*
X165085304Y-125274439D01*
X165305108Y-125333335D01*
X165467030Y-125347501D01*
X165531798Y-125353168D01*
X165531800Y-125353168D01*
X165531802Y-125353168D01*
X165588607Y-125348198D01*
X165758492Y-125333335D01*
X165978296Y-125274439D01*
X166184534Y-125178268D01*
X166370939Y-125047747D01*
X166531847Y-124886839D01*
X166662368Y-124700434D01*
X166758539Y-124494196D01*
X166817435Y-124274392D01*
X166837268Y-124047700D01*
X166817435Y-123821008D01*
X166758539Y-123601204D01*
X166662368Y-123394966D01*
X166531847Y-123208561D01*
X166531845Y-123208558D01*
X166370941Y-123047654D01*
X166184777Y-122917302D01*
X166141152Y-122862726D01*
X166131900Y-122815727D01*
X166131900Y-118064852D01*
X166151585Y-117997813D01*
X166168219Y-117977171D01*
X166424772Y-117720619D01*
X166486095Y-117687134D01*
X166512453Y-117684300D01*
X167002458Y-117684300D01*
X167069497Y-117703985D01*
X167101412Y-117733573D01*
X167205220Y-117871038D01*
X167369637Y-118020923D01*
X167369639Y-118020925D01*
X167558795Y-118138045D01*
X167558796Y-118138045D01*
X167558799Y-118138047D01*
X167766260Y-118218418D01*
X167984957Y-118259300D01*
X167984959Y-118259300D01*
X168207441Y-118259300D01*
X168207443Y-118259300D01*
X168426140Y-118218418D01*
X168633601Y-118138047D01*
X168822762Y-118020924D01*
X168987181Y-117871036D01*
X169090988Y-117733572D01*
X169147097Y-117691937D01*
X169189942Y-117684300D01*
X170731257Y-117684300D01*
X170746877Y-117686024D01*
X170746904Y-117685739D01*
X170754660Y-117686471D01*
X170754667Y-117686473D01*
X170821873Y-117684361D01*
X170825768Y-117684300D01*
X170853346Y-117684300D01*
X170853350Y-117684300D01*
X170857324Y-117683797D01*
X170868963Y-117682880D01*
X170912627Y-117681509D01*
X170931869Y-117675917D01*
X170950912Y-117671974D01*
X170970792Y-117669464D01*
X171011401Y-117653385D01*
X171022444Y-117649603D01*
X171064390Y-117637418D01*
X171081629Y-117627222D01*
X171099103Y-117618662D01*
X171117727Y-117611288D01*
X171117727Y-117611287D01*
X171117732Y-117611286D01*
X171153083Y-117585600D01*
X171162814Y-117579208D01*
X171200420Y-117556970D01*
X171214589Y-117542799D01*
X171229379Y-117530168D01*
X171245587Y-117518394D01*
X171273438Y-117484726D01*
X171281279Y-117476109D01*
X174091371Y-114666019D01*
X174152694Y-114632534D01*
X174179052Y-114629700D01*
X176380986Y-114629700D01*
X176448025Y-114649385D01*
X176479939Y-114678973D01*
X176570973Y-114799522D01*
X176731968Y-114946288D01*
X176731975Y-114946292D01*
X176731976Y-114946293D01*
X176917186Y-115060970D01*
X176917192Y-115060973D01*
X176935427Y-115068037D01*
X177120331Y-115139670D01*
X177334474Y-115179700D01*
X177334476Y-115179700D01*
X177552324Y-115179700D01*
X177552326Y-115179700D01*
X177766469Y-115139670D01*
X177969610Y-115060972D01*
X178154832Y-114946288D01*
X178315827Y-114799522D01*
X178447112Y-114625672D01*
X178544217Y-114430659D01*
X178603835Y-114221123D01*
X178623936Y-114004200D01*
X178603835Y-113787277D01*
X178544217Y-113577741D01*
X178447112Y-113382728D01*
X178315827Y-113208878D01*
X178191823Y-113095834D01*
X178155545Y-113036127D01*
X178157305Y-112966279D01*
X178191823Y-112912565D01*
X178315827Y-112799522D01*
X178447112Y-112625672D01*
X178544217Y-112430659D01*
X178603835Y-112221123D01*
X178623936Y-112004200D01*
X178603835Y-111787277D01*
X178544217Y-111577741D01*
X178447112Y-111382728D01*
X178315827Y-111208878D01*
X178191823Y-111095834D01*
X178155545Y-111036127D01*
X178157305Y-110966279D01*
X178191823Y-110912565D01*
X178315827Y-110799522D01*
X178447112Y-110625672D01*
X178544217Y-110430659D01*
X178603835Y-110221123D01*
X178623936Y-110004200D01*
X178603835Y-109787277D01*
X178544217Y-109577741D01*
X178447112Y-109382728D01*
X178315827Y-109208878D01*
X178191823Y-109095834D01*
X178155545Y-109036127D01*
X178157305Y-108966279D01*
X178191823Y-108912565D01*
X178315827Y-108799522D01*
X178447112Y-108625672D01*
X178544217Y-108430659D01*
X178603835Y-108221123D01*
X178623936Y-108004200D01*
X178603835Y-107787277D01*
X178544217Y-107577741D01*
X178447112Y-107382728D01*
X178315827Y-107208878D01*
X178315825Y-107208875D01*
X178191455Y-107095498D01*
X178155173Y-107035787D01*
X178156934Y-106965940D01*
X178191456Y-106912223D01*
X178315454Y-106799185D01*
X178446684Y-106625408D01*
X178543748Y-106430480D01*
X178593905Y-106254200D01*
X177759086Y-106254200D01*
X177771041Y-106242245D01*
X177828565Y-106129348D01*
X177848386Y-106004200D01*
X177828565Y-105879052D01*
X177771041Y-105766155D01*
X177759086Y-105754200D01*
X178593905Y-105754200D01*
X178593905Y-105754199D01*
X178543748Y-105577919D01*
X178446684Y-105382991D01*
X178365252Y-105275157D01*
X178340560Y-105209795D01*
X178355125Y-105141461D01*
X178389893Y-105101165D01*
X178475946Y-105036746D01*
X178562196Y-104921531D01*
X178612491Y-104786683D01*
X178618900Y-104727073D01*
X178618899Y-103281328D01*
X178612491Y-103221717D01*
X178597334Y-103181080D01*
X178562197Y-103086871D01*
X178562193Y-103086864D01*
X178475947Y-102971655D01*
X178475944Y-102971652D01*
X178360735Y-102885406D01*
X178360728Y-102885402D01*
X178225883Y-102835108D01*
X178179643Y-102830137D01*
X178115093Y-102803399D01*
X178075245Y-102746006D01*
X178068900Y-102706848D01*
X178068900Y-95855452D01*
X178088585Y-95788413D01*
X178105219Y-95767771D01*
X189456019Y-84416971D01*
X200863138Y-73009851D01*
X200877923Y-72997223D01*
X200891633Y-72987262D01*
X200898038Y-72982910D01*
X200944877Y-72953186D01*
X200950466Y-72947233D01*
X200967979Y-72931794D01*
X200974587Y-72926994D01*
X201009954Y-72884240D01*
X201015078Y-72878429D01*
X201053062Y-72837982D01*
X201056998Y-72830821D01*
X201070119Y-72811514D01*
X201075324Y-72805223D01*
X201076577Y-72802560D01*
X201098939Y-72755038D01*
X201102467Y-72748111D01*
X201129197Y-72699492D01*
X201131227Y-72691581D01*
X201139135Y-72669618D01*
X201142614Y-72662226D01*
X201153010Y-72607725D01*
X201154697Y-72600175D01*
X201168500Y-72546419D01*
X201168500Y-72538244D01*
X201170697Y-72515006D01*
X201172227Y-72506986D01*
X201168745Y-72451641D01*
X201168500Y-72443855D01*
X201168500Y-70273751D01*
X201188185Y-70206712D01*
X201240989Y-70160957D01*
X201279247Y-70150461D01*
X201325483Y-70145491D01*
X201460331Y-70095196D01*
X201575546Y-70008946D01*
X201661796Y-69893731D01*
X201712091Y-69758883D01*
X201718500Y-69699273D01*
X201718499Y-68253528D01*
X201712091Y-68193917D01*
X201707302Y-68181078D01*
X201661797Y-68059071D01*
X201661793Y-68059064D01*
X201575547Y-67943855D01*
X201575544Y-67943852D01*
X201460335Y-67857606D01*
X201460328Y-67857602D01*
X201325483Y-67807308D01*
X201279243Y-67802337D01*
X201214693Y-67775599D01*
X201174845Y-67718206D01*
X201168500Y-67679048D01*
X201168500Y-67089142D01*
X201170224Y-67073522D01*
X201169939Y-67073496D01*
X201170671Y-67065740D01*
X201170673Y-67065733D01*
X201168561Y-66998526D01*
X201168500Y-66994631D01*
X201168500Y-66967054D01*
X201168500Y-66967050D01*
X201167996Y-66963065D01*
X201167080Y-66951421D01*
X201166640Y-66937421D01*
X201165709Y-66907773D01*
X201160122Y-66888544D01*
X201156174Y-66869484D01*
X201153663Y-66849604D01*
X201137588Y-66809004D01*
X201133804Y-66797952D01*
X201121618Y-66756009D01*
X201121616Y-66756006D01*
X201111423Y-66738771D01*
X201102861Y-66721294D01*
X201095487Y-66702669D01*
X201069816Y-66667337D01*
X201063405Y-66657577D01*
X201041170Y-66619980D01*
X201041168Y-66619978D01*
X201041165Y-66619974D01*
X201027006Y-66605815D01*
X201014368Y-66591019D01*
X201009933Y-66584915D01*
X201002594Y-66574813D01*
X200985668Y-66560811D01*
X200968940Y-66546972D01*
X200960299Y-66539109D01*
X199534203Y-65113012D01*
X199524380Y-65100750D01*
X199524159Y-65100934D01*
X199519186Y-65094922D01*
X199470176Y-65048899D01*
X199467377Y-65046186D01*
X199447877Y-65026685D01*
X199447871Y-65026680D01*
X199444686Y-65024209D01*
X199435834Y-65016648D01*
X199403982Y-64986738D01*
X199403980Y-64986736D01*
X199403977Y-64986735D01*
X199386429Y-64977088D01*
X199370163Y-64966404D01*
X199354332Y-64954124D01*
X199314249Y-64936778D01*
X199303763Y-64931641D01*
X199265494Y-64910603D01*
X199265492Y-64910602D01*
X199246093Y-64905622D01*
X199227681Y-64899318D01*
X199209298Y-64891362D01*
X199209292Y-64891360D01*
X199166160Y-64884529D01*
X199154722Y-64882161D01*
X199112420Y-64871300D01*
X199112419Y-64871300D01*
X199092384Y-64871300D01*
X199072986Y-64869773D01*
X199065562Y-64868597D01*
X199053205Y-64866640D01*
X199053204Y-64866640D01*
X199009725Y-64870750D01*
X198998056Y-64871300D01*
X184106384Y-64871300D01*
X184086986Y-64869773D01*
X184079562Y-64868597D01*
X184067205Y-64866640D01*
X184067204Y-64866640D01*
X184023725Y-64870750D01*
X184012056Y-64871300D01*
X167122384Y-64871300D01*
X167102986Y-64869773D01*
X167095562Y-64868597D01*
X167083205Y-64866640D01*
X167083204Y-64866640D01*
X167039725Y-64870750D01*
X167028056Y-64871300D01*
X154921784Y-64871300D01*
X154902386Y-64869773D01*
X154894962Y-64868597D01*
X154882605Y-64866640D01*
X154882604Y-64866640D01*
X154839125Y-64870750D01*
X154827456Y-64871300D01*
X140492937Y-64871300D01*
X140477320Y-64869576D01*
X140477293Y-64869862D01*
X140469531Y-64869127D01*
X140402344Y-64871239D01*
X140398450Y-64871300D01*
X140370850Y-64871300D01*
X140367162Y-64871765D01*
X140366849Y-64871805D01*
X140355231Y-64872718D01*
X140311577Y-64874090D01*
X140311567Y-64874092D01*
X140292334Y-64879679D01*
X140273294Y-64883622D01*
X140253417Y-64886134D01*
X140253410Y-64886135D01*
X140253408Y-64886136D01*
X140253406Y-64886136D01*
X140253405Y-64886137D01*
X140212784Y-64902219D01*
X140201737Y-64906001D01*
X140159811Y-64918182D01*
X140159808Y-64918183D01*
X140142563Y-64928381D01*
X140125101Y-64936935D01*
X140106472Y-64944311D01*
X140106467Y-64944314D01*
X140071126Y-64969989D01*
X140061368Y-64976399D01*
X140023780Y-64998628D01*
X140009608Y-65012800D01*
X139994823Y-65025428D01*
X139978612Y-65037207D01*
X139950771Y-65070859D01*
X139942911Y-65079496D01*
X134701028Y-70321381D01*
X134639705Y-70354866D01*
X134613347Y-70357700D01*
X120022184Y-70357700D01*
X120002786Y-70356173D01*
X119994533Y-70354866D01*
X119983005Y-70353040D01*
X119983004Y-70353040D01*
X119939525Y-70357150D01*
X119927856Y-70357700D01*
X104959984Y-70357700D01*
X104940586Y-70356173D01*
X104932333Y-70354866D01*
X104920805Y-70353040D01*
X104920804Y-70353040D01*
X104877325Y-70357150D01*
X104865656Y-70357700D01*
X92690143Y-70357700D01*
X92674522Y-70355975D01*
X92674496Y-70356261D01*
X92666734Y-70355527D01*
X92666733Y-70355527D01*
X92615088Y-70357150D01*
X92599527Y-70357639D01*
X92595632Y-70357700D01*
X92568047Y-70357700D01*
X92564061Y-70358203D01*
X92552433Y-70359118D01*
X92508773Y-70360490D01*
X92489529Y-70366081D01*
X92470479Y-70370025D01*
X92450611Y-70372534D01*
X92450610Y-70372534D01*
X92409999Y-70388613D01*
X92398954Y-70392394D01*
X92357014Y-70404579D01*
X92357010Y-70404581D01*
X92339766Y-70414779D01*
X92322305Y-70423333D01*
X92303674Y-70430710D01*
X92303662Y-70430717D01*
X92268333Y-70456385D01*
X92258573Y-70462796D01*
X92220980Y-70485029D01*
X92206814Y-70499195D01*
X92192024Y-70511827D01*
X92175814Y-70523604D01*
X92175811Y-70523607D01*
X92147973Y-70557258D01*
X92140111Y-70565897D01*
X91159208Y-71546799D01*
X91146951Y-71556620D01*
X91147134Y-71556841D01*
X91141122Y-71561814D01*
X91095098Y-71610823D01*
X91092391Y-71613616D01*
X91072889Y-71633117D01*
X91072875Y-71633134D01*
X91070407Y-71636315D01*
X91062843Y-71645170D01*
X91032937Y-71677018D01*
X91032936Y-71677020D01*
X91023284Y-71694576D01*
X91012610Y-71710826D01*
X91000329Y-71726661D01*
X91000324Y-71726668D01*
X90982975Y-71766758D01*
X90977838Y-71777244D01*
X90956803Y-71815506D01*
X90951822Y-71834907D01*
X90945521Y-71853310D01*
X90937562Y-71871702D01*
X90937561Y-71871705D01*
X90930728Y-71914843D01*
X90928360Y-71926274D01*
X90917501Y-71968571D01*
X90917500Y-71968582D01*
X90917500Y-71988616D01*
X90915973Y-72008015D01*
X90912840Y-72027794D01*
X90912840Y-72027795D01*
X90916950Y-72071274D01*
X90917500Y-72082943D01*
X90917500Y-72679048D01*
X90897815Y-72746087D01*
X90845011Y-72791842D01*
X90806755Y-72802338D01*
X90760516Y-72807309D01*
X90625671Y-72857602D01*
X90625664Y-72857606D01*
X90510455Y-72943852D01*
X90510452Y-72943855D01*
X90424206Y-73059064D01*
X90424202Y-73059071D01*
X90373908Y-73193917D01*
X90367501Y-73253516D01*
X90367500Y-73253535D01*
X90367500Y-74699270D01*
X86360000Y-74699270D01*
X86360000Y-64106626D01*
X86379685Y-64039587D01*
X86432489Y-63993832D01*
X86484024Y-63982626D01*
X205616028Y-64007973D01*
G37*
%TD.AperFunction*%
%TD*%
M02*
