%TF.GenerationSoftware,KiCad,Pcbnew,7.0.10*%
%TF.CreationDate,2024-01-29T08:00:26-03:00*%
%TF.ProjectId,sensor_agv,73656e73-6f72-45f6-9167-762e6b696361,rev?*%
%TF.SameCoordinates,Original*%
%TF.FileFunction,Soldermask,Bot*%
%TF.FilePolarity,Negative*%
%FSLAX46Y46*%
G04 Gerber Fmt 4.6, Leading zero omitted, Abs format (unit mm)*
G04 Created by KiCad (PCBNEW 7.0.10) date 2024-01-29 08:00:26*
%MOMM*%
%LPD*%
G01*
G04 APERTURE LIST*
%ADD10R,1.350000X1.350000*%
%ADD11O,1.350000X1.350000*%
%ADD12C,1.600000*%
%ADD13R,1.600000X1.600000*%
%ADD14C,5.700000*%
%ADD15C,1.400000*%
%ADD16O,1.400000X1.400000*%
G04 APERTURE END LIST*
D10*
%TO.C,U8*%
X200543000Y-68976400D03*
D11*
X198543000Y-68976400D03*
X196543000Y-68976400D03*
%TD*%
D12*
%TO.C,J4*%
X124841000Y-123113800D03*
D13*
X129921000Y-123113800D03*
%TD*%
D14*
%TO.C,REF\u002A\u002A*%
X200290000Y-129057400D03*
%TD*%
D10*
%TO.C,U1*%
X91543000Y-73976400D03*
D11*
X93543000Y-73976400D03*
X95543000Y-73976400D03*
%TD*%
D12*
%TO.C,J3*%
X165531800Y-124047700D03*
D13*
X160451800Y-124047700D03*
%TD*%
D10*
%TO.C,U5*%
X155543000Y-68976400D03*
D11*
X153543000Y-68976400D03*
X151543000Y-68976400D03*
%TD*%
D10*
%TO.C,U4*%
X136543000Y-73976400D03*
D11*
X138543000Y-73976400D03*
X140543000Y-73976400D03*
%TD*%
D10*
%TO.C,J2*%
X153543000Y-85976400D03*
D11*
X153543000Y-87976400D03*
X153543000Y-89976400D03*
X153543000Y-91976400D03*
X153543000Y-93976400D03*
X153543000Y-95976400D03*
X153543000Y-97976400D03*
X153543000Y-99976400D03*
X153543000Y-101976400D03*
X153543000Y-103976400D03*
X153543000Y-105976400D03*
X153543000Y-107976400D03*
X153543000Y-109976400D03*
X153543000Y-111976400D03*
X153543000Y-113976400D03*
X153543000Y-115976400D03*
X153543000Y-117976400D03*
X153543000Y-119976400D03*
X153543000Y-121976400D03*
X153543000Y-123976400D03*
%TD*%
D10*
%TO.C,U2*%
X106543000Y-73976400D03*
D11*
X108543000Y-73976400D03*
X110543000Y-73976400D03*
%TD*%
D10*
%TO.C,J1*%
X138543000Y-85976400D03*
D11*
X138543000Y-87976400D03*
X138543000Y-89976400D03*
X138543000Y-91976400D03*
X138543000Y-93976400D03*
X138543000Y-95976400D03*
X138543000Y-97976400D03*
X138543000Y-99976400D03*
X138543000Y-101976400D03*
X138543000Y-103976400D03*
X138543000Y-105976400D03*
X138543000Y-107976400D03*
X138543000Y-109976400D03*
X138543000Y-111976400D03*
X138543000Y-113976400D03*
X138543000Y-115976400D03*
X138543000Y-117976400D03*
X138543000Y-119976400D03*
X138543000Y-121976400D03*
X138543000Y-123976400D03*
%TD*%
D15*
%TO.C,R1*%
X168096200Y-111978800D03*
D16*
X168096200Y-117058800D03*
%TD*%
D10*
%TO.C,U7*%
X185543000Y-68976400D03*
D11*
X183543000Y-68976400D03*
X181543000Y-68976400D03*
%TD*%
D10*
%TO.C,U6*%
X170543000Y-68976400D03*
D11*
X168543000Y-68976400D03*
X166543000Y-68976400D03*
%TD*%
D14*
%TO.C,REF\u002A\u002A*%
X91744800Y-129057400D03*
%TD*%
D10*
%TO.C,U3*%
X121543000Y-73976400D03*
D11*
X123543000Y-73976400D03*
X125543000Y-73976400D03*
%TD*%
D10*
%TO.C,J5*%
X124491000Y-111699400D03*
D11*
X126491000Y-111699400D03*
X128491000Y-111699400D03*
%TD*%
D10*
%TO.C,T1*%
X177443400Y-104004200D03*
D11*
X177443400Y-106004200D03*
X177443400Y-108004200D03*
X177443400Y-110004200D03*
X177443400Y-112004200D03*
X177443400Y-114004200D03*
%TD*%
M02*
