%TF.GenerationSoftware,KiCad,Pcbnew,7.0.10*%
%TF.CreationDate,2024-01-29T08:00:26-03:00*%
%TF.ProjectId,sensor_agv,73656e73-6f72-45f6-9167-762e6b696361,rev?*%
%TF.SameCoordinates,Original*%
%TF.FileFunction,Copper,L2,Bot*%
%TF.FilePolarity,Positive*%
%FSLAX46Y46*%
G04 Gerber Fmt 4.6, Leading zero omitted, Abs format (unit mm)*
G04 Created by KiCad (PCBNEW 7.0.10) date 2024-01-29 08:00:26*
%MOMM*%
%LPD*%
G01*
G04 APERTURE LIST*
%TA.AperFunction,ComponentPad*%
%ADD10R,1.350000X1.350000*%
%TD*%
%TA.AperFunction,ComponentPad*%
%ADD11O,1.350000X1.350000*%
%TD*%
%TA.AperFunction,ComponentPad*%
%ADD12C,1.600000*%
%TD*%
%TA.AperFunction,ComponentPad*%
%ADD13R,1.600000X1.600000*%
%TD*%
%TA.AperFunction,ComponentPad*%
%ADD14C,5.700000*%
%TD*%
%TA.AperFunction,ComponentPad*%
%ADD15C,1.400000*%
%TD*%
%TA.AperFunction,ComponentPad*%
%ADD16O,1.400000X1.400000*%
%TD*%
G04 APERTURE END LIST*
D10*
%TO.P,U8,1,VCC*%
%TO.N,/3.3V*%
X200543000Y-68976400D03*
D11*
%TO.P,U8,2,GND*%
%TO.N,/GND*%
X198543000Y-68976400D03*
%TO.P,U8,3,OUT*%
%TO.N,/Sensor_7*%
X196543000Y-68976400D03*
%TD*%
D12*
%TO.P,J4,1,Pin_1*%
%TO.N,/GND*%
X124841000Y-123113800D03*
D13*
%TO.P,J4,2,Pin_2*%
%TO.N,/BluePill/5V*%
X129921000Y-123113800D03*
%TD*%
D14*
%TO.P,REF\u002A\u002A,2*%
%TO.N,/GND*%
X200290000Y-129057400D03*
%TD*%
D10*
%TO.P,U1,1,VCC*%
%TO.N,/3.3V*%
X91543000Y-73976400D03*
D11*
%TO.P,U1,2,GND*%
%TO.N,/GND*%
X93543000Y-73976400D03*
%TO.P,U1,3,OUT*%
%TO.N,/Sensor_0*%
X95543000Y-73976400D03*
%TD*%
D12*
%TO.P,J3,1,Pin_1*%
%TO.N,/BluePill/CANL*%
X165531800Y-124047700D03*
D13*
%TO.P,J3,2,Pin_2*%
%TO.N,/BluePill/CANH*%
X160451800Y-124047700D03*
%TD*%
D10*
%TO.P,U5,1,VCC*%
%TO.N,/3.3V*%
X155543000Y-68976400D03*
D11*
%TO.P,U5,2,GND*%
%TO.N,/GND*%
X153543000Y-68976400D03*
%TO.P,U5,3,OUT*%
%TO.N,/Sensor_4*%
X151543000Y-68976400D03*
%TD*%
D10*
%TO.P,U4,1,VCC*%
%TO.N,/3.3V*%
X136543000Y-73976400D03*
D11*
%TO.P,U4,2,GND*%
%TO.N,/GND*%
X138543000Y-73976400D03*
%TO.P,U4,3,OUT*%
%TO.N,/Sensor_3*%
X140543000Y-73976400D03*
%TD*%
D10*
%TO.P,J2,1,Pin_1*%
%TO.N,unconnected-(J2-Pin_1-Pad1)*%
X153543000Y-85976400D03*
D11*
%TO.P,J2,2,Pin_2*%
%TO.N,/BluePill/5V*%
X153543000Y-87976400D03*
%TO.P,J2,3,Pin_3*%
%TO.N,/GND*%
X153543000Y-89976400D03*
%TO.P,J2,4,Pin_4*%
%TO.N,unconnected-(J2-Pin_4-Pad4)*%
X153543000Y-91976400D03*
%TO.P,J2,5,Pin_5*%
%TO.N,unconnected-(J2-Pin_5-Pad5)*%
X153543000Y-93976400D03*
%TO.P,J2,6,Pin_6*%
%TO.N,unconnected-(J2-Pin_6-Pad6)*%
X153543000Y-95976400D03*
%TO.P,J2,7,Pin_7*%
%TO.N,unconnected-(J2-Pin_7-Pad7)*%
X153543000Y-97976400D03*
%TO.P,J2,8,Pin_8*%
%TO.N,/Sensor_4*%
X153543000Y-99976400D03*
%TO.P,J2,9,Pin_9*%
%TO.N,/Sensor_5*%
X153543000Y-101976400D03*
%TO.P,J2,10,Pin_10*%
%TO.N,/Sensor_6*%
X153543000Y-103976400D03*
%TO.P,J2,11,Pin_11*%
%TO.N,/Sensor_7*%
X153543000Y-105976400D03*
%TO.P,J2,12,Pin_12*%
%TO.N,/BluePill/CTX*%
X153543000Y-107976400D03*
%TO.P,J2,13,Pin_13*%
%TO.N,/BluePill/CRX*%
X153543000Y-109976400D03*
%TO.P,J2,14,Pin_14*%
%TO.N,unconnected-(J2-Pin_14-Pad14)*%
X153543000Y-111976400D03*
%TO.P,J2,15,Pin_15*%
%TO.N,unconnected-(J2-Pin_15-Pad15)*%
X153543000Y-113976400D03*
%TO.P,J2,16,Pin_16*%
%TO.N,unconnected-(J2-Pin_16-Pad16)*%
X153543000Y-115976400D03*
%TO.P,J2,17,Pin_17*%
%TO.N,unconnected-(J2-Pin_17-Pad17)*%
X153543000Y-117976400D03*
%TO.P,J2,18,Pin_18*%
%TO.N,unconnected-(J2-Pin_18-Pad18)*%
X153543000Y-119976400D03*
%TO.P,J2,19,Pin_19*%
%TO.N,unconnected-(J2-Pin_19-Pad19)*%
X153543000Y-121976400D03*
%TO.P,J2,20,Pin_20*%
%TO.N,unconnected-(J2-Pin_20-Pad20)*%
X153543000Y-123976400D03*
%TD*%
D10*
%TO.P,U2,1,VCC*%
%TO.N,/3.3V*%
X106543000Y-73976400D03*
D11*
%TO.P,U2,2,GND*%
%TO.N,/GND*%
X108543000Y-73976400D03*
%TO.P,U2,3,OUT*%
%TO.N,/Sensor_1*%
X110543000Y-73976400D03*
%TD*%
D10*
%TO.P,J1,1,Pin_1*%
%TO.N,unconnected-(J1-Pin_1-Pad1)*%
X138543000Y-85976400D03*
D11*
%TO.P,J1,2,Pin_2*%
%TO.N,unconnected-(J1-Pin_2-Pad2)*%
X138543000Y-87976400D03*
%TO.P,J1,3,Pin_3*%
%TO.N,unconnected-(J1-Pin_3-Pad3)*%
X138543000Y-89976400D03*
%TO.P,J1,4,Pin_4*%
%TO.N,unconnected-(J1-Pin_4-Pad4)*%
X138543000Y-91976400D03*
%TO.P,J1,5,Pin_5*%
%TO.N,unconnected-(J1-Pin_5-Pad5)*%
X138543000Y-93976400D03*
%TO.P,J1,6,Pin_6*%
%TO.N,unconnected-(J1-Pin_6-Pad6)*%
X138543000Y-95976400D03*
%TO.P,J1,7,Pin_7*%
%TO.N,unconnected-(J1-Pin_7-Pad7)*%
X138543000Y-97976400D03*
%TO.P,J1,8,Pin_8*%
%TO.N,unconnected-(J1-Pin_8-Pad8)*%
X138543000Y-99976400D03*
%TO.P,J1,9,Pin_9*%
%TO.N,/Sensor_3*%
X138543000Y-101976400D03*
%TO.P,J1,10,Pin_10*%
%TO.N,/Sensor_2*%
X138543000Y-103976400D03*
%TO.P,J1,11,Pin_11*%
%TO.N,/Sensor_1*%
X138543000Y-105976400D03*
%TO.P,J1,12,Pin_12*%
%TO.N,/Sensor_0*%
X138543000Y-107976400D03*
%TO.P,J1,13,Pin_13*%
%TO.N,unconnected-(J1-Pin_13-Pad13)*%
X138543000Y-109976400D03*
%TO.P,J1,14,Pin_14*%
%TO.N,unconnected-(J1-Pin_14-Pad14)*%
X138543000Y-111976400D03*
%TO.P,J1,15,Pin_15*%
%TO.N,unconnected-(J1-Pin_15-Pad15)*%
X138543000Y-113976400D03*
%TO.P,J1,16,Pin_16*%
%TO.N,unconnected-(J1-Pin_16-Pad16)*%
X138543000Y-115976400D03*
%TO.P,J1,17,Pin_17*%
%TO.N,unconnected-(J1-Pin_17-Pad17)*%
X138543000Y-117976400D03*
%TO.P,J1,18,Pin_18*%
%TO.N,unconnected-(J1-Pin_18-Pad18)*%
X138543000Y-119976400D03*
%TO.P,J1,19,Pin_19*%
%TO.N,unconnected-(J1-Pin_19-Pad19)*%
X138543000Y-121976400D03*
%TO.P,J1,20,Pin_20*%
%TO.N,unconnected-(J1-Pin_20-Pad20)*%
X138543000Y-123976400D03*
%TD*%
D15*
%TO.P,R1,1*%
%TO.N,/BluePill/CANH*%
X168096200Y-111978800D03*
D16*
%TO.P,R1,2*%
%TO.N,/BluePill/CANL*%
X168096200Y-117058800D03*
%TD*%
D10*
%TO.P,U7,1,VCC*%
%TO.N,/3.3V*%
X185543000Y-68976400D03*
D11*
%TO.P,U7,2,GND*%
%TO.N,/GND*%
X183543000Y-68976400D03*
%TO.P,U7,3,OUT*%
%TO.N,/Sensor_6*%
X181543000Y-68976400D03*
%TD*%
D10*
%TO.P,U6,1,VCC*%
%TO.N,/3.3V*%
X170543000Y-68976400D03*
D11*
%TO.P,U6,2,GND*%
%TO.N,/GND*%
X168543000Y-68976400D03*
%TO.P,U6,3,OUT*%
%TO.N,/Sensor_5*%
X166543000Y-68976400D03*
%TD*%
D14*
%TO.P,REF\u002A\u002A,1*%
%TO.N,/GND*%
X91744800Y-129057400D03*
%TD*%
D10*
%TO.P,U3,1,VCC*%
%TO.N,/3.3V*%
X121543000Y-73976400D03*
D11*
%TO.P,U3,2,GND*%
%TO.N,/GND*%
X123543000Y-73976400D03*
%TO.P,U3,3,OUT*%
%TO.N,/Sensor_2*%
X125543000Y-73976400D03*
%TD*%
D10*
%TO.P,J5,1,Pin_1*%
%TO.N,/3.3V*%
X124491000Y-111699400D03*
D11*
%TO.P,J5,2,Pin_2*%
%TO.N,/GND*%
X126491000Y-111699400D03*
%TO.P,J5,3,Pin_3*%
%TO.N,/BluePill/5V*%
X128491000Y-111699400D03*
%TD*%
D10*
%TO.P,T1,1,3.3V*%
%TO.N,/3.3V*%
X177443400Y-104004200D03*
D11*
%TO.P,T1,2,GND*%
%TO.N,/GND*%
X177443400Y-106004200D03*
%TO.P,T1,3,CTX*%
%TO.N,/BluePill/CTX*%
X177443400Y-108004200D03*
%TO.P,T1,4,CRX*%
%TO.N,/BluePill/CRX*%
X177443400Y-110004200D03*
%TO.P,T1,5,CANH*%
%TO.N,/BluePill/CANH*%
X177443400Y-112004200D03*
%TO.P,T1,6,CANL*%
%TO.N,/BluePill/CANL*%
X177443400Y-114004200D03*
%TD*%
M02*
